<svg width="10" height="10" viewBox="0 0 10 10" fill="none" xmlns="http://www.w3.org/2000/svg">
<path d="M5 10C7.76142 10 10 7.76142 10 5C10 2.23858 7.76142 0 5 0C2.23858 0 0 2.23858 0 5C0 7.76142 2.23858 10 5 10Z" fill="#66757F"/>
<path d="M2.9168 3.33336C3.45375 3.33336 3.88902 2.89808 3.88902 2.36114C3.88902 1.82419 3.45375 1.38892 2.9168 1.38892C2.37986 1.38892 1.94458 1.82419 1.94458 2.36114C1.94458 2.89808 2.37986 3.33336 2.9168 3.33336Z" fill="#1A4676"/>
<path d="M5.55575 5.27775C6.01598 5.27775 6.38908 4.90465 6.38908 4.44442C6.38908 3.98418 6.01598 3.61108 5.55575 3.61108C5.09551 3.61108 4.72241 3.98418 4.72241 4.44442C4.72241 4.90465 5.09551 5.27775 5.55575 5.27775Z" fill="#1A4676"/>
<path d="M5.97222 8.61107C6.50917 8.61107 6.94444 8.17579 6.94444 7.63885C6.94444 7.1019 6.50917 6.66663 5.97222 6.66663C5.43528 6.66663 5 7.1019 5 7.63885C5 8.17579 5.43528 8.61107 5.97222 8.61107Z" fill="#1A4676"/>
<path d="M5.83339 2.2222C6.14021 2.2222 6.38894 1.97346 6.38894 1.66664C6.38894 1.35981 6.14021 1.11108 5.83339 1.11108C5.52656 1.11108 5.27783 1.35981 5.27783 1.66664C5.27783 1.97346 5.52656 2.2222 5.83339 2.2222Z" fill="#1A4676"/>
<path d="M0.833442 5.27772C0.986854 5.27772 1.11122 5.15336 1.11122 4.99995C1.11122 4.84653 0.986854 4.72217 0.833442 4.72217C0.680029 4.72217 0.555664 4.84653 0.555664 4.99995C0.555664 5.15336 0.680029 5.27772 0.833442 5.27772Z" fill="#1A4676"/>
<path d="M8.33344 2.77772C8.48685 2.77772 8.61122 2.65336 8.61122 2.49995C8.61122 2.34653 8.48685 2.22217 8.33344 2.22217C8.18003 2.22217 8.05566 2.34653 8.05566 2.49995C8.05566 2.65336 8.18003 2.77772 8.33344 2.77772Z" fill="#1A4676"/>
<path d="M4.16669 8.88893C4.32011 8.88893 4.44447 8.76456 4.44447 8.61115C4.44447 8.45774 4.32011 8.33337 4.16669 8.33337C4.01328 8.33337 3.88892 8.45774 3.88892 8.61115C3.88892 8.76456 4.01328 8.88893 4.16669 8.88893Z" fill="#1A4676"/>
<path d="M8.88905 5.83328C9.19588 5.83328 9.44461 5.58455 9.44461 5.27772C9.44461 4.9709 9.19588 4.72217 8.88905 4.72217C8.58223 4.72217 8.3335 4.9709 8.3335 5.27772C8.3335 5.58455 8.58223 5.83328 8.88905 5.83328Z" fill="#1A4676"/>
<path d="M2.77797 6.94449C3.08479 6.94449 3.33352 6.69575 3.33352 6.38893C3.33352 6.0821 3.08479 5.83337 2.77797 5.83337C2.47114 5.83337 2.22241 6.0821 2.22241 6.38893C2.22241 6.69575 2.47114 6.94449 2.77797 6.94449Z" fill="#1A4676"/>
</svg>
