<svg width="184" height="370" viewBox="0 0 184 370" fill="none" xmlns="http://www.w3.org/2000/svg">
<path d="M42.0982 134.994C42.0982 138.78 38.5518 138.693 38.1768 138.693H30.9545V131.399H38.1768C41.9768 131.399 42.0982 134.247 42.0982 134.994ZM37.6205 128.464C37.6804 128.464 41.0527 128.554 41.0527 125.222C41.0527 123.837 40.7393 122.02 37.6205 122.02H30.9545V128.464H37.6205ZM56 116.667V143.333C55.9948 145.1 55.2907 146.792 54.0416 148.042C52.7924 149.291 51.0996 149.995 49.333 150H22.667C20.9004 149.995 19.2076 149.291 17.9584 148.042C16.7093 146.792 16.0052 145.1 16 143.333V116.667C16.0052 114.9 16.7093 113.208 17.9584 111.958C19.2076 110.709 20.9004 110.005 22.667 110H49.333C51.0996 110.005 52.7924 110.709 54.0416 111.958C55.2907 113.208 55.9948 114.9 56 116.667ZM46.183 135.523C46.183 133.597 45.5893 130.319 41.8036 129.51V129.445C43.8491 128.571 45.1375 126.922 45.1375 124.477C45.1375 123.852 45.3161 118.693 38.2089 118.693H26.8696V142.026C38.3188 142.026 39.358 142.176 41.4768 141.516C42.7455 141.121 46.183 139.911 46.183 135.523Z" fill="#A7AFC4"/>
<path d="M36.865 235.9C36.8462 235.932 36.8275 235.957 36.865 235.9V235.9ZM52.4358 231.369C51.1787 231.369 49.9384 231.61 48.8108 232.073C48.442 231.453 48.0608 230.911 47.9983 230.505C47.9233 230.031 47.842 229.75 47.9295 229.187C48.017 228.625 48.4108 227.828 48.4045 227.771C48.3983 227.713 48.317 227.427 47.5107 227.422C46.7045 227.417 46.0107 227.552 45.9301 227.729C45.7877 228.053 45.6769 228.385 45.5988 228.724C45.4551 229.333 43.987 231.51 43.1557 232.645C42.8807 232.203 42.6494 231.812 42.5994 231.5C42.5244 231.026 42.4432 230.744 42.5307 230.182C42.6182 229.62 43.0119 228.823 43.0057 228.765C42.9994 228.708 42.9182 228.422 42.1126 228.417C41.3069 228.411 40.6125 228.547 40.5313 228.724C40.45 228.901 40.3625 229.318 40.2 229.719C40.0375 230.12 38.0819 233.744 37.57 234.687C37.3075 235.166 37.0825 235.551 36.92 235.812C36.895 235.853 36.8762 235.879 36.8637 235.9C36.8825 235.874 36.895 235.848 36.895 235.859C36.7575 236.083 36.6762 236.208 36.6762 236.208V236.213C36.57 236.379 36.4512 236.53 36.395 236.53C36.3575 236.53 36.2762 236.093 36.4137 235.494C36.7075 234.234 37.4013 232.276 37.395 232.208C37.3888 232.171 37.5263 231.833 36.9387 231.651C36.37 231.479 36.1637 231.765 36.1137 231.765C36.0637 231.765 36.0262 231.869 36.0262 231.869C36.0262 231.869 36.6575 229.661 34.8143 229.661C33.6643 229.661 32.0643 230.713 31.2781 231.666C30.7843 231.89 29.7155 232.375 28.5905 232.89C28.1593 233.088 27.7155 233.291 27.2968 233.484C27.2655 233.458 27.2405 233.432 27.2093 233.406C24.9724 231.416 20.8423 230.01 21.0173 227.339C21.0798 226.365 21.4861 223.808 28.9593 220.704C35.0844 218.162 39.9813 218.86 40.8244 220.412C42.0369 222.625 38.2063 226.745 31.8456 227.339C29.4212 227.562 28.1468 226.781 27.828 226.49C27.4968 226.182 27.4468 226.167 27.3218 226.224C27.1155 226.318 27.2468 226.589 27.3218 226.75C27.5093 227.161 28.2905 227.891 29.6212 228.255C30.7899 228.573 33.6325 228.75 37.0694 227.641C40.9307 226.401 43.9363 222.948 43.0551 220.058C42.1576 217.121 36.3125 216.157 30.7856 217.792C27.4924 218.766 23.9311 220.297 21.3692 222.292C18.326 224.667 17.8392 226.734 18.0392 227.599C18.751 230.666 23.8248 232.666 25.8555 234.145C25.7555 234.192 25.6617 234.234 25.5742 234.275C24.5561 234.697 20.6879 236.385 19.7198 238.166C18.626 240.186 19.901 241.634 20.7379 241.832C23.3498 242.436 26.0242 241.348 27.4611 239.561C28.898 237.775 28.7237 235.442 28.0611 234.38C28.0549 234.364 28.0424 234.354 28.0361 234.338C28.2986 234.208 28.5674 234.078 28.8362 233.947C29.3543 233.692 29.8605 233.458 30.3043 233.255C30.0543 233.817 29.873 234.494 29.7793 235.473C29.6668 236.619 30.2355 238.103 30.9731 238.687C31.2981 238.942 31.6912 238.947 31.9349 238.947C32.7975 238.947 33.185 238.353 33.6156 237.645C34.1468 236.78 34.6156 235.775 34.6156 235.775C34.6156 235.775 34.0281 238.494 35.6344 238.494C36.2212 238.494 36.8087 237.864 37.0719 237.541V237.546C37.0719 237.546 37.0844 237.525 37.1156 237.484C37.1781 237.405 37.2094 237.359 37.2094 237.359V237.343C37.4469 237.004 37.9656 236.228 38.7463 234.947C39.7588 233.291 40.7269 231.224 40.7269 231.224C40.8205 231.678 40.9499 232.127 41.1144 232.567C41.2894 233.062 41.6582 233.604 41.9519 234.13C41.7144 234.4 41.5707 234.557 41.5707 234.557C41.5711 234.561 41.5734 234.564 41.5769 234.567C41.3894 234.775 41.1769 234.999 40.9582 235.218C40.1588 236.01 39.2081 236.916 39.0831 237.176C38.9331 237.484 38.9706 237.713 39.2582 237.89C39.4707 238.025 39.8457 238.046 40.2388 238.02C40.9575 237.978 41.4638 237.832 41.7076 237.739C42.1569 237.604 42.5816 237.419 42.9694 237.187C43.7507 236.708 44.2257 236.02 44.182 235.114C44.157 234.614 43.9632 234.114 43.7257 233.645C43.7945 233.562 43.8695 233.473 43.9382 233.385C45.1751 231.88 46.1314 230.228 46.1314 230.228C46.2249 230.682 46.3544 231.131 46.5189 231.572C46.6689 231.993 46.962 232.457 47.2307 232.91C46.0689 233.696 45.3501 234.608 45.1001 235.207C44.6376 236.316 45.0001 236.816 45.6814 236.93C45.9876 236.983 46.4251 236.863 46.7501 236.748C47.2328 236.614 47.6879 236.419 48.0995 236.17C48.8808 235.691 49.6364 235.019 49.5864 234.108C49.5676 233.696 49.4301 233.285 49.2489 232.889C50.2302 232.545 51.5045 232.358 53.1296 232.514C56.6096 232.853 57.2909 234.665 57.1596 235.42C57.0284 236.175 56.2971 236.597 56.0533 236.722C55.8096 236.847 55.7346 236.894 55.7533 236.988C55.7846 237.123 55.8971 237.118 56.1034 237.087C56.3909 237.045 57.9277 236.472 57.9965 235.071C58.0965 233.301 56.0533 231.353 52.4339 231.368L52.4358 231.369ZM25.6117 238.905C24.4624 239.952 22.8498 240.348 22.1567 240.015C21.4129 239.654 21.7067 238.114 23.1248 236.998C23.9873 236.321 25.0992 235.696 25.8367 235.311C26.0055 235.227 26.2492 235.102 26.5493 234.951C26.5993 234.925 26.6243 234.915 26.6243 234.915C26.6805 234.884 26.743 234.858 26.8055 234.826C27.3236 236.41 26.8243 237.805 25.6117 238.904V238.905ZM34.0093 234.145C33.6093 234.963 32.7662 237.046 32.2537 236.937C31.8162 236.843 31.5474 235.255 32.1662 233.692C32.4787 232.906 33.1412 231.968 33.535 231.604C34.1656 231.015 34.8593 230.828 35.0219 231.062C35.2406 231.369 34.2593 233.635 34.0093 234.145ZM40.9469 236.905C40.7782 236.978 40.6219 237.025 40.5469 236.989C40.4907 236.963 40.6157 236.864 40.6157 236.864C40.6157 236.864 41.4844 236.088 41.8282 235.734C42.0282 235.525 42.2594 235.281 42.5088 235.01C42.5088 235.036 42.5151 235.062 42.5151 235.093C42.5069 236.025 41.4326 236.655 40.945 236.905H40.9469ZM46.2957 235.89C46.1707 235.817 46.1895 235.572 46.6082 234.812C46.7707 234.515 47.1451 234.015 47.7957 233.536C47.8694 233.717 47.9094 233.907 47.9145 234.098C47.9083 235.27 46.902 235.708 46.2964 235.89H46.2957Z" fill="#A7AFC4"/>
<path d="M115 0L118.635 37.9897L135 43L151.365 37.9897L155 0H115ZM147.615 7.67857L147.115 12.2185L135.104 16.9504L135.073 16.96H146.688L145.354 31.031L135.125 33.7857L124.833 30.983L124.167 23.89H129.26L129.594 27.5661L135.073 28.8426L140.771 27.3645L141.156 21.452L123.833 21.404V21.3944L123.812 21.404L123.438 16.96L135.115 12.4777L135.792 12.2185H122.99L122.385 7.67857H147.615Z" fill="#A7AFC4"/>
<path d="M129.506 324.474C126.124 340.247 140.804 347.787 140.804 347.787C140.804 347.787 143.481 348.082 143.904 347.787C144.327 347.492 144.186 347.05 144.186 347.05V343.217C142.285 343.591 141.268 343.691 139.817 343.07C138.636 342.733 138.035 341.75 136.999 339.532L136.294 338.647C134.91 337.675 134.422 337.227 134.885 336.878H136.153C137.177 337.087 138.078 338.101 139.817 340.269C141.249 341.235 142.28 341.188 144.327 340.564C144.341 339.147 144.583 338.529 145.454 337.763C143.784 337.579 142.79 337.346 140.804 336.436C140.804 336.436 136.717 334.815 136.717 329.213C136.717 323.611 138.69 322.432 138.69 322.432C138.69 322.432 137.944 319.063 138.831 317.125C140.883 316.7 142.07 317.619 144.186 319.189C147.834 317.997 149.991 318.217 153.91 319.189C155.259 318.103 156.297 317.631 158.843 317.125C159.604 319.71 159.507 320.779 158.984 322.432L159.97 323.906C159.97 323.906 161.803 327.149 160.393 332.161C158.984 337.173 152.36 337.763 152.36 337.763C153.314 338.665 153.48 339.433 153.488 341.006V347.05C153.488 347.05 153.629 347.787 154.333 347.934C155.038 348.082 156.363 347.934 156.363 347.934C156.363 347.934 159.631 346.601 162.604 343.893C164.143 342.492 166.765 339.233 168.278 333.795C169.791 328.358 168.558 322.362 167.9 320.784C167.241 319.207 166.031 316.033 159.97 311.463C153.91 306.893 148.608 308.162 147.474 308.162C146.339 308.162 132.888 308.7 129.506 324.474Z" fill="#A7AFC4"/>
<path d="M50.8394 319.951C46.0605 316.023 36.796 318.166 34.3704 325.115C34.3704 325.115 38.022 320.992 41.6736 322.468C45.3252 323.944 47.2123 327.285 51.8688 328.392C56.5252 329.499 60.8951 327.544 64 321.752C59.3233 326.378 55.6184 323.878 50.8394 319.951Z" fill="#A7AFC4"/>
<path d="M36.5724 327.185C30.519 326.248 27.0616 327.542 24 333.092C29.5507 328.209 32.9453 332.582 38.6065 335.617C44.2677 338.652 49.9006 336.618 53.6296 330.24C45.0275 336.473 42.6257 328.122 36.5724 327.185Z" fill="#A7AFC4"/>
<path d="M156.714 110H125.286C122.92 110 121 111.92 121 114.286V145.714C121 148.08 122.92 150 125.286 150H156.714C159.08 150 161 148.08 161 145.714V114.286C161 111.92 159.08 110 156.714 110ZM142.768 141.196C142.768 145.089 140.482 146.866 137.152 146.866C134.143 146.866 132.402 145.312 131.509 143.429L134.571 141.58C135.161 142.625 135.696 143.509 136.991 143.509C138.223 143.509 139.009 143.027 139.009 141.143V128.366H142.768V141.196ZM151.661 146.866C148.17 146.866 145.911 145.205 144.813 143.027L147.875 141.259C148.679 142.571 149.732 143.545 151.58 143.545C153.134 143.545 154.134 142.768 154.134 141.688C154.134 140.402 153.116 139.946 151.393 139.188L150.455 138.786C147.741 137.634 145.946 136.179 145.946 133.116C145.946 130.295 148.098 128.152 151.446 128.152C153.839 128.152 155.554 128.982 156.786 131.161L153.857 133.036C153.214 131.884 152.518 131.429 151.438 131.429C150.339 131.429 149.643 132.125 149.643 133.036C149.643 134.161 150.339 134.616 151.955 135.321L152.893 135.723C156.089 137.089 157.884 138.491 157.884 141.634C157.884 145.009 155.223 146.866 151.661 146.866Z" fill="#A7AFC4"/>
<path d="M155.672 223.343C155.25 223.202 154.828 223.069 154.406 222.944C154.477 222.655 154.539 222.366 154.602 222.077C155.562 217.421 154.93 213.679 152.797 212.444C150.742 211.265 147.391 212.491 144 215.444C143.664 215.733 143.336 216.038 143.023 216.343C142.812 216.14 142.594 215.937 142.375 215.741C138.82 212.585 135.258 211.257 133.125 212.499C131.078 213.687 130.469 217.21 131.328 221.616C131.414 222.054 131.508 222.483 131.617 222.921C131.117 223.062 130.625 223.218 130.164 223.382C125.992 224.827 123 227.108 123 229.468C123 231.905 126.188 234.351 130.523 235.835C130.875 235.952 131.227 236.069 131.586 236.171C131.469 236.64 131.367 237.101 131.273 237.577C130.453 241.913 131.094 245.351 133.141 246.53C135.25 247.749 138.797 246.499 142.25 243.476C142.523 243.233 142.797 242.983 143.07 242.718C143.414 243.054 143.773 243.374 144.133 243.687C147.477 246.562 150.781 247.726 152.82 246.546C154.93 245.327 155.617 241.632 154.727 237.132C154.656 236.788 154.578 236.437 154.492 236.077C154.742 236.007 154.984 235.929 155.227 235.851C159.734 234.358 163 231.944 163 229.468C163 227.101 159.922 224.804 155.672 223.343ZM145.102 216.71C148.008 214.179 150.719 213.187 151.953 213.897C153.273 214.655 153.781 217.718 152.953 221.741C152.898 222.007 152.844 222.265 152.773 222.522C151.039 222.132 149.281 221.851 147.516 221.694C146.5 220.241 145.391 218.851 144.188 217.546C144.492 217.257 144.789 216.983 145.102 216.71ZM136.062 233.522C136.461 234.202 136.867 234.882 137.297 235.546C136.078 235.413 134.867 235.218 133.672 234.96C134.016 233.835 134.445 232.671 134.945 231.483C135.305 232.171 135.672 232.851 136.062 233.522ZM133.695 224.124C134.82 223.874 136.016 223.671 137.258 223.515C136.844 224.163 136.438 224.827 136.055 225.499C135.672 226.163 135.297 226.843 134.945 227.53C134.453 226.366 134.039 225.226 133.695 224.124ZM135.836 229.507C136.352 228.429 136.914 227.374 137.508 226.335C138.102 225.296 138.742 224.288 139.414 223.296C140.586 223.21 141.781 223.163 143 223.163C144.219 223.163 145.422 223.21 146.586 223.296C147.25 224.28 147.883 225.288 148.484 226.319C149.086 227.351 149.648 228.405 150.18 229.476C149.656 230.554 149.094 231.616 148.492 232.663C147.898 233.702 147.266 234.71 146.602 235.71C145.438 235.796 144.227 235.835 143 235.835C141.773 235.835 140.586 235.796 139.438 235.726C138.758 234.733 138.117 233.718 137.516 232.679C136.914 231.64 136.359 230.585 135.836 229.507ZM149.945 233.507C150.344 232.819 150.719 232.124 151.086 231.421C151.586 232.554 152.023 233.702 152.406 234.882C151.195 235.155 149.969 235.366 148.734 235.507C149.156 234.851 149.555 234.179 149.945 233.507ZM151.07 227.53C150.703 226.843 150.328 226.155 149.938 225.483C149.555 224.819 149.156 224.163 148.742 223.515C150 223.671 151.203 223.882 152.328 224.14C151.969 225.296 151.547 226.421 151.07 227.53ZM143.016 218.741C143.836 219.632 144.609 220.569 145.328 221.538C143.781 221.468 142.227 221.468 140.68 221.538C141.445 220.53 142.234 219.593 143.016 218.741ZM133.953 213.952C135.266 213.187 138.18 214.28 141.25 216.999C141.445 217.171 141.641 217.358 141.844 217.546C140.633 218.851 139.516 220.241 138.492 221.694C136.727 221.851 134.977 222.124 133.242 222.507C133.141 222.108 133.055 221.702 132.969 221.296C132.234 217.515 132.719 214.663 133.953 213.952ZM132.039 234.546C131.711 234.452 131.391 234.351 131.07 234.241C129.406 233.718 127.516 232.89 126.148 231.804C125.359 231.257 124.828 230.413 124.68 229.468C124.68 228.038 127.148 226.21 130.711 224.968C131.156 224.812 131.609 224.671 132.062 224.538C132.594 226.233 133.234 227.897 133.977 229.507C133.227 231.14 132.578 232.827 132.039 234.546ZM141.148 242.202C139.859 243.382 138.367 244.319 136.742 244.96C135.875 245.374 134.875 245.413 133.984 245.062C132.742 244.343 132.227 241.585 132.93 237.874C133.016 237.437 133.109 236.999 133.219 236.569C134.969 236.944 136.734 237.202 138.523 237.335C139.555 238.796 140.688 240.194 141.898 241.507C141.648 241.749 141.398 241.983 141.148 242.202ZM143.062 240.304C142.266 239.444 141.469 238.491 140.695 237.468C141.445 237.499 142.219 237.515 143 237.515C143.805 237.515 144.594 237.499 145.375 237.46C144.656 238.452 143.883 239.397 143.062 240.304ZM153.273 242.647C153.203 243.601 152.734 244.491 151.984 245.093C150.742 245.812 148.094 244.874 145.234 242.421C144.906 242.14 144.578 241.835 144.242 241.522C145.438 240.202 146.539 238.804 147.539 237.335C149.328 237.187 151.109 236.913 152.867 236.515C152.945 236.835 153.016 237.155 153.078 237.468C153.461 239.155 153.523 240.913 153.273 242.647ZM154.695 234.249C154.477 234.319 154.258 234.39 154.031 234.452C153.484 232.749 152.812 231.085 152.039 229.468C152.789 227.874 153.422 226.233 153.953 224.554C154.359 224.671 154.75 224.796 155.125 224.921C158.766 226.171 161.32 228.03 161.32 229.452C161.32 230.983 158.594 232.96 154.695 234.249ZM143 233.077C144.977 233.077 146.578 231.476 146.578 229.499C146.578 227.522 144.977 225.921 143 225.921C141.023 225.921 139.422 227.522 139.422 229.499C139.422 231.476 141.023 233.077 143 233.077Z" fill="#A7AFC4"/>
<path d="M10 0L13.6354 37.9897L29.9479 43L46.3646 37.9897L50 0H10ZM42.1042 12.2761H22.9583L23.3854 17.0176H41.6771L40.2604 31.2614L30.0625 33.8529V33.8817H29.9479L19.6667 31.2614L19.0417 23.9859H24.0104L24.375 27.6429L29.9479 29.0346L35.5417 27.6429L36.1667 21.6728H18.7812L17.4479 7.69777H42.5625L42.1042 12.2761Z" fill="#A7AFC4"/>
<path d="M9.568 62V50.8H10.96V55.536H16.24V50.8H17.632V62H16.24V56.848H10.96V62H9.568ZM23.1086 62V52.128H19.9886V50.8H27.6206V52.128H24.5006V62H23.1086ZM34.8383 62.192L31.7983 55.12C31.7183 54.9333 31.6329 54.7307 31.5423 54.512C31.4569 54.288 31.3823 54.0853 31.3183 53.904C31.3343 54.048 31.3449 54.24 31.3503 54.48C31.3609 54.7147 31.3663 54.928 31.3663 55.12V62H29.9743V50.8H31.2863L34.5503 58.336C34.5983 58.4533 34.6463 58.576 34.6943 58.704C34.7423 58.832 34.7903 58.96 34.8383 59.088C34.8809 58.9653 34.9263 58.8427 34.9743 58.72C35.0223 58.592 35.0729 58.464 35.1263 58.336L38.3743 50.8H39.7023V62H38.3103V55.12C38.3103 54.928 38.3129 54.712 38.3183 54.472C38.3289 54.2267 38.3369 54.032 38.3423 53.888C38.2783 54.0693 38.1983 54.2773 38.1023 54.512C38.0116 54.7467 37.9263 54.96 37.8463 55.152L34.8383 62.192ZM42.7711 62V50.8H44.1631V60.656H49.6671V62H42.7711Z" fill="#A7AFC4"/>
<path d="M124.728 62.192C123.88 62.192 123.16 62.0267 122.568 61.696C121.976 61.3653 121.499 60.9227 121.136 60.368C120.773 59.808 120.507 59.184 120.336 58.496C120.171 57.808 120.088 57.1093 120.088 56.4C120.088 55.696 120.173 55.0027 120.344 54.32C120.52 53.632 120.792 53.008 121.16 52.448C121.528 51.888 122.005 51.4427 122.592 51.112C123.184 50.776 123.896 50.608 124.728 50.608C125.416 50.608 125.997 50.7067 126.472 50.904C126.952 51.1013 127.341 51.3547 127.64 51.664C127.944 51.968 128.179 52.288 128.344 52.624L127.096 53.264C126.92 53.0027 126.728 52.7707 126.52 52.568C126.312 52.36 126.064 52.1973 125.776 52.08C125.488 51.9627 125.139 51.904 124.728 51.904C124.131 51.904 123.627 52.04 123.216 52.312C122.805 52.584 122.475 52.9413 122.224 53.384C121.979 53.8267 121.8 54.312 121.688 54.84C121.581 55.368 121.528 55.888 121.528 56.4C121.528 56.9547 121.589 57.4987 121.712 58.032C121.835 58.5653 122.027 59.048 122.288 59.48C122.549 59.9067 122.88 60.248 123.28 60.504C123.685 60.7547 124.168 60.88 124.728 60.88C125.347 60.88 125.843 60.7493 126.216 60.488C126.589 60.2213 126.904 59.8773 127.16 59.456L128.44 59.936C128.248 60.352 127.987 60.7307 127.656 61.072C127.325 61.4133 126.917 61.6853 126.432 61.888C125.952 62.0907 125.384 62.192 124.728 62.192ZM134.113 62.192C133.463 62.192 132.873 62.0853 132.345 61.872C131.817 61.6533 131.369 61.3573 131.001 60.984C130.639 60.6053 130.375 60.176 130.209 59.696L131.521 59.216C131.745 59.712 132.084 60.1147 132.537 60.424C132.996 60.728 133.532 60.88 134.145 60.88C134.817 60.88 135.353 60.72 135.753 60.4C136.153 60.0747 136.353 59.6053 136.353 58.992C136.353 58.56 136.233 58.1973 135.993 57.904C135.753 57.6107 135.441 57.3653 135.057 57.168C134.673 56.9653 134.263 56.784 133.825 56.624C133.436 56.48 133.047 56.32 132.657 56.144C132.268 55.968 131.913 55.76 131.593 55.52C131.279 55.2747 131.025 54.9787 130.833 54.632C130.641 54.28 130.545 53.8613 130.545 53.376C130.545 52.8747 130.681 52.416 130.953 52C131.225 51.5787 131.617 51.2427 132.129 50.992C132.641 50.736 133.26 50.608 133.985 50.608C134.577 50.608 135.097 50.696 135.545 50.872C135.999 51.0427 136.369 51.28 136.657 51.584C136.951 51.8827 137.153 52.224 137.265 52.608L135.985 53.04C135.852 52.7253 135.607 52.4587 135.249 52.24C134.897 52.016 134.444 51.904 133.889 51.904C133.297 51.904 132.831 52.0347 132.489 52.296C132.153 52.5573 131.985 52.9173 131.985 53.376C131.985 53.7227 132.097 54.0133 132.321 54.248C132.551 54.4773 132.849 54.6773 133.217 54.848C133.585 55.0187 133.98 55.184 134.401 55.344C134.796 55.4933 135.191 55.664 135.585 55.856C135.985 56.0427 136.351 56.272 136.681 56.544C137.017 56.816 137.287 57.1493 137.489 57.544C137.692 57.9333 137.793 58.4053 137.793 58.96C137.793 59.648 137.633 60.232 137.313 60.712C136.993 61.192 136.556 61.56 136.001 61.816C135.447 62.0667 134.817 62.192 134.113 62.192ZM143.691 62.192C143.041 62.192 142.451 62.0853 141.923 61.872C141.395 61.6533 140.947 61.3573 140.579 60.984C140.217 60.6053 139.953 60.176 139.787 59.696L141.099 59.216C141.323 59.712 141.662 60.1147 142.115 60.424C142.574 60.728 143.11 60.88 143.723 60.88C144.395 60.88 144.931 60.72 145.331 60.4C145.731 60.0747 145.931 59.6053 145.931 58.992C145.931 58.56 145.811 58.1973 145.571 57.904C145.331 57.6107 145.019 57.3653 144.635 57.168C144.251 56.9653 143.841 56.784 143.403 56.624C143.014 56.48 142.625 56.32 142.235 56.144C141.846 55.968 141.491 55.76 141.171 55.52C140.857 55.2747 140.603 54.9787 140.411 54.632C140.219 54.28 140.123 53.8613 140.123 53.376C140.123 52.8747 140.259 52.416 140.531 52C140.803 51.5787 141.195 51.2427 141.707 50.992C142.219 50.736 142.838 50.608 143.563 50.608C144.155 50.608 144.675 50.696 145.123 50.872C145.577 51.0427 145.947 51.28 146.235 51.584C146.529 51.8827 146.731 52.224 146.843 52.608L145.563 53.04C145.43 52.7253 145.185 52.4587 144.827 52.24C144.475 52.016 144.022 51.904 143.467 51.904C142.875 51.904 142.409 52.0347 142.067 52.296C141.731 52.5573 141.563 52.9173 141.563 53.376C141.563 53.7227 141.675 54.0133 141.899 54.248C142.129 54.4773 142.427 54.6773 142.795 54.848C143.163 55.0187 143.558 55.184 143.979 55.344C144.374 55.4933 144.769 55.664 145.163 55.856C145.563 56.0427 145.929 56.272 146.259 56.544C146.595 56.816 146.865 57.1493 147.067 57.544C147.27 57.9333 147.371 58.4053 147.371 58.96C147.371 59.648 147.211 60.232 146.891 60.712C146.571 61.192 146.134 61.56 145.579 61.816C145.025 62.0667 144.395 62.192 143.691 62.192Z" fill="#A7AFC4"/>
<path d="M106.68 170.192C105.875 170.192 105.205 170.019 104.672 169.672C104.139 169.32 103.731 168.821 103.448 168.176L104.6 167.584C104.819 168.016 105.077 168.341 105.376 168.56C105.68 168.773 106.12 168.88 106.696 168.88C106.963 168.88 107.221 168.845 107.472 168.776C107.723 168.701 107.949 168.573 108.152 168.392C108.36 168.211 108.523 167.957 108.64 167.632C108.763 167.301 108.824 166.88 108.824 166.368V158.8H110.216V166.32C110.216 167.093 110.107 167.731 109.888 168.232C109.675 168.733 109.389 169.128 109.032 169.416C108.68 169.699 108.299 169.899 107.888 170.016C107.477 170.133 107.075 170.192 106.68 170.192ZM115.43 170.192C114.545 170.192 113.849 169.947 113.342 169.456C112.836 168.965 112.582 168.293 112.582 167.44C112.582 166.891 112.708 166.413 112.958 166.008C113.209 165.603 113.564 165.291 114.022 165.072C114.481 164.848 115.02 164.736 115.638 164.736C116.038 164.736 116.412 164.781 116.758 164.872C117.11 164.957 117.441 165.088 117.75 165.264V164.688C117.75 164.053 117.606 163.589 117.318 163.296C117.03 162.997 116.582 162.848 115.974 162.848C115.585 162.848 115.18 162.92 114.758 163.064C114.342 163.208 113.953 163.408 113.59 163.664L113.19 162.496C113.601 162.224 114.068 162.013 114.59 161.864C115.118 161.709 115.638 161.632 116.15 161.632C117.121 161.632 117.849 161.88 118.334 162.376C118.82 162.867 119.062 163.6 119.062 164.576V170H117.75V169.248C117.43 169.552 117.07 169.787 116.67 169.952C116.27 170.112 115.857 170.192 115.43 170.192ZM115.638 168.976C116.017 168.976 116.39 168.883 116.758 168.696C117.132 168.509 117.462 168.245 117.75 167.904V166.496C117.478 166.325 117.169 166.192 116.822 166.096C116.476 166 116.145 165.952 115.83 165.952C115.233 165.952 114.761 166.088 114.414 166.36C114.068 166.627 113.894 166.992 113.894 167.456C113.894 167.925 114.049 168.296 114.358 168.568C114.668 168.84 115.094 168.976 115.638 168.976ZM123.637 170L120.645 161.824H122.053L123.989 167.28C124.037 167.413 124.082 167.544 124.125 167.672C124.168 167.8 124.208 167.936 124.245 168.08C124.288 167.936 124.328 167.8 124.365 167.672C124.408 167.544 124.453 167.413 124.501 167.28L126.405 161.824H127.797L124.805 170H123.637ZM131.696 170.192C130.811 170.192 130.115 169.947 129.608 169.456C129.101 168.965 128.848 168.293 128.848 167.44C128.848 166.891 128.973 166.413 129.224 166.008C129.475 165.603 129.829 165.291 130.288 165.072C130.747 164.848 131.285 164.736 131.904 164.736C132.304 164.736 132.677 164.781 133.024 164.872C133.376 164.957 133.707 165.088 134.016 165.264V164.688C134.016 164.053 133.872 163.589 133.584 163.296C133.296 162.997 132.848 162.848 132.24 162.848C131.851 162.848 131.445 162.92 131.024 163.064C130.608 163.208 130.219 163.408 129.856 163.664L129.456 162.496C129.867 162.224 130.333 162.013 130.856 161.864C131.384 161.709 131.904 161.632 132.416 161.632C133.387 161.632 134.115 161.88 134.6 162.376C135.085 162.867 135.328 163.6 135.328 164.576V170H134.016V169.248C133.696 169.552 133.336 169.787 132.936 169.952C132.536 170.112 132.123 170.192 131.696 170.192ZM131.904 168.976C132.283 168.976 132.656 168.883 133.024 168.696C133.397 168.509 133.728 168.245 134.016 167.904V166.496C133.744 166.325 133.435 166.192 133.088 166.096C132.741 166 132.411 165.952 132.096 165.952C131.499 165.952 131.027 166.088 130.68 166.36C130.333 166.627 130.16 166.992 130.16 167.456C130.16 167.925 130.315 168.296 130.624 168.568C130.933 168.84 131.36 168.976 131.904 168.976ZM141.254 170.192C140.603 170.192 140.014 170.085 139.486 169.872C138.958 169.653 138.51 169.357 138.142 168.984C137.779 168.605 137.515 168.176 137.35 167.696L138.662 167.216C138.886 167.712 139.225 168.115 139.678 168.424C140.137 168.728 140.673 168.88 141.286 168.88C141.958 168.88 142.494 168.72 142.894 168.4C143.294 168.075 143.494 167.605 143.494 166.992C143.494 166.56 143.374 166.197 143.134 165.904C142.894 165.611 142.582 165.365 142.198 165.168C141.814 164.965 141.403 164.784 140.966 164.624C140.577 164.48 140.187 164.32 139.798 164.144C139.409 163.968 139.054 163.76 138.734 163.52C138.419 163.275 138.166 162.979 137.974 162.632C137.782 162.28 137.686 161.861 137.686 161.376C137.686 160.875 137.822 160.416 138.094 160C138.366 159.579 138.758 159.243 139.27 158.992C139.782 158.736 140.401 158.608 141.126 158.608C141.718 158.608 142.238 158.696 142.686 158.872C143.139 159.043 143.51 159.28 143.798 159.584C144.091 159.883 144.294 160.224 144.406 160.608L143.126 161.04C142.993 160.725 142.747 160.459 142.39 160.24C142.038 160.016 141.585 159.904 141.03 159.904C140.438 159.904 139.971 160.035 139.63 160.296C139.294 160.557 139.126 160.917 139.126 161.376C139.126 161.723 139.238 162.013 139.462 162.248C139.691 162.477 139.99 162.677 140.358 162.848C140.726 163.019 141.121 163.184 141.542 163.344C141.937 163.493 142.331 163.664 142.726 163.856C143.126 164.043 143.491 164.272 143.822 164.544C144.158 164.816 144.427 165.149 144.63 165.544C144.833 165.933 144.934 166.405 144.934 166.96C144.934 167.648 144.774 168.232 144.454 168.712C144.134 169.192 143.697 169.56 143.142 169.816C142.587 170.067 141.958 170.192 141.254 170.192ZM149.959 170.192C149.255 170.192 148.649 170.021 148.143 169.68C147.636 169.333 147.247 168.843 146.975 168.208C146.703 167.568 146.567 166.805 146.567 165.92C146.567 165.029 146.705 164.264 146.983 163.624C147.26 162.984 147.655 162.493 148.167 162.152C148.684 161.805 149.303 161.632 150.023 161.632C150.727 161.632 151.324 161.795 151.815 162.12C152.305 162.445 152.663 162.917 152.887 163.536L151.575 164.016C151.441 163.664 151.241 163.395 150.975 163.208C150.713 163.021 150.401 162.928 150.039 162.928C149.377 162.928 148.871 163.184 148.519 163.696C148.167 164.208 147.991 164.949 147.991 165.92C147.991 166.869 148.164 167.6 148.511 168.112C148.857 168.624 149.351 168.88 149.991 168.88C150.401 168.88 150.751 168.773 151.039 168.56C151.332 168.347 151.537 168.048 151.655 167.664L152.951 168.096C152.753 168.768 152.393 169.285 151.871 169.648C151.348 170.011 150.711 170.192 149.959 170.192ZM155.078 170V161.824H156.47V162.896C156.657 162.48 156.913 162.165 157.238 161.952C157.569 161.739 157.958 161.632 158.406 161.632C158.902 161.632 159.323 161.771 159.67 162.048L159.462 163.36C159.286 163.237 159.102 163.149 158.91 163.096C158.723 163.037 158.518 163.008 158.294 163.008C157.926 163.008 157.606 163.107 157.334 163.304C157.062 163.501 156.849 163.779 156.694 164.136C156.545 164.493 156.47 164.912 156.47 165.392V170H155.078ZM161.235 170V161.824H162.627V170H161.235ZM161.923 160.336C161.683 160.336 161.477 160.253 161.307 160.088C161.141 159.917 161.059 159.712 161.059 159.472C161.059 159.221 161.141 159.011 161.307 158.84C161.477 158.664 161.683 158.576 161.923 158.576C162.173 158.576 162.381 158.664 162.547 158.84C162.717 159.011 162.803 159.221 162.803 159.472C162.803 159.712 162.717 159.917 162.547 160.088C162.381 160.253 162.173 160.336 161.923 160.336ZM165.281 173.248V161.824H166.673V162.512C167.26 161.925 167.958 161.632 168.769 161.632C169.462 161.632 170.06 161.805 170.561 162.152C171.068 162.499 171.457 162.992 171.729 163.632C172.006 164.272 172.145 165.029 172.145 165.904C172.145 166.779 172.006 167.539 171.729 168.184C171.452 168.824 171.06 169.32 170.553 169.672C170.052 170.019 169.457 170.192 168.769 170.192C168.337 170.192 167.948 170.115 167.601 169.96C167.254 169.8 166.945 169.557 166.673 169.232V172.592L165.281 173.248ZM168.593 168.896C169.281 168.896 169.806 168.637 170.169 168.12C170.537 167.603 170.721 166.864 170.721 165.904C170.721 164.981 170.529 164.253 170.145 163.72C169.761 163.181 169.244 162.912 168.593 162.912C168.177 162.912 167.804 163.008 167.473 163.2C167.142 163.392 166.876 163.664 166.673 164.016V167.792C166.956 168.16 167.257 168.437 167.577 168.624C167.897 168.805 168.236 168.896 168.593 168.896ZM176.444 170.192C175.884 170.192 175.454 170.024 175.156 169.688C174.862 169.352 174.716 168.869 174.716 168.24V163.04H173.388V161.824H174.716V159.12L176.108 158.448V161.824H178.124V163.04H176.108V167.776C176.108 168.165 176.174 168.451 176.308 168.632C176.446 168.808 176.662 168.896 176.956 168.896C177.329 168.896 177.734 168.752 178.172 168.464L178.012 169.824C177.772 169.952 177.521 170.045 177.26 170.104C177.004 170.163 176.732 170.192 176.444 170.192Z" fill="#A7AFC4"/>
<path d="M123.568 266V254.8H127.984C128.88 254.8 129.584 254.955 130.096 255.264C130.613 255.573 130.979 255.973 131.192 256.464C131.411 256.949 131.52 257.456 131.52 257.984C131.52 258.427 131.432 258.864 131.256 259.296C131.085 259.723 130.808 260.099 130.424 260.424C130.04 260.749 129.536 260.976 128.912 261.104L131.312 266H129.744L127.44 261.2H124.96V266H123.568ZM124.96 259.904H128.016C128.539 259.904 128.952 259.811 129.256 259.624C129.565 259.437 129.784 259.2 129.912 258.912C130.045 258.624 130.112 258.325 130.112 258.016C130.112 257.739 130.051 257.453 129.928 257.16C129.811 256.861 129.6 256.611 129.296 256.408C128.992 256.2 128.565 256.096 128.016 256.096H124.96V259.904ZM136.714 266.192C135.968 266.192 135.322 266.008 134.778 265.64C134.234 265.272 133.816 264.765 133.522 264.12C133.229 263.475 133.082 262.736 133.082 261.904C133.082 261.003 133.234 260.235 133.538 259.6C133.842 258.96 134.266 258.472 134.81 258.136C135.354 257.8 135.989 257.632 136.714 257.632C137.328 257.632 137.89 257.771 138.402 258.048C138.914 258.32 139.322 258.744 139.626 259.32C139.936 259.891 140.09 260.624 140.09 261.52C140.09 261.648 140.085 261.797 140.074 261.968C140.069 262.133 140.058 262.304 140.042 262.48H134.506C134.56 262.976 134.682 263.411 134.874 263.784C135.066 264.157 135.32 264.451 135.634 264.664C135.949 264.872 136.32 264.976 136.746 264.976C137.093 264.976 137.413 264.915 137.706 264.792C138.005 264.669 138.282 264.48 138.538 264.224L139.354 265.136C139.05 265.44 138.672 265.693 138.218 265.896C137.77 266.093 137.269 266.192 136.714 266.192ZM134.49 261.264H138.682C138.682 260.8 138.605 260.387 138.45 260.024C138.301 259.656 138.08 259.368 137.786 259.16C137.493 258.952 137.136 258.848 136.714 258.848C136.122 258.848 135.613 259.04 135.186 259.424C134.765 259.808 134.533 260.421 134.49 261.264ZM144.462 266.192C143.576 266.192 142.88 265.947 142.374 265.456C141.867 264.965 141.614 264.293 141.614 263.44C141.614 262.891 141.739 262.413 141.99 262.008C142.24 261.603 142.595 261.291 143.054 261.072C143.512 260.848 144.051 260.736 144.67 260.736C145.07 260.736 145.443 260.781 145.79 260.872C146.142 260.957 146.472 261.088 146.782 261.264V260.688C146.782 260.053 146.638 259.589 146.35 259.296C146.062 258.997 145.614 258.848 145.006 258.848C144.616 258.848 144.211 258.92 143.79 259.064C143.374 259.208 142.984 259.408 142.622 259.664L142.222 258.496C142.632 258.224 143.099 258.013 143.622 257.864C144.15 257.709 144.67 257.632 145.182 257.632C146.152 257.632 146.88 257.88 147.366 258.376C147.851 258.867 148.094 259.6 148.094 260.576V266H146.782V265.248C146.462 265.552 146.102 265.787 145.702 265.952C145.302 266.112 144.888 266.192 144.462 266.192ZM144.67 264.976C145.048 264.976 145.422 264.883 145.79 264.696C146.163 264.509 146.494 264.245 146.782 263.904V262.496C146.51 262.325 146.2 262.192 145.854 262.096C145.507 262 145.176 261.952 144.862 261.952C144.264 261.952 143.792 262.088 143.446 262.36C143.099 262.627 142.926 262.992 142.926 263.456C142.926 263.925 143.08 264.296 143.39 264.568C143.699 264.84 144.126 264.976 144.67 264.976ZM153.662 266.192C152.958 266.192 152.353 266.021 151.846 265.68C151.339 265.333 150.95 264.843 150.678 264.208C150.406 263.568 150.27 262.805 150.27 261.92C150.27 261.029 150.409 260.264 150.686 259.624C150.963 258.984 151.358 258.493 151.87 258.152C152.387 257.805 153.006 257.632 153.726 257.632C154.43 257.632 155.027 257.795 155.518 258.12C156.009 258.445 156.366 258.917 156.59 259.536L155.278 260.016C155.145 259.664 154.945 259.395 154.678 259.208C154.417 259.021 154.105 258.928 153.742 258.928C153.081 258.928 152.574 259.184 152.222 259.696C151.87 260.208 151.694 260.949 151.694 261.92C151.694 262.869 151.867 263.6 152.214 264.112C152.561 264.624 153.054 264.88 153.694 264.88C154.105 264.88 154.454 264.773 154.742 264.56C155.035 264.347 155.241 264.048 155.358 263.664L156.654 264.096C156.457 264.768 156.097 265.285 155.574 265.648C155.051 266.011 154.414 266.192 153.662 266.192ZM160.866 266.192C160.306 266.192 159.876 266.024 159.578 265.688C159.284 265.352 159.138 264.869 159.138 264.24V259.04H157.81V257.824H159.138V255.12L160.53 254.448V257.824H162.546V259.04H160.53V263.776C160.53 264.165 160.596 264.451 160.73 264.632C160.868 264.808 161.084 264.896 161.378 264.896C161.751 264.896 162.156 264.752 162.594 264.464L162.434 265.824C162.194 265.952 161.943 266.045 161.682 266.104C161.426 266.163 161.154 266.192 160.866 266.192Z" fill="#A7AFC4"/>
<path d="M128.84 367.192C127.992 367.192 127.267 367.032 126.664 366.712C126.061 366.387 125.571 365.949 125.192 365.4C124.813 364.845 124.533 364.224 124.352 363.536C124.176 362.843 124.088 362.131 124.088 361.4C124.088 360.675 124.181 359.968 124.368 359.28C124.56 358.592 124.848 357.973 125.232 357.424C125.621 356.869 126.115 356.429 126.712 356.104C127.309 355.773 128.019 355.608 128.84 355.608C129.533 355.608 130.109 355.701 130.568 355.888C131.032 356.075 131.413 356.32 131.712 356.624C132.011 356.923 132.264 357.24 132.472 357.576L131.224 358.296C130.968 357.928 130.661 357.608 130.304 357.336C129.947 357.059 129.459 356.92 128.84 356.92C128.216 356.92 127.691 357.056 127.264 357.328C126.843 357.595 126.504 357.949 126.248 358.392C125.992 358.835 125.808 359.32 125.696 359.848C125.584 360.371 125.528 360.888 125.528 361.4C125.528 361.976 125.592 362.531 125.72 363.064C125.848 363.597 126.045 364.075 126.312 364.496C126.579 364.917 126.92 365.251 127.336 365.496C127.757 365.741 128.259 365.864 128.84 365.864C129.347 365.864 129.787 365.755 130.16 365.536C130.539 365.317 130.832 365.016 131.04 364.632C131.248 364.243 131.352 363.795 131.352 363.288V362.84H129.32V361.56H132.808V362.904C132.808 363.832 132.632 364.616 132.28 365.256C131.933 365.891 131.459 366.373 130.856 366.704C130.259 367.029 129.587 367.192 128.84 367.192ZM135.36 367V358.824H136.752V367H135.36ZM136.048 357.336C135.808 357.336 135.602 357.253 135.432 357.088C135.266 356.917 135.184 356.712 135.184 356.472C135.184 356.221 135.266 356.011 135.432 355.84C135.602 355.664 135.808 355.576 136.048 355.576C136.298 355.576 136.506 355.664 136.672 355.84C136.842 356.011 136.928 356.221 136.928 356.472C136.928 356.712 136.842 356.917 136.672 357.088C136.506 357.253 136.298 357.336 136.048 357.336ZM141.678 367.192C141.118 367.192 140.689 367.024 140.39 366.688C140.097 366.352 139.95 365.869 139.95 365.24V360.04H138.622V358.824H139.95V356.12L141.342 355.448V358.824H143.358V360.04H141.342V364.776C141.342 365.165 141.409 365.451 141.542 365.632C141.681 365.808 141.897 365.896 142.19 365.896C142.563 365.896 142.969 365.752 143.406 365.464L143.246 366.824C143.006 366.952 142.755 367.045 142.494 367.104C142.238 367.163 141.966 367.192 141.678 367.192ZM145.693 367V355.8H147.085V360.536H152.365V355.8H153.757V367H152.365V361.848H147.085V367H145.693ZM159.552 367.192C158.544 367.192 157.795 366.893 157.304 366.296C156.819 365.699 156.576 364.781 156.576 363.544V358.824H157.968V363.752C157.968 364.445 158.12 364.976 158.424 365.344C158.728 365.712 159.163 365.896 159.728 365.896C160.352 365.896 160.821 365.717 161.136 365.36C161.456 365.003 161.616 364.477 161.616 363.784V358.824H163.008V367H161.616V366.216C161.355 366.552 161.059 366.8 160.728 366.96C160.403 367.115 160.011 367.192 159.552 367.192ZM169.16 367.192C168.754 367.192 168.386 367.12 168.056 366.976C167.725 366.832 167.394 366.605 167.064 366.296V367H165.672V356.104L167.064 355.448V359.528C167.32 359.245 167.626 359.027 167.984 358.872C168.346 358.712 168.722 358.632 169.112 358.632C169.805 358.632 170.405 358.805 170.912 359.152C171.418 359.499 171.81 359.992 172.088 360.632C172.365 361.272 172.504 362.029 172.504 362.904C172.504 364.264 172.21 365.32 171.624 366.072C171.037 366.819 170.216 367.192 169.16 367.192ZM168.968 365.896C169.65 365.896 170.173 365.637 170.536 365.12C170.898 364.603 171.08 363.864 171.08 362.904C171.08 361.928 170.898 361.187 170.536 360.68C170.178 360.168 169.656 359.912 168.968 359.912C168.6 359.912 168.237 360.016 167.88 360.224C167.522 360.427 167.25 360.685 167.064 361V364.792C167.266 365.128 167.536 365.397 167.872 365.6C168.213 365.797 168.578 365.896 168.968 365.896Z" fill="#A7AFC4"/>
<path d="M3.968 367V357.128H0.848V355.8H8.48V357.128H5.36V367H3.968ZM11.9773 367.192C11.0919 367.192 10.3959 366.947 9.88925 366.456C9.38258 365.965 9.12925 365.293 9.12925 364.44C9.12925 363.891 9.25458 363.413 9.50525 363.008C9.75592 362.603 10.1106 362.291 10.5693 362.072C11.0279 361.848 11.5666 361.736 12.1853 361.736C12.5853 361.736 12.9586 361.781 13.3053 361.872C13.6573 361.957 13.9879 362.088 14.2973 362.264V361.688C14.2973 361.053 14.1533 360.589 13.8653 360.296C13.5773 359.997 13.1293 359.848 12.5213 359.848C12.1319 359.848 11.7266 359.92 11.3053 360.064C10.8893 360.208 10.4999 360.408 10.1373 360.664L9.73725 359.496C10.1479 359.224 10.6146 359.013 11.1373 358.864C11.6653 358.709 12.1853 358.632 12.6973 358.632C13.6679 358.632 14.3959 358.88 14.8813 359.376C15.3666 359.867 15.6093 360.6 15.6093 361.576V367H14.2973V366.248C13.9773 366.552 13.6173 366.787 13.2173 366.952C12.8173 367.112 12.4039 367.192 11.9773 367.192ZM12.1853 365.976C12.5639 365.976 12.9373 365.883 13.3053 365.696C13.6786 365.509 14.0093 365.245 14.2973 364.904V363.496C14.0253 363.325 13.7159 363.192 13.3693 363.096C13.0226 363 12.6919 362.952 12.3773 362.952C11.7799 362.952 11.3079 363.088 10.9613 363.36C10.6146 363.627 10.4413 363.992 10.4413 364.456C10.4413 364.925 10.5959 365.296 10.9053 365.568C11.2146 365.84 11.6413 365.976 12.1853 365.976ZM18.0471 367V358.824H19.4391V367H18.0471ZM18.7351 357.336C18.4951 357.336 18.2898 357.253 18.1191 357.088C17.9538 356.917 17.8711 356.712 17.8711 356.472C17.8711 356.221 17.9538 356.011 18.1191 355.84C18.2898 355.664 18.4951 355.576 18.7351 355.576C18.9858 355.576 19.1938 355.664 19.3591 355.84C19.5298 356.011 19.6151 356.221 19.6151 356.472C19.6151 356.712 19.5298 356.917 19.3591 357.088C19.1938 357.253 18.9858 357.336 18.7351 357.336ZM22.1736 367V356.104L23.5656 355.448V367H22.1736ZM27.6491 367L25.5531 358.824H26.9291L28.1771 364.312C28.2145 364.461 28.2465 364.611 28.2731 364.76C28.3051 364.904 28.3318 365.043 28.3531 365.176C28.3798 365.037 28.4118 364.896 28.4491 364.752C28.4865 364.603 28.5238 364.456 28.5611 364.312L30.0971 358.824H31.2491L32.7851 364.312C32.8278 364.472 32.8678 364.627 32.9051 364.776C32.9425 364.92 32.9771 365.064 33.0091 365.208C33.0358 365.069 33.0625 364.925 33.0891 364.776C33.1158 364.627 33.1478 364.472 33.1851 364.312L34.4171 358.824H35.7931L33.6971 367H32.4491L30.9611 362.152C30.9131 361.992 30.8598 361.813 30.8011 361.616C30.7478 361.419 30.6998 361.24 30.6571 361.08C30.6198 361.24 30.5745 361.419 30.5211 361.616C30.4678 361.813 30.4171 361.992 30.3691 362.152L28.8971 367H27.6491ZM37.7346 367V358.824H39.1266V367H37.7346ZM38.4226 357.336C38.1826 357.336 37.9773 357.253 37.8066 357.088C37.6413 356.917 37.5586 356.712 37.5586 356.472C37.5586 356.221 37.6413 356.011 37.8066 355.84C37.9773 355.664 38.1826 355.576 38.4226 355.576C38.6733 355.576 38.8813 355.664 39.0466 355.84C39.2173 356.011 39.3026 356.221 39.3026 356.472C39.3026 356.712 39.2173 356.917 39.0466 357.088C38.8813 357.253 38.6733 357.336 38.4226 357.336ZM41.8611 367V356.104L43.2531 355.448V367H41.8611ZM48.8646 367.192C47.8246 367.192 47.0006 366.808 46.3926 366.04C45.79 365.267 45.4886 364.221 45.4886 362.904C45.4886 362.029 45.6246 361.272 45.8966 360.632C46.174 359.992 46.5633 359.499 47.0646 359.152C47.5713 358.805 48.1713 358.632 48.8646 358.632C49.6646 358.632 50.3526 358.888 50.9286 359.4V356.104L52.3206 355.448V367H50.9286V366.36C50.39 366.915 49.702 367.192 48.8646 367.192ZM49.0566 365.896C49.4406 365.896 49.7953 365.8 50.1206 365.608C50.4513 365.416 50.7206 365.144 50.9286 364.792V360.952C50.7206 360.632 50.4513 360.379 50.1206 360.192C49.79 360.005 49.4353 359.912 49.0566 359.912C48.3686 359.912 47.8353 360.171 47.4566 360.688C47.0833 361.205 46.8966 361.944 46.8966 362.904C46.8966 363.496 46.9873 364.016 47.1686 364.464C47.35 364.912 47.6033 365.264 47.9286 365.52C48.254 365.771 48.63 365.896 49.0566 365.896ZM61.6306 367.192C60.9266 367.192 60.3213 367.021 59.8146 366.68C59.308 366.333 58.9186 365.843 58.6466 365.208C58.3746 364.568 58.2386 363.805 58.2386 362.92C58.2386 362.029 58.3773 361.264 58.6546 360.624C58.932 359.984 59.3266 359.493 59.8386 359.152C60.356 358.805 60.9746 358.632 61.6946 358.632C62.3986 358.632 62.996 358.795 63.4866 359.12C63.9773 359.445 64.3346 359.917 64.5586 360.536L63.2466 361.016C63.1133 360.664 62.9133 360.395 62.6466 360.208C62.3853 360.021 62.0733 359.928 61.7106 359.928C61.0493 359.928 60.5426 360.184 60.1906 360.696C59.8386 361.208 59.6626 361.949 59.6626 362.92C59.6626 363.869 59.836 364.6 60.1826 365.112C60.5293 365.624 61.0226 365.88 61.6626 365.88C62.0733 365.88 62.4226 365.773 62.7106 365.56C63.004 365.347 63.2093 365.048 63.3266 364.664L64.6226 365.096C64.4253 365.768 64.0653 366.285 63.5426 366.648C63.02 367.011 62.3826 367.192 61.6306 367.192ZM68.9784 367.192C68.4024 367.192 67.8477 367.069 67.3144 366.824C66.7864 366.573 66.3544 366.237 66.0184 365.816L67.0104 364.968C67.2984 365.277 67.6184 365.517 67.9704 365.688C68.3224 365.859 68.669 365.944 69.0104 365.944C69.4904 365.944 69.8637 365.853 70.1304 365.672C70.397 365.485 70.5304 365.229 70.5304 364.904C70.5304 364.691 70.469 364.499 70.3464 364.328C70.229 364.157 70.0317 363.995 69.7544 363.84C69.4824 363.685 69.117 363.523 68.6584 363.352C67.757 363.016 67.109 362.651 66.7144 362.256C66.325 361.861 66.1304 361.373 66.1304 360.792C66.1304 360.152 66.3837 359.632 66.8904 359.232C67.4024 358.832 68.0664 358.632 68.8824 358.632C69.4424 358.632 69.957 358.739 70.4264 358.952C70.8957 359.16 71.2984 359.464 71.6344 359.864L70.6744 360.664C70.1837 360.141 69.581 359.88 68.8664 359.88C68.445 359.88 68.1117 359.963 67.8664 360.128C67.6264 360.288 67.5064 360.509 67.5064 360.792C67.5064 361.064 67.6424 361.304 67.9144 361.512C68.1917 361.715 68.6904 361.949 69.4104 362.216C69.997 362.429 70.4717 362.661 70.8344 362.912C71.2024 363.163 71.469 363.448 71.6344 363.768C71.805 364.088 71.8904 364.456 71.8904 364.872C71.8904 365.592 71.6317 366.16 71.1144 366.576C70.597 366.987 69.885 367.192 68.9784 367.192ZM76.4784 367.192C75.9024 367.192 75.3477 367.069 74.8144 366.824C74.2864 366.573 73.8544 366.237 73.5184 365.816L74.5104 364.968C74.7984 365.277 75.1184 365.517 75.4704 365.688C75.8224 365.859 76.169 365.944 76.5104 365.944C76.9904 365.944 77.3637 365.853 77.6304 365.672C77.897 365.485 78.0304 365.229 78.0304 364.904C78.0304 364.691 77.969 364.499 77.8464 364.328C77.729 364.157 77.5317 363.995 77.2544 363.84C76.9824 363.685 76.617 363.523 76.1584 363.352C75.257 363.016 74.609 362.651 74.2144 362.256C73.825 361.861 73.6304 361.373 73.6304 360.792C73.6304 360.152 73.8837 359.632 74.3904 359.232C74.9024 358.832 75.5664 358.632 76.3824 358.632C76.9424 358.632 77.457 358.739 77.9264 358.952C78.3957 359.16 78.7984 359.464 79.1344 359.864L78.1744 360.664C77.6837 360.141 77.081 359.88 76.3664 359.88C75.945 359.88 75.6117 359.963 75.3664 360.128C75.1264 360.288 75.0064 360.509 75.0064 360.792C75.0064 361.064 75.1424 361.304 75.4144 361.512C75.6917 361.715 76.1904 361.949 76.9104 362.216C77.497 362.429 77.9717 362.661 78.3344 362.912C78.7024 363.163 78.969 363.448 79.1344 363.768C79.305 364.088 79.3904 364.456 79.3904 364.872C79.3904 365.592 79.1317 366.16 78.6144 366.576C78.097 366.987 77.385 367.192 76.4784 367.192Z" fill="#A7AFC4"/>
<path d="M17.832 264.192C17.1813 264.192 16.592 264.085 16.064 263.872C15.536 263.653 15.088 263.357 14.72 262.984C14.3573 262.605 14.0933 262.176 13.928 261.696L15.24 261.216C15.464 261.712 15.8027 262.115 16.256 262.424C16.7147 262.728 17.2507 262.88 17.864 262.88C18.536 262.88 19.072 262.72 19.472 262.4C19.872 262.075 20.072 261.605 20.072 260.992C20.072 260.56 19.952 260.197 19.712 259.904C19.472 259.611 19.16 259.365 18.776 259.168C18.392 258.965 17.9813 258.784 17.544 258.624C17.1547 258.48 16.7653 258.32 16.376 258.144C15.9867 257.968 15.632 257.76 15.312 257.52C14.9973 257.275 14.744 256.979 14.552 256.632C14.36 256.28 14.264 255.861 14.264 255.376C14.264 254.875 14.4 254.416 14.672 254C14.944 253.579 15.336 253.243 15.848 252.992C16.36 252.736 16.9787 252.608 17.704 252.608C18.296 252.608 18.816 252.696 19.264 252.872C19.7173 253.043 20.088 253.28 20.376 253.584C20.6693 253.883 20.872 254.224 20.984 254.608L19.704 255.04C19.5707 254.725 19.3253 254.459 18.968 254.24C18.616 254.016 18.1627 253.904 17.608 253.904C17.016 253.904 16.5493 254.035 16.208 254.296C15.872 254.557 15.704 254.917 15.704 255.376C15.704 255.723 15.816 256.013 16.04 256.248C16.2693 256.477 16.568 256.677 16.936 256.848C17.304 257.019 17.6987 257.184 18.12 257.344C18.5147 257.493 18.9093 257.664 19.304 257.856C19.704 258.043 20.0693 258.272 20.4 258.544C20.736 258.816 21.0053 259.149 21.208 259.544C21.4107 259.933 21.512 260.405 21.512 260.96C21.512 261.648 21.352 262.232 21.032 262.712C20.712 263.192 20.2747 263.56 19.72 263.816C19.1653 264.067 18.536 264.192 17.832 264.192ZM26.2741 264.192C25.3888 264.192 24.6928 263.947 24.1861 263.456C23.6795 262.965 23.4261 262.293 23.4261 261.44C23.4261 260.891 23.5515 260.413 23.8021 260.008C24.0528 259.603 24.4075 259.291 24.8661 259.072C25.3248 258.848 25.8635 258.736 26.4821 258.736C26.8821 258.736 27.2555 258.781 27.6021 258.872C27.9541 258.957 28.2848 259.088 28.5941 259.264V258.688C28.5941 258.053 28.4501 257.589 28.1621 257.296C27.8741 256.997 27.4261 256.848 26.8181 256.848C26.4288 256.848 26.0235 256.92 25.6021 257.064C25.1861 257.208 24.7968 257.408 24.4341 257.664L24.0341 256.496C24.4448 256.224 24.9115 256.013 25.4341 255.864C25.9621 255.709 26.4821 255.632 26.9941 255.632C27.9648 255.632 28.6928 255.88 29.1781 256.376C29.6635 256.867 29.9061 257.6 29.9061 258.576V264H28.5941V263.248C28.2741 263.552 27.9141 263.787 27.5141 263.952C27.1141 264.112 26.7008 264.192 26.2741 264.192ZM26.4821 262.976C26.8608 262.976 27.2341 262.883 27.6021 262.696C27.9755 262.509 28.3061 262.245 28.5941 261.904V260.496C28.3221 260.325 28.0128 260.192 27.6661 260.096C27.3195 260 26.9888 259.952 26.6741 259.952C26.0768 259.952 25.6048 260.088 25.2581 260.36C24.9115 260.627 24.7381 260.992 24.7381 261.456C24.7381 261.925 24.8928 262.296 25.2021 262.568C25.5115 262.84 25.9381 262.976 26.4821 262.976ZM34.744 264.192C34.168 264.192 33.6133 264.069 33.08 263.824C32.552 263.573 32.12 263.237 31.784 262.816L32.776 261.968C33.064 262.277 33.384 262.517 33.736 262.688C34.088 262.859 34.4347 262.944 34.776 262.944C35.256 262.944 35.6293 262.853 35.896 262.672C36.1627 262.485 36.296 262.229 36.296 261.904C36.296 261.691 36.2347 261.499 36.112 261.328C35.9947 261.157 35.7973 260.995 35.52 260.84C35.248 260.685 34.8827 260.523 34.424 260.352C33.5227 260.016 32.8747 259.651 32.48 259.256C32.0907 258.861 31.896 258.373 31.896 257.792C31.896 257.152 32.1493 256.632 32.656 256.232C33.168 255.832 33.832 255.632 34.648 255.632C35.208 255.632 35.7227 255.739 36.192 255.952C36.6613 256.16 37.064 256.464 37.4 256.864L36.44 257.664C35.9493 257.141 35.3467 256.88 34.632 256.88C34.2107 256.88 33.8773 256.963 33.632 257.128C33.392 257.288 33.272 257.509 33.272 257.792C33.272 258.064 33.408 258.304 33.68 258.512C33.9573 258.715 34.456 258.949 35.176 259.216C35.7627 259.429 36.2373 259.661 36.6 259.912C36.968 260.163 37.2347 260.448 37.4 260.768C37.5707 261.088 37.656 261.456 37.656 261.872C37.656 262.592 37.3973 263.16 36.88 263.576C36.3627 263.987 35.6507 264.192 34.744 264.192ZM42.244 264.192C41.668 264.192 41.1133 264.069 40.58 263.824C40.052 263.573 39.62 263.237 39.284 262.816L40.276 261.968C40.564 262.277 40.884 262.517 41.236 262.688C41.588 262.859 41.9347 262.944 42.276 262.944C42.756 262.944 43.1293 262.853 43.396 262.672C43.6627 262.485 43.796 262.229 43.796 261.904C43.796 261.691 43.7347 261.499 43.612 261.328C43.4947 261.157 43.2973 260.995 43.02 260.84C42.748 260.685 42.3827 260.523 41.924 260.352C41.0227 260.016 40.3747 259.651 39.98 259.256C39.5907 258.861 39.396 258.373 39.396 257.792C39.396 257.152 39.6493 256.632 40.156 256.232C40.668 255.832 41.332 255.632 42.148 255.632C42.708 255.632 43.2227 255.739 43.692 255.952C44.1613 256.16 44.564 256.464 44.9 256.864L43.94 257.664C43.4493 257.141 42.8467 256.88 42.132 256.88C41.7107 256.88 41.3773 256.963 41.132 257.128C40.892 257.288 40.772 257.509 40.772 257.792C40.772 258.064 40.908 258.304 41.18 258.512C41.4573 258.715 41.956 258.949 42.676 259.216C43.2627 259.429 43.7373 259.661 44.1 259.912C44.468 260.163 44.7347 260.448 44.9 260.768C45.0707 261.088 45.156 261.456 45.156 261.872C45.156 262.592 44.8973 263.16 44.38 263.576C43.8627 263.987 43.1507 264.192 42.244 264.192Z" fill="#A7AFC4"/>
<path d="M2.568 169V157.8H6.536C7.42133 157.8 8.11733 157.944 8.624 158.232C9.13067 158.515 9.49067 158.883 9.704 159.336C9.91733 159.789 10.024 160.264 10.024 160.76C10.024 161.272 9.88 161.733 9.592 162.144C9.304 162.555 8.89867 162.872 8.376 163.096C8.808 163.229 9.176 163.427 9.48 163.688C9.78933 163.944 10.024 164.251 10.184 164.608C10.344 164.965 10.424 165.357 10.424 165.784C10.424 166.163 10.3627 166.541 10.24 166.92C10.1173 167.299 9.91467 167.645 9.632 167.96C9.35467 168.275 8.98133 168.528 8.512 168.72C8.048 168.907 7.47467 169 6.792 169H2.568ZM3.96 167.72H6.952C7.50133 167.72 7.928 167.629 8.232 167.448C8.536 167.267 8.74667 167.035 8.864 166.752C8.98667 166.469 9.048 166.179 9.048 165.88C9.048 165.523 8.976 165.187 8.832 164.872C8.688 164.557 8.42667 164.304 8.048 164.112C7.67467 163.915 7.13867 163.816 6.44 163.816H3.96V167.72ZM3.96 162.552H6.264C7.05867 162.552 7.65333 162.389 8.048 162.064C8.448 161.739 8.648 161.309 8.648 160.776C8.648 160.504 8.59467 160.237 8.488 159.976C8.38667 159.709 8.18933 159.491 7.896 159.32C7.60267 159.149 7.176 159.064 6.616 159.064H3.96V162.552ZM16.1046 169.192C14.9846 169.192 14.102 168.811 13.4566 168.048C12.8113 167.28 12.4886 166.237 12.4886 164.92C12.4886 164.04 12.6353 163.28 12.9286 162.64C13.222 162 13.638 161.507 14.1766 161.16C14.7206 160.808 15.3633 160.632 16.1046 160.632C16.8513 160.632 17.494 160.805 18.0326 161.152C18.5766 161.493 18.9926 161.984 19.2806 162.624C19.574 163.264 19.7206 164.024 19.7206 164.904C19.7206 165.784 19.574 166.547 19.2806 167.192C18.9873 167.832 18.5686 168.325 18.0246 168.672C17.486 169.019 16.846 169.192 16.1046 169.192ZM16.1046 167.896C16.7926 167.896 17.3313 167.632 17.7206 167.104C18.1153 166.571 18.3126 165.837 18.3126 164.904C18.3126 163.965 18.1153 163.232 17.7206 162.704C17.3313 162.176 16.7926 161.912 16.1046 161.912C15.4113 161.912 14.87 162.176 14.4806 162.704C14.0913 163.227 13.8966 163.965 13.8966 164.92C13.8966 165.853 14.0913 166.584 14.4806 167.112C14.87 167.635 15.4113 167.896 16.1046 167.896ZM25.2765 169.192C24.1565 169.192 23.2738 168.811 22.6285 168.048C21.9832 167.28 21.6605 166.237 21.6605 164.92C21.6605 164.04 21.8072 163.28 22.1005 162.64C22.3938 162 22.8098 161.507 23.3485 161.16C23.8925 160.808 24.5352 160.632 25.2765 160.632C26.0232 160.632 26.6658 160.805 27.2045 161.152C27.7485 161.493 28.1645 161.984 28.4525 162.624C28.7458 163.264 28.8925 164.024 28.8925 164.904C28.8925 165.784 28.7458 166.547 28.4525 167.192C28.1592 167.832 27.7405 168.325 27.1965 168.672C26.6578 169.019 26.0178 169.192 25.2765 169.192ZM25.2765 167.896C25.9645 167.896 26.5032 167.632 26.8925 167.104C27.2872 166.571 27.4845 165.837 27.4845 164.904C27.4845 163.965 27.2872 163.232 26.8925 162.704C26.5032 162.176 25.9645 161.912 25.2765 161.912C24.5832 161.912 24.0418 162.176 23.6525 162.704C23.2632 163.227 23.0685 163.965 23.0685 164.92C23.0685 165.853 23.2632 166.584 23.6525 167.112C24.0418 167.635 24.5832 167.896 25.2765 167.896ZM33.1781 169.192C32.6181 169.192 32.1888 169.024 31.8901 168.688C31.5968 168.352 31.4501 167.869 31.4501 167.24V162.04H30.1221V160.824H31.4501V158.12L32.8421 157.448V160.824H34.8581V162.04H32.8421V166.776C32.8421 167.165 32.9088 167.451 33.0421 167.632C33.1808 167.808 33.3968 167.896 33.6901 167.896C34.0635 167.896 34.4688 167.752 34.9061 167.464L34.7461 168.824C34.5061 168.952 34.2555 169.045 33.9941 169.104C33.7381 169.163 33.4661 169.192 33.1781 169.192ZM39.2284 169.192C38.6524 169.192 38.0977 169.069 37.5644 168.824C37.0364 168.573 36.6044 168.237 36.2684 167.816L37.2604 166.968C37.5484 167.277 37.8684 167.517 38.2204 167.688C38.5724 167.859 38.919 167.944 39.2604 167.944C39.7404 167.944 40.1137 167.853 40.3804 167.672C40.647 167.485 40.7804 167.229 40.7804 166.904C40.7804 166.691 40.719 166.499 40.5964 166.328C40.479 166.157 40.2817 165.995 40.0044 165.84C39.7324 165.685 39.367 165.523 38.9084 165.352C38.007 165.016 37.359 164.651 36.9644 164.256C36.575 163.861 36.3804 163.373 36.3804 162.792C36.3804 162.152 36.6337 161.632 37.1404 161.232C37.6524 160.832 38.3164 160.632 39.1324 160.632C39.6924 160.632 40.207 160.739 40.6764 160.952C41.1457 161.16 41.5484 161.464 41.8844 161.864L40.9244 162.664C40.4337 162.141 39.831 161.88 39.1164 161.88C38.695 161.88 38.3617 161.963 38.1164 162.128C37.8764 162.288 37.7564 162.509 37.7564 162.792C37.7564 163.064 37.8924 163.304 38.1644 163.512C38.4417 163.715 38.9404 163.949 39.6604 164.216C40.247 164.429 40.7217 164.661 41.0844 164.912C41.4524 165.163 41.719 165.448 41.8844 165.768C42.055 166.088 42.1404 166.456 42.1404 166.872C42.1404 167.592 41.8817 168.16 41.3644 168.576C40.847 168.987 40.135 169.192 39.2284 169.192ZM46.4281 169.192C45.8681 169.192 45.4388 169.024 45.1401 168.688C44.8468 168.352 44.7001 167.869 44.7001 167.24V162.04H43.3721V160.824H44.7001V158.12L46.0921 157.448V160.824H48.1081V162.04H46.0921V166.776C46.0921 167.165 46.1588 167.451 46.2921 167.632C46.4308 167.808 46.6468 167.896 46.9401 167.896C47.3135 167.896 47.7188 167.752 48.1561 167.464L47.9961 168.824C47.7561 168.952 47.5055 169.045 47.2441 169.104C46.9881 169.163 46.7161 169.192 46.4281 169.192ZM49.5624 169V160.824H50.9544V161.896C51.141 161.48 51.397 161.165 51.7224 160.952C52.053 160.739 52.4424 160.632 52.8904 160.632C53.3864 160.632 53.8077 160.771 54.1544 161.048L53.9464 162.36C53.7704 162.237 53.5864 162.149 53.3944 162.096C53.2077 162.037 53.0024 162.008 52.7784 162.008C52.4104 162.008 52.0904 162.107 51.8184 162.304C51.5464 162.501 51.333 162.779 51.1784 163.136C51.029 163.493 50.9544 163.912 50.9544 164.392V169H49.5624ZM57.8366 169.192C56.9513 169.192 56.2553 168.947 55.7486 168.456C55.242 167.965 54.9886 167.293 54.9886 166.44C54.9886 165.891 55.114 165.413 55.3646 165.008C55.6153 164.603 55.97 164.291 56.4286 164.072C56.8873 163.848 57.426 163.736 58.0446 163.736C58.4446 163.736 58.818 163.781 59.1646 163.872C59.5166 163.957 59.8473 164.088 60.1566 164.264V163.688C60.1566 163.053 60.0126 162.589 59.7246 162.296C59.4366 161.997 58.9886 161.848 58.3806 161.848C57.9913 161.848 57.586 161.92 57.1646 162.064C56.7486 162.208 56.3593 162.408 55.9966 162.664L55.5966 161.496C56.0073 161.224 56.474 161.013 56.9966 160.864C57.5246 160.709 58.0446 160.632 58.5566 160.632C59.5273 160.632 60.2553 160.88 60.7406 161.376C61.226 161.867 61.4686 162.6 61.4686 163.576V169H60.1566V168.248C59.8366 168.552 59.4766 168.787 59.0766 168.952C58.6766 169.112 58.2633 169.192 57.8366 169.192ZM58.0446 167.976C58.4233 167.976 58.7966 167.883 59.1646 167.696C59.538 167.509 59.8686 167.245 60.1566 166.904V165.496C59.8846 165.325 59.5753 165.192 59.2286 165.096C58.882 165 58.5513 164.952 58.2366 164.952C57.6393 164.952 57.1673 165.088 56.8206 165.36C56.474 165.627 56.3006 165.992 56.3006 166.456C56.3006 166.925 56.4553 167.296 56.7646 167.568C57.074 167.84 57.5006 167.976 58.0446 167.976ZM64.0936 172.248V160.824H65.4856V161.512C66.0723 160.925 66.771 160.632 67.5816 160.632C68.275 160.632 68.8723 160.805 69.3736 161.152C69.8803 161.499 70.2696 161.992 70.5416 162.632C70.819 163.272 70.9576 164.029 70.9576 164.904C70.9576 165.779 70.819 166.539 70.5416 167.184C70.2643 167.824 69.8723 168.32 69.3656 168.672C68.8643 169.019 68.2696 169.192 67.5816 169.192C67.1496 169.192 66.7603 169.115 66.4136 168.96C66.067 168.8 65.7576 168.557 65.4856 168.232V171.592L64.0936 172.248ZM67.4056 167.896C68.0936 167.896 68.619 167.637 68.9816 167.12C69.3496 166.603 69.5336 165.864 69.5336 164.904C69.5336 163.981 69.3416 163.253 68.9576 162.72C68.5736 162.181 68.0563 161.912 67.4056 161.912C66.9896 161.912 66.6163 162.008 66.2856 162.2C65.955 162.392 65.6883 162.664 65.4856 163.016V166.792C65.7683 167.16 66.0696 167.437 66.3896 167.624C66.7096 167.805 67.0483 167.896 67.4056 167.896Z" fill="#A7AFC4"/>
</svg>
