<svg width="185" height="176" viewBox="0 0 185 176" fill="none" xmlns="http://www.w3.org/2000/svg">
<path d="M29.7969 13.3638C29.7969 13.3638 27.1892 2.88347 31.0487 1.2622C34.9082 -0.359062 40.4366 6.0681 40.4366 6.0681M29.7969 13.3638C29.7969 13.3638 44.3483 48.3947 52.0673 39.304C55.7322 34.9879 53.2951 27.278 49.7242 20.37M29.7969 13.3638C29.7969 13.3638 21.7129 15.9115 21.0348 20.37C20.3568 24.8285 29.7969 27.5952 29.7969 27.5952M29.7969 13.3638C29.7969 13.3638 60.2035 7.74726 60.9859 20.37C61.7682 32.9927 29.7969 27.5952 29.7969 27.5952M40.4366 6.0681C40.4366 6.0681 45.7565 0.104161 50.5548 1.2622C55.3531 2.42025 49.7242 20.37 49.7242 20.37M40.4366 6.0681C40.4366 6.0681 45.7741 12.7284 49.7242 20.37M40.4366 6.0681C40.4366 6.0681 32.9824 17.7072 29.7969 27.5952M49.7242 20.37C49.7242 20.37 38.0375 46.1944 30.3185 40.0568C27.5895 37.8869 28.0548 33.0029 29.7969 27.5952" stroke="#A7AFC4" stroke-width="1.5"/>
<ellipse cx="40.9582" cy="20.5436" rx="3.65088" ry="4.05316" fill="#A7AFC4"/>
<path d="M26.1825 63V56H29.3675C29.9509 56 30.4109 56.1017 30.7475 56.305C31.0875 56.505 31.3292 56.77 31.4725 57.1C31.6192 57.43 31.6925 57.785 31.6925 58.165C31.6925 58.4283 31.6409 58.695 31.5375 58.965C31.4375 59.235 31.2842 59.4783 31.0775 59.695C30.8709 59.9117 30.6109 60.0717 30.2975 60.175L31.6775 63H30.2225L28.8975 60.35H27.4775V63H26.1825ZM27.4775 59.13H29.3875C29.6309 59.13 29.8225 59.085 29.9625 58.995C30.1059 58.9017 30.2075 58.7817 30.2675 58.635C30.3275 58.4883 30.3575 58.3333 30.3575 58.17C30.3575 58.0233 30.3292 57.8767 30.2725 57.73C30.2159 57.5833 30.1175 57.4617 29.9775 57.365C29.8375 57.2683 29.6409 57.22 29.3875 57.22H27.4775V59.13ZM33.0771 63V56H37.8071V57.23H34.3721V58.77H36.4071V60H34.3721V61.76H38.0171V63H33.0771ZM38.8752 63L41.5402 56H42.7702L45.4452 63H44.0502L43.4952 61.52H40.8202L40.2752 63H38.8752ZM41.2402 60.335H43.0652L42.3652 58.46C42.3419 58.4033 42.3169 58.34 42.2902 58.27C42.2635 58.2 42.2385 58.13 42.2152 58.06C42.1919 57.9867 42.1719 57.9233 42.1552 57.87C42.1385 57.9233 42.1185 57.9867 42.0952 58.06C42.0719 58.13 42.0469 58.2 42.0202 58.27C41.9935 58.34 41.9685 58.4033 41.9452 58.46L41.2402 60.335ZM48.8475 63.11C48.3042 63.11 47.8442 63.005 47.4675 62.795C47.0942 62.585 46.7925 62.3067 46.5625 61.96C46.3359 61.61 46.1709 61.2217 46.0675 60.795C45.9642 60.3683 45.9125 59.9367 45.9125 59.5C45.9125 59.0867 45.9642 58.6683 46.0675 58.245C46.1742 57.8183 46.3425 57.4267 46.5725 57.07C46.8059 56.71 47.1092 56.4217 47.4825 56.205C47.8559 55.9883 48.3109 55.88 48.8475 55.88C49.2909 55.88 49.6759 55.955 50.0025 56.105C50.3292 56.2517 50.5992 56.4433 50.8125 56.68C51.0292 56.9133 51.1942 57.1583 51.3075 57.415L50.1475 57.955C50.0342 57.7817 49.9175 57.6333 49.7975 57.51C49.6775 57.3833 49.5409 57.2867 49.3875 57.22C49.2375 57.15 49.0575 57.115 48.8475 57.115C48.5475 57.115 48.2959 57.1883 48.0925 57.335C47.8892 57.4783 47.7259 57.6683 47.6025 57.905C47.4792 58.1417 47.3909 58.4 47.3375 58.68C47.2842 58.96 47.2575 59.2333 47.2575 59.5C47.2575 59.7833 47.2875 60.065 47.3475 60.345C47.4075 60.625 47.5025 60.88 47.6325 61.11C47.7625 61.34 47.9275 61.525 48.1275 61.665C48.3275 61.8017 48.5675 61.87 48.8475 61.87C49.1475 61.87 49.3992 61.7867 49.6025 61.62C49.8092 61.45 49.9925 61.2333 50.1525 60.97L51.3375 61.415C51.1875 61.7383 50.9992 62.0283 50.7725 62.285C50.5459 62.5417 50.2742 62.7433 49.9575 62.89C49.6409 63.0367 49.2709 63.11 48.8475 63.11ZM53.9918 63V57.245H52.0068V56H57.2818V57.245H55.2868V63H53.9918Z" fill="#A7AFC4"/>
<path d="M169.161 9.8L164.556 12.8462C164.556 12.8462 163.743 11.7384 162.66 10.9077C161.576 10.0769 160.222 10.3538 160.222 10.3538C160.222 10.3538 157.513 10.9077 157.784 13.1231C158.055 15.3384 160.764 16.4461 160.764 16.4461L162.66 17.2769C162.66 17.2769 166.452 18.6615 169.161 21.4308C171.869 24.2 170.786 28.9077 170.786 28.9077C170.786 28.9077 169.432 35 160.764 35C152.096 35 150.2 29.1846 150.2 29.1846L154.805 26.4154C155.801 28.6472 156.736 29.6646 160.764 30.0154C160.764 30.0154 165.098 29.4615 164.827 26.4154C164.556 23.3692 159.951 22.8154 159.951 22.8154C156.159 21.7077 153.18 18.1077 153.18 18.1077C153.18 18.1077 151.283 15.0615 152.096 10.6308C152.909 6.19998 156.972 5.36922 156.972 5.36922C156.972 5.36922 161.306 4.53847 163.743 5.36923C166.181 6.19999 167.649 7.16352 169.161 9.8Z" fill="#A7AFC4"/>
<path d="M149.4 5H142.988V25.367C142.988 25.367 143.545 29.4954 140.2 29.4954C136.855 29.4954 135.739 26.1927 135.739 26.1927L131 29.4954C131 29.4954 132.952 35 140.2 35C147.448 35 148.842 29.4954 148.842 29.4954L149.4 27.0183V5Z" fill="#A7AFC4"/>
<path d="M127.001 64.12C126.501 64.12 126.051 63.985 125.651 63.715C125.251 63.445 124.945 63.07 124.731 62.59L125.851 62.065C125.991 62.3217 126.15 62.5217 126.326 62.665C126.503 62.805 126.73 62.875 127.006 62.875C127.143 62.875 127.273 62.855 127.396 62.815C127.52 62.775 127.631 62.7067 127.731 62.61C127.835 62.5133 127.915 62.3783 127.971 62.205C128.031 62.0283 128.061 61.8033 128.061 61.53V57H129.361V61.585C129.361 62.0817 129.29 62.495 129.146 62.825C129.003 63.1517 128.813 63.41 128.576 63.6C128.343 63.7867 128.088 63.92 127.811 64C127.538 64.08 127.268 64.12 127.001 64.12ZM130.135 64L132.8 57H134.03L136.705 64H135.31L134.755 62.52H132.08L131.535 64H130.135ZM132.5 61.335H134.325L133.625 59.46C133.602 59.4033 133.577 59.34 133.55 59.27C133.523 59.2 133.498 59.13 133.475 59.06C133.452 58.9867 133.432 58.9233 133.415 58.87C133.398 58.9233 133.378 58.9867 133.355 59.06C133.332 59.13 133.307 59.2 133.28 59.27C133.253 59.34 133.228 59.4033 133.205 59.46L132.5 61.335ZM138.832 64L136.347 57H137.747L139.312 61.635C139.335 61.705 139.358 61.7783 139.382 61.855C139.408 61.9283 139.43 61.9967 139.447 62.06C139.457 62.0033 139.472 61.9383 139.492 61.865C139.515 61.7883 139.54 61.7117 139.567 61.635L141.122 57H142.507L140.032 64H138.832ZM142.147 64L144.812 57H146.042L148.717 64H147.322L146.767 62.52H144.092L143.547 64H142.147ZM144.512 61.335H146.337L145.637 59.46C145.613 59.4033 145.588 59.34 145.562 59.27C145.535 59.2 145.51 59.13 145.487 59.06C145.463 58.9867 145.443 58.9233 145.427 58.87C145.41 58.9233 145.39 58.9867 145.367 59.06C145.343 59.13 145.318 59.2 145.292 59.27C145.265 59.34 145.24 59.4033 145.217 59.46L144.512 61.335ZM151.871 64.12C151.434 64.12 151.037 64.0433 150.681 63.89C150.324 63.7367 150.017 63.52 149.761 63.24C149.507 62.9567 149.317 62.6233 149.191 62.24L150.366 61.805C150.516 62.125 150.724 62.3883 150.991 62.595C151.261 62.7983 151.564 62.9 151.901 62.9C152.257 62.9 152.541 62.825 152.751 62.675C152.964 62.525 153.071 62.3067 153.071 62.02C153.071 61.8233 153.007 61.66 152.881 61.53C152.757 61.3967 152.589 61.2833 152.376 61.19C152.166 61.0933 151.927 61 151.661 60.91C151.404 60.8233 151.146 60.7267 150.886 60.62C150.626 60.5133 150.387 60.3833 150.171 60.23C149.954 60.0733 149.779 59.8767 149.646 59.64C149.516 59.4033 149.451 59.1133 149.451 58.77C149.451 58.4267 149.542 58.1117 149.726 57.825C149.909 57.5383 150.174 57.31 150.521 57.14C150.871 56.9667 151.294 56.88 151.791 56.88C152.197 56.88 152.557 56.95 152.871 57.09C153.187 57.2267 153.449 57.4133 153.656 57.65C153.862 57.8867 154.006 58.155 154.086 58.455L152.926 58.84C152.832 58.63 152.689 58.455 152.496 58.315C152.306 58.1717 152.047 58.1 151.721 58.1C151.414 58.1 151.176 58.16 151.006 58.28C150.836 58.4 150.751 58.57 150.751 58.79C150.751 58.94 150.807 59.0683 150.921 59.175C151.037 59.2783 151.192 59.3717 151.386 59.455C151.582 59.5383 151.804 59.6233 152.051 59.71C152.327 59.8033 152.602 59.91 152.876 60.03C153.152 60.1467 153.402 60.29 153.626 60.46C153.852 60.63 154.034 60.8417 154.171 61.095C154.307 61.345 154.376 61.6517 154.376 62.015C154.376 62.4617 154.264 62.8417 154.041 63.155C153.821 63.4683 153.522 63.7083 153.146 63.875C152.769 64.0383 152.344 64.12 151.871 64.12ZM158.389 64.11C157.845 64.11 157.385 64.005 157.009 63.795C156.635 63.585 156.334 63.3067 156.104 62.96C155.877 62.61 155.712 62.2217 155.609 61.795C155.505 61.3683 155.454 60.9367 155.454 60.5C155.454 60.0867 155.505 59.6683 155.609 59.245C155.715 58.8183 155.884 58.4267 156.114 58.07C156.347 57.71 156.65 57.4217 157.024 57.205C157.397 56.9883 157.852 56.88 158.389 56.88C158.832 56.88 159.217 56.955 159.544 57.105C159.87 57.2517 160.14 57.4433 160.354 57.68C160.57 57.9133 160.735 58.1583 160.849 58.415L159.689 58.955C159.575 58.7817 159.459 58.6333 159.339 58.51C159.219 58.3833 159.082 58.2867 158.929 58.22C158.779 58.15 158.599 58.115 158.389 58.115C158.089 58.115 157.837 58.1883 157.634 58.335C157.43 58.4783 157.267 58.6683 157.144 58.905C157.02 59.1417 156.932 59.4 156.879 59.68C156.825 59.96 156.799 60.2333 156.799 60.5C156.799 60.7833 156.829 61.065 156.889 61.345C156.949 61.625 157.044 61.88 157.174 62.11C157.304 62.34 157.469 62.525 157.669 62.665C157.869 62.8017 158.109 62.87 158.389 62.87C158.689 62.87 158.94 62.7867 159.144 62.62C159.35 62.45 159.534 62.2333 159.694 61.97L160.879 62.415C160.729 62.7383 160.54 63.0283 160.314 63.285C160.087 63.5417 159.815 63.7433 159.499 63.89C159.182 64.0367 158.812 64.11 158.389 64.11ZM162.022 64V57H165.207C165.791 57 166.251 57.1017 166.587 57.305C166.927 57.505 167.169 57.77 167.312 58.1C167.459 58.43 167.532 58.785 167.532 59.165C167.532 59.4283 167.481 59.695 167.377 59.965C167.277 60.235 167.124 60.4783 166.917 60.695C166.711 60.9117 166.451 61.0717 166.137 61.175L167.517 64H166.062L164.737 61.35H163.317V64H162.022ZM163.317 60.13H165.227C165.471 60.13 165.662 60.085 165.802 59.995C165.946 59.9017 166.047 59.7817 166.107 59.635C166.167 59.4883 166.197 59.3333 166.197 59.17C166.197 59.0233 166.169 58.8767 166.112 58.73C166.056 58.5833 165.957 58.4617 165.817 58.365C165.677 58.2683 165.481 58.22 165.227 58.22H163.317V60.13ZM168.917 64V57H170.212V64H168.917ZM171.856 64V57H174.811C175.401 57 175.87 57.1083 176.216 57.325C176.563 57.5383 176.811 57.8133 176.961 58.15C177.111 58.4833 177.186 58.8317 177.186 59.195C177.186 59.4483 177.141 59.705 177.051 59.965C176.965 60.2217 176.826 60.4583 176.636 60.675C176.45 60.8883 176.205 61.0617 175.901 61.195C175.601 61.325 175.238 61.39 174.811 61.39H173.151V64H171.856ZM173.151 60.17H174.871C175.111 60.17 175.303 60.1217 175.446 60.025C175.593 59.925 175.698 59.8 175.761 59.65C175.825 59.5 175.856 59.3483 175.856 59.195C175.856 59.055 175.826 58.91 175.766 58.76C175.71 58.6067 175.61 58.4783 175.466 58.375C175.323 58.2717 175.125 58.22 174.871 58.22H173.151V60.17ZM179.773 64V58.245H177.788V57H183.063V58.245H181.068V64H179.773Z" fill="#A7AFC4"/>
<path d="M12.6808 175L11.2108 168H12.5508L13.3108 171.94C13.3308 172.047 13.3475 172.142 13.3608 172.225C13.3742 172.308 13.3858 172.4 13.3958 172.5C13.4092 172.407 13.4258 172.315 13.4458 172.225C13.4658 172.132 13.4892 172.037 13.5158 171.94L14.5108 168H15.6208L16.6208 171.935C16.6475 172.028 16.6692 172.12 16.6858 172.21C16.7025 172.3 16.7175 172.392 16.7308 172.485C16.7442 172.395 16.7575 172.308 16.7708 172.225C16.7875 172.138 16.8042 172.05 16.8208 171.96L17.6158 168H18.9508L17.4358 175H16.2608L15.1508 170.8C15.1275 170.72 15.1075 170.643 15.0908 170.57C15.0775 170.497 15.0642 170.412 15.0508 170.315C15.0342 170.415 15.0175 170.5 15.0008 170.57C14.9875 170.64 14.9708 170.715 14.9508 170.795L13.8658 175H12.6808ZM22.9324 175.12C22.3724 175.12 21.8974 175.015 21.5074 174.805C21.1174 174.592 20.8024 174.31 20.5624 173.96C20.3257 173.607 20.1524 173.217 20.0424 172.79C19.9324 172.363 19.8774 171.933 19.8774 171.5C19.8774 171.067 19.9324 170.637 20.0424 170.21C20.1524 169.783 20.3257 169.395 20.5624 169.045C20.8024 168.692 21.1174 168.41 21.5074 168.2C21.8974 167.987 22.3724 167.88 22.9324 167.88C23.4924 167.88 23.9657 167.987 24.3524 168.2C24.7424 168.41 25.0557 168.692 25.2924 169.045C25.5324 169.395 25.7057 169.783 25.8124 170.21C25.9224 170.637 25.9774 171.067 25.9774 171.5C25.9774 171.933 25.9224 172.363 25.8124 172.79C25.7057 173.217 25.5324 173.607 25.2924 173.96C25.0557 174.31 24.7424 174.592 24.3524 174.805C23.9657 175.015 23.4924 175.12 22.9324 175.12ZM22.9324 173.875C23.2457 173.875 23.5107 173.802 23.7274 173.655C23.9474 173.508 24.124 173.317 24.2574 173.08C24.3907 172.843 24.4874 172.587 24.5474 172.31C24.6074 172.03 24.6374 171.76 24.6374 171.5C24.6374 171.22 24.6074 170.94 24.5474 170.66C24.4907 170.377 24.3957 170.12 24.2624 169.89C24.1324 169.657 23.9574 169.47 23.7374 169.33C23.5207 169.187 23.2524 169.115 22.9324 169.115C22.609 169.115 22.3374 169.188 22.1174 169.335C21.9007 169.482 21.7257 169.675 21.5924 169.915C21.4624 170.152 21.3674 170.41 21.3074 170.69C21.2507 170.967 21.2224 171.237 21.2224 171.5C21.2224 171.777 21.2507 172.055 21.3074 172.335C21.3674 172.615 21.464 172.872 21.5974 173.105C21.734 173.338 21.9107 173.525 22.1274 173.665C22.3474 173.805 22.6157 173.875 22.9324 173.875ZM27.3251 175V168H30.5101C31.0935 168 31.5535 168.102 31.8901 168.305C32.2301 168.505 32.4718 168.77 32.6151 169.1C32.7618 169.43 32.8351 169.785 32.8351 170.165C32.8351 170.428 32.7835 170.695 32.6801 170.965C32.5801 171.235 32.4268 171.478 32.2201 171.695C32.0135 171.912 31.7535 172.072 31.4401 172.175L32.8201 175H31.3651L30.0401 172.35H28.6201V175H27.3251ZM28.6201 171.13H30.5301C30.7735 171.13 30.9651 171.085 31.1051 170.995C31.2485 170.902 31.3501 170.782 31.4101 170.635C31.4701 170.488 31.5001 170.333 31.5001 170.17C31.5001 170.023 31.4718 169.877 31.4151 169.73C31.3585 169.583 31.2601 169.462 31.1201 169.365C30.9801 169.268 30.7835 169.22 30.5301 169.22H28.6201V171.13ZM34.2196 175V168H36.5796C37.1863 168 37.703 168.1 38.1296 168.3C38.5563 168.497 38.9013 168.763 39.1646 169.1C39.4313 169.433 39.6246 169.808 39.7446 170.225C39.868 170.638 39.9296 171.063 39.9296 171.5C39.9296 171.9 39.8713 172.305 39.7546 172.715C39.6413 173.125 39.4546 173.503 39.1946 173.85C38.9346 174.193 38.5863 174.472 38.1496 174.685C37.7163 174.895 37.1796 175 36.5396 175H34.2196ZM35.5146 173.77H36.6746C37.0313 173.77 37.3313 173.703 37.5746 173.57C37.818 173.433 38.013 173.255 38.1596 173.035C38.3096 172.812 38.418 172.567 38.4846 172.3C38.5546 172.03 38.5896 171.763 38.5896 171.5C38.5896 171.22 38.5546 170.945 38.4846 170.675C38.4146 170.405 38.3063 170.16 38.1596 169.94C38.013 169.72 37.8263 169.545 37.5996 169.415C37.373 169.285 37.1013 169.22 36.7846 169.22H35.5146V173.77ZM41.2802 175V168H44.2352C44.8252 168 45.2935 168.108 45.6402 168.325C45.9869 168.538 46.2352 168.813 46.3852 169.15C46.5352 169.483 46.6102 169.832 46.6102 170.195C46.6102 170.448 46.5652 170.705 46.4752 170.965C46.3885 171.222 46.2502 171.458 46.0602 171.675C45.8735 171.888 45.6285 172.062 45.3252 172.195C45.0252 172.325 44.6619 172.39 44.2352 172.39H42.5752V175H41.2802ZM42.5752 171.17H44.2952C44.5352 171.17 44.7269 171.122 44.8702 171.025C45.0169 170.925 45.1219 170.8 45.1852 170.65C45.2485 170.5 45.2802 170.348 45.2802 170.195C45.2802 170.055 45.2502 169.91 45.1902 169.76C45.1335 169.607 45.0335 169.478 44.8902 169.375C44.7469 169.272 44.5485 169.22 44.2952 169.22H42.5752V171.17ZM47.6864 175V168H50.8714C51.4548 168 51.9148 168.102 52.2514 168.305C52.5914 168.505 52.8331 168.77 52.9764 169.1C53.1231 169.43 53.1964 169.785 53.1964 170.165C53.1964 170.428 53.1448 170.695 53.0414 170.965C52.9414 171.235 52.7881 171.478 52.5814 171.695C52.3748 171.912 52.1148 172.072 51.8014 172.175L53.1814 175H51.7264L50.4014 172.35H48.9814V175H47.6864ZM48.9814 171.13H50.8914C51.1348 171.13 51.3264 171.085 51.4664 170.995C51.6098 170.902 51.7114 170.782 51.7714 170.635C51.8314 170.488 51.8614 170.333 51.8614 170.17C51.8614 170.023 51.8331 169.877 51.7764 169.73C51.7198 169.583 51.6214 169.462 51.4814 169.365C51.3414 169.268 51.1448 169.22 50.8914 169.22H48.9814V171.13ZM54.581 175V168H59.311V169.23H55.876V170.77H57.911V172H55.876V173.76H59.521V175H54.581ZM63.0036 175.12C62.5669 175.12 62.1702 175.043 61.8136 174.89C61.4569 174.737 61.1502 174.52 60.8936 174.24C60.6402 173.957 60.4502 173.623 60.3236 173.24L61.4986 172.805C61.6486 173.125 61.8569 173.388 62.1236 173.595C62.3936 173.798 62.6969 173.9 63.0336 173.9C63.3902 173.9 63.6736 173.825 63.8836 173.675C64.0969 173.525 64.2036 173.307 64.2036 173.02C64.2036 172.823 64.1402 172.66 64.0136 172.53C63.8902 172.397 63.7219 172.283 63.5086 172.19C63.2986 172.093 63.0602 172 62.7936 171.91C62.5369 171.823 62.2786 171.727 62.0186 171.62C61.7586 171.513 61.5202 171.383 61.3036 171.23C61.0869 171.073 60.9119 170.877 60.7786 170.64C60.6486 170.403 60.5836 170.113 60.5836 169.77C60.5836 169.427 60.6752 169.112 60.8586 168.825C61.0419 168.538 61.3069 168.31 61.6536 168.14C62.0036 167.967 62.4269 167.88 62.9236 167.88C63.3302 167.88 63.6902 167.95 64.0036 168.09C64.3202 168.227 64.5819 168.413 64.7886 168.65C64.9952 168.887 65.1386 169.155 65.2186 169.455L64.0586 169.84C63.9652 169.63 63.8219 169.455 63.6286 169.315C63.4386 169.172 63.1802 169.1 62.8536 169.1C62.5469 169.1 62.3086 169.16 62.1386 169.28C61.9686 169.4 61.8836 169.57 61.8836 169.79C61.8836 169.94 61.9402 170.068 62.0536 170.175C62.1702 170.278 62.3252 170.372 62.5186 170.455C62.7152 170.538 62.9369 170.623 63.1836 170.71C63.4602 170.803 63.7352 170.91 64.0086 171.03C64.2852 171.147 64.5352 171.29 64.7586 171.46C64.9852 171.63 65.1669 171.842 65.3036 172.095C65.4402 172.345 65.5086 172.652 65.5086 173.015C65.5086 173.462 65.3969 173.842 65.1736 174.155C64.9536 174.468 64.6552 174.708 64.2786 174.875C63.9019 175.038 63.4769 175.12 63.0036 175.12ZM69.1364 175.12C68.6997 175.12 68.303 175.043 67.9464 174.89C67.5897 174.737 67.283 174.52 67.0264 174.24C66.773 173.957 66.583 173.623 66.4564 173.24L67.6314 172.805C67.7814 173.125 67.9897 173.388 68.2564 173.595C68.5264 173.798 68.8297 173.9 69.1664 173.9C69.523 173.9 69.8064 173.825 70.0164 173.675C70.2297 173.525 70.3364 173.307 70.3364 173.02C70.3364 172.823 70.273 172.66 70.1464 172.53C70.023 172.397 69.8547 172.283 69.6414 172.19C69.4314 172.093 69.193 172 68.9264 171.91C68.6697 171.823 68.4114 171.727 68.1514 171.62C67.8914 171.513 67.653 171.383 67.4364 171.23C67.2197 171.073 67.0447 170.877 66.9114 170.64C66.7814 170.403 66.7164 170.113 66.7164 169.77C66.7164 169.427 66.808 169.112 66.9914 168.825C67.1747 168.538 67.4397 168.31 67.7864 168.14C68.1364 167.967 68.5597 167.88 69.0564 167.88C69.463 167.88 69.823 167.95 70.1364 168.09C70.453 168.227 70.7147 168.413 70.9214 168.65C71.128 168.887 71.2714 169.155 71.3514 169.455L70.1914 169.84C70.098 169.63 69.9547 169.455 69.7614 169.315C69.5714 169.172 69.313 169.1 68.9864 169.1C68.6797 169.1 68.4414 169.16 68.2714 169.28C68.1014 169.4 68.0164 169.57 68.0164 169.79C68.0164 169.94 68.073 170.068 68.1864 170.175C68.303 170.278 68.458 170.372 68.6514 170.455C68.848 170.538 69.0697 170.623 69.3164 170.71C69.593 170.803 69.868 170.91 70.1414 171.03C70.418 171.147 70.668 171.29 70.8914 171.46C71.118 171.63 71.2997 171.842 71.4364 172.095C71.573 172.345 71.6414 172.652 71.6414 173.015C71.6414 173.462 71.5297 173.842 71.3064 174.155C71.0864 174.468 70.788 174.708 70.4114 174.875C70.0347 175.038 69.6097 175.12 69.1364 175.12Z" fill="#A7AFC4"/>
<path d="M22.8706 127.098C20.6346 137.446 22.5004 142.443 30.8706 150.098L22.8706 127.098Z" fill="#A7AFC4"/>
<path d="M39.8705 130.598L35.6573 142.302C35.5616 142.568 35.1848 142.566 35.0918 142.299L27.8706 121.598L27.8705 121.098H30.1206C30.5348 121.098 30.8705 120.762 30.8705 120.348C30.8705 119.934 30.5348 119.598 30.1206 119.598H27.3705C35.4971 112.07 41.8705 111.098 52.3705 116.098C52.3705 116.098 48.3705 118.598 51.8705 123.098C55.3705 127.598 54.6776 134.726 50.8705 145.098L43.3705 121.098H45.6205C46.0348 121.098 46.3705 120.763 46.3705 120.348C46.3705 119.934 46.0348 119.598 45.6205 119.598H34.8705C34.3183 119.598 33.8705 120.046 33.8705 120.598C33.8705 121.151 34.3183 121.598 34.8705 121.598H36.3705L39.8705 130.598Z" fill="#A7AFC4"/>
<path d="M40.8705 133.598L34.8705 151.598C39.7347 154.034 42.4733 153.922 47.3705 152.098L40.8705 133.598Z" fill="#A7AFC4"/>
<path d="M58.8705 123.098C58.9841 132.576 55.2781 139.586 50.8705 151.098C50.8705 151.098 58.6353 148.098 60.8705 138.598C63.1058 129.098 58.8705 123.098 58.8705 123.098Z" fill="#A7AFC4"/>
<path d="M131.506 129.474C128.124 145.247 142.804 152.787 142.804 152.787C142.804 152.787 145.481 153.082 145.904 152.787C146.327 152.492 146.186 152.05 146.186 152.05V148.217C144.285 148.591 143.268 148.691 141.817 148.07C140.636 147.733 140.035 146.75 138.999 144.532L138.294 143.647C136.91 142.675 136.422 142.227 136.885 141.878H138.153C139.177 142.087 140.078 143.101 141.817 145.269C143.249 146.235 144.28 146.188 146.327 145.564C146.341 144.147 146.583 143.529 147.454 142.763C145.784 142.579 144.79 142.346 142.804 141.436C142.804 141.436 138.717 139.815 138.717 134.213C138.717 128.611 140.69 127.432 140.69 127.432C140.69 127.432 139.944 124.063 140.831 122.125C142.883 121.7 144.07 122.619 146.186 124.189C149.834 122.997 151.991 123.217 155.91 124.189C157.259 123.103 158.297 122.631 160.843 122.125C161.604 124.71 161.507 125.779 160.984 127.432L161.97 128.906C161.97 128.906 163.803 132.149 162.393 137.161C160.984 142.173 154.36 142.763 154.36 142.763C155.314 143.665 155.48 144.433 155.488 146.006V152.05C155.488 152.05 155.629 152.787 156.333 152.934C157.038 153.082 158.363 152.934 158.363 152.934C158.363 152.934 161.631 151.601 164.604 148.893C166.143 147.492 168.765 144.233 170.278 138.795C171.791 133.358 170.558 127.362 169.9 125.784C169.241 124.207 168.031 121.033 161.97 116.463C155.91 111.893 150.608 113.162 149.474 113.162C148.339 113.162 134.888 113.7 131.506 129.474Z" fill="#A7AFC4"/>
<path d="M137.119 175.12C136.582 175.12 136.12 175.02 135.734 174.82C135.347 174.617 135.032 174.343 134.789 174C134.545 173.653 134.364 173.265 134.244 172.835C134.127 172.402 134.069 171.957 134.069 171.5C134.069 171.063 134.129 170.632 134.249 170.205C134.372 169.778 134.557 169.39 134.804 169.04C135.054 168.69 135.37 168.41 135.754 168.2C136.137 167.987 136.592 167.88 137.119 167.88C137.565 167.88 137.942 167.95 138.249 168.09C138.559 168.23 138.819 168.413 139.029 168.64C139.242 168.863 139.427 169.1 139.584 169.35L138.444 170C138.29 169.763 138.109 169.557 137.899 169.38C137.692 169.203 137.432 169.115 137.119 169.115C136.792 169.115 136.519 169.188 136.299 169.335C136.082 169.482 135.909 169.673 135.779 169.91C135.649 170.147 135.555 170.405 135.499 170.685C135.442 170.962 135.414 171.233 135.414 171.5C135.414 171.803 135.445 172.097 135.509 172.38C135.572 172.663 135.672 172.918 135.809 173.145C135.945 173.372 136.122 173.552 136.339 173.685C136.555 173.815 136.815 173.88 137.119 173.88C137.349 173.88 137.557 173.828 137.744 173.725C137.934 173.622 138.084 173.483 138.194 173.31C138.304 173.133 138.359 172.935 138.359 172.715V172.585H137.169V171.36H139.694V172.37C139.694 172.963 139.579 173.465 139.349 173.875C139.122 174.282 138.814 174.592 138.424 174.805C138.037 175.015 137.602 175.12 137.119 175.12ZM141.155 175V168H142.45V175H141.155ZM145.625 175V169.245H143.64V168H148.915V169.245H146.92V175H145.625ZM150.091 175V168H151.386V170.775H154.346V168H155.641V175H154.346V172.01H151.386V175H150.091ZM160.028 175.12C159.441 175.12 158.939 175.012 158.523 174.795C158.109 174.575 157.793 174.257 157.573 173.84C157.356 173.423 157.248 172.92 157.248 172.33V168H158.543V172.33C158.543 172.86 158.661 173.25 158.898 173.5C159.134 173.75 159.511 173.875 160.028 173.875C160.354 173.875 160.628 173.823 160.848 173.72C161.068 173.617 161.233 173.452 161.343 173.225C161.453 172.995 161.508 172.697 161.508 172.33V168H162.808V172.33C162.808 172.823 162.734 173.247 162.588 173.6C162.444 173.953 162.244 174.243 161.988 174.47C161.734 174.693 161.439 174.858 161.103 174.965C160.766 175.068 160.408 175.12 160.028 175.12ZM164.417 175V168H167.437C168.007 168 168.457 168.092 168.787 168.275C169.117 168.455 169.352 168.69 169.492 168.98C169.632 169.267 169.702 169.567 169.702 169.88C169.702 170.193 169.634 170.48 169.497 170.74C169.36 170.997 169.137 171.195 168.827 171.335C169.08 171.425 169.289 171.555 169.452 171.725C169.619 171.892 169.74 172.082 169.817 172.295C169.897 172.505 169.937 172.718 169.937 172.935C169.937 173.182 169.895 173.428 169.812 173.675C169.732 173.918 169.6 174.14 169.417 174.34C169.234 174.54 168.99 174.7 168.687 174.82C168.387 174.94 168.017 175 167.577 175H164.417ZM165.712 173.785H167.662C167.912 173.785 168.107 173.742 168.247 173.655C168.39 173.568 168.49 173.46 168.547 173.33C168.607 173.197 168.637 173.065 168.637 172.935C168.637 172.775 168.602 172.623 168.532 172.48C168.465 172.333 168.34 172.213 168.157 172.12C167.977 172.027 167.715 171.98 167.372 171.98H165.712V173.785ZM165.712 170.815H167.277C167.657 170.815 167.937 170.742 168.117 170.595C168.3 170.445 168.392 170.247 168.392 170C168.392 169.873 168.369 169.75 168.322 169.63C168.275 169.507 168.185 169.405 168.052 169.325C167.919 169.245 167.722 169.205 167.462 169.205H165.712V170.815Z" fill="#A7AFC4"/>
</svg>
