<svg width="30" height="25" viewBox="0 0 30 25" fill="none" xmlns="http://www.w3.org/2000/svg">
<path d="M10.5 12.5C13.8141 12.5 16.5 9.70215 16.5 6.25C16.5 2.79785 13.8141 0 10.5 0C7.18593 0 4.5 2.79785 4.5 6.25C4.5 9.70215 7.18593 12.5 10.5 12.5ZM14.7 14.0625H13.9172C12.8766 14.5605 11.7187 14.8438 10.5 14.8438C9.28124 14.8438 8.12812 14.5605 7.08281 14.0625H6.3C2.82187 14.0625 0 17.002 0 20.625V22.6562C0 23.9502 1.00781 25 2.25 25H18.75C19.9922 25 21 23.9502 21 22.6562V20.625C21 17.002 18.1781 14.0625 14.7 14.0625ZM29.8406 7.79297L28.5375 6.4209C28.3219 6.19141 27.9703 6.19141 27.75 6.41602L22.8375 11.4941L20.7047 9.25781C20.4891 9.02832 20.1375 9.02832 19.9172 9.25293L18.6 10.6152C18.3797 10.8398 18.3797 11.2061 18.5953 11.4355L22.425 15.4541C22.6406 15.6836 22.9922 15.6836 23.2125 15.459L29.8359 8.61328C30.0515 8.38379 30.0562 8.01758 29.8406 7.79297V7.79297Z" fill="#4C556D"/>
</svg>
