<svg width="20" height="20" viewBox="0 0 20 20" fill="none" xmlns="http://www.w3.org/2000/svg">
<path d="M2.7034 5.06432C3.22624 4.69889 4.01438 4.76897 4.48381 5.15665L3.94541 4.37407C3.51213 3.75612 3.66731 3.08757 4.28581 2.65373C4.90431 2.22156 6.65691 3.38347 6.65691 3.38347C6.21973 2.75941 6.30149 1.96848 6.92555 1.53075C7.54961 1.09469 8.41062 1.24542 8.8478 1.87059L14.6434 10.0579L13.9048 17.2191L7.74039 14.9709L2.36356 6.9988C1.92249 6.37084 2.07489 5.50483 2.7034 5.06432Z" fill="#EF9645"/>
<path d="M1.49913 9.6191C1.49913 9.6191 0.869508 8.70136 1.7878 8.07229C2.70498 7.44323 3.33405 8.36041 3.33405 8.36041L6.25468 12.6198C6.35535 12.4518 6.46548 12.2861 6.5884 12.1226L2.53478 6.21179C2.53478 6.21179 1.90572 5.29461 2.82345 4.66554C3.74064 4.03648 4.3697 4.95366 4.3697 4.95366L8.18248 10.514C8.32432 10.3983 8.46949 10.2821 8.6191 10.1681L4.19895 3.72111C4.19895 3.72111 3.56988 2.80393 4.48762 2.17486C5.4048 1.54579 6.03387 2.46297 6.03387 2.46297L10.454 8.90883C10.6164 8.80927 10.7772 8.72305 10.9385 8.63184L6.80699 2.60703C6.80699 2.60703 6.17792 1.68985 7.0951 1.06078C8.01229 0.431714 8.64135 1.3489 8.64135 1.3489L13.0098 7.71966L13.6739 8.68857C10.9218 10.5763 10.6598 14.1277 12.2322 16.4209C12.5465 16.8798 13.0053 16.5655 13.0053 16.5655C11.1181 13.8129 11.6944 10.7198 14.447 8.83263L13.6355 4.77122C13.6355 4.77122 13.3324 3.70108 14.402 3.3974C15.4721 3.09426 15.7758 4.1644 15.7758 4.1644L16.713 6.94765C17.0845 8.05116 17.48 9.15077 18.0034 10.1909C19.4812 13.1276 18.5985 16.7775 15.8119 18.6891C12.7723 20.7732 8.61688 19.9984 6.53223 16.9593L1.49913 9.6191Z" fill="#FFDC5D"/>
<path d="M6.67427 17.7985C4.44945 17.7985 2.20128 15.5503 2.20128 13.3255C2.20128 13.0179 1.97601 12.7693 1.66843 12.7693C1.36085 12.7693 1.08887 13.0179 1.08887 13.3255C1.08887 16.6627 3.33705 18.9109 6.67427 18.9109C6.98185 18.9109 7.23048 18.6389 7.23048 18.3313C7.23048 18.0238 6.98185 17.7985 6.67427 17.7985Z" fill="#5DADEC"/>
<path d="M3.89343 18.8877C2.22482 18.8877 1.11241 17.7752 1.11241 16.1066C1.11241 15.7991 0.863786 15.5504 0.556204 15.5504C0.248623 15.5504 0 15.7991 0 16.1066C0 18.3314 1.66861 20.0001 3.89343 20.0001C4.20101 20.0001 4.44964 19.7514 4.44964 19.4439C4.44964 19.1363 4.20101 18.8877 3.89343 18.8877ZM13.3489 1.08911C13.0419 1.08911 12.7927 1.33829 12.7927 1.64532C12.7927 1.95234 13.0419 2.20152 13.3489 2.20152C15.5737 2.20152 17.7985 4.19774 17.7985 6.65116C17.7985 6.95818 18.0477 7.20736 18.3547 7.20736C18.6618 7.20736 18.911 6.95818 18.911 6.65116C18.911 3.58424 16.6861 1.08911 13.3489 1.08911Z" fill="#5DADEC"/>
<path d="M16.1299 0C15.8229 0 15.5737 0.225819 15.5737 0.532844C15.5737 0.839869 15.8229 1.11241 16.1299 1.11241C17.7985 1.11241 18.8876 2.34996 18.8876 3.87007C18.8876 4.1771 19.1596 4.42628 19.4672 4.42628C19.7747 4.42628 20 4.1771 20 3.87007C20 1.73591 18.3548 0 16.1299 0Z" fill="#5DADEC"/>
</svg>
