<svg width="34" height="32" viewBox="0 0 34 32" fill="none" xmlns="http://www.w3.org/2000/svg">
<path d="M20.4556 20.6682C20.3177 21.1828 19.8008 21.491 19.3005 21.3569L13.8671 19.9011C13.3668 19.767 13.0733 19.2416 13.2112 18.727L13.9599 15.9327L3.09322 13.021L0.847038 21.4039C0.447717 22.8942 1.36609 24.5379 2.81498 24.9261L26.3594 31.2348C27.8083 31.623 29.4255 30.6587 29.8248 29.1684L32.071 20.7856L21.2043 17.8739L20.4556 20.6682ZM31.8501 10.7434L27.3223 9.53016L28.071 6.73588C28.4704 5.24559 27.552 3.60189 26.1031 3.21366L17.0475 0.787235C15.5986 0.399007 13.9815 1.36331 13.5821 2.85359L12.8334 5.64788L8.30564 4.43466C6.85675 4.04643 5.23957 5.01073 4.84025 6.50102L3.59237 11.1582L32.5701 18.9227L33.818 14.2656C34.2173 12.7753 33.299 11.1316 31.8501 10.7434ZM23.7001 8.55959L16.4556 6.61845L16.9548 4.75559L24.1992 6.69673L23.7001 8.55959Z" fill="#4C556D"/>
</svg>
