<svg width="459" height="64" viewBox="0 0 459 64" fill="none" xmlns="http://www.w3.org/2000/svg">
<path d="M172.161 8.8L167.556 11.8462C167.556 11.8462 166.743 10.7384 165.66 9.90767C164.576 9.0769 163.222 9.35383 163.222 9.35383C163.222 9.35383 160.513 9.90767 160.784 12.1231C161.055 14.3384 163.764 15.4461 163.764 15.4461L165.66 16.2769C165.66 16.2769 169.452 17.6615 172.161 20.4308C174.869 23.2 173.786 27.9077 173.786 27.9077C173.786 27.9077 172.432 34 163.764 34C155.096 34 153.2 28.1846 153.2 28.1846L157.805 25.4154C158.801 27.6472 159.736 28.6646 163.764 29.0154C163.764 29.0154 168.098 28.4615 167.827 25.4154C167.556 22.3692 162.951 21.8154 162.951 21.8154C159.159 20.7077 156.18 17.1077 156.18 17.1077C156.18 17.1077 154.283 14.0615 155.096 9.63075C155.909 5.19998 159.972 4.36922 159.972 4.36922C159.972 4.36922 164.306 3.53847 166.743 4.36923C169.181 5.19999 170.649 6.16352 172.161 8.8Z" fill="#4C556D"/>
<path d="M152.4 4H145.988V24.367C145.988 24.367 146.545 28.4954 143.2 28.4954C139.855 28.4954 138.739 25.1927 138.739 25.1927L134 28.4954C134 28.4954 135.952 34 143.2 34C150.448 34 151.842 28.4954 151.842 28.4954L152.4 26.0183V4Z" fill="#4C556D"/>
<path d="M394.506 17.4739C391.124 33.2474 405.804 40.7871 405.804 40.7871C405.804 40.7871 408.481 41.0819 408.904 40.7871C409.327 40.4922 409.186 40.05 409.186 40.05V36.2172C407.285 36.5915 406.268 36.6914 404.817 36.0698C403.636 35.7331 403.035 34.7497 401.999 32.5318L401.294 31.6473C399.91 30.6754 399.422 30.2274 399.885 29.8783H401.153C402.177 30.0865 403.078 31.1013 404.817 33.2689C406.249 34.2354 407.28 34.1877 409.327 33.5637C409.341 32.1469 409.583 31.5292 410.454 30.7628C408.784 30.5795 407.79 30.3459 405.804 29.4361C405.804 29.4361 401.717 27.8145 401.717 22.2127C401.717 16.611 403.69 15.4316 403.69 15.4316C403.69 15.4316 402.944 12.0631 403.831 10.1247C405.883 9.70037 407.07 10.619 409.186 12.1885C412.834 10.9968 414.991 11.217 418.91 12.1885C420.259 11.1031 421.297 10.6306 423.843 10.1247C424.604 12.7104 424.507 13.7789 423.984 15.4316L424.97 16.9058C424.97 16.9058 426.803 20.1489 425.393 25.1611C423.984 30.1732 417.36 30.7628 417.36 30.7628C418.314 31.6651 418.48 32.4329 418.488 34.006V40.05C418.488 40.05 418.629 40.7871 419.333 40.9345C420.038 41.0819 421.363 40.9345 421.363 40.9345C421.363 40.9345 424.631 39.601 427.604 36.8933C429.143 35.4919 431.765 32.2326 433.278 26.7952C434.791 21.3578 433.558 15.3616 432.9 13.7842C432.241 12.2069 431.031 9.03284 424.97 4.46297C418.91 -0.106906 413.608 1.16167 412.474 1.16167C411.339 1.16168 397.888 1.7005 394.506 17.4739Z" fill="#4C556D"/>
<path d="M12.7969 13.3638C12.7969 13.3638 10.1892 2.88347 14.0487 1.2622C17.9082 -0.359062 23.4366 6.0681 23.4366 6.0681M12.7969 13.3638C12.7969 13.3638 27.3483 48.3947 35.0673 39.304C38.7322 34.9879 36.2951 27.278 32.7242 20.37M12.7969 13.3638C12.7969 13.3638 4.71287 15.9115 4.03485 20.37C3.35683 24.8285 12.7969 27.5952 12.7969 27.5952M12.7969 13.3638C12.7969 13.3638 43.2035 7.74726 43.9859 20.37C44.7682 32.9927 12.7969 27.5952 12.7969 27.5952M23.4366 6.0681C23.4366 6.0681 28.7565 0.104161 33.5548 1.2622C38.3531 2.42025 32.7242 20.37 32.7242 20.37M23.4366 6.0681C23.4366 6.0681 28.7741 12.7284 32.7242 20.37M23.4366 6.0681C23.4366 6.0681 15.9824 17.7072 12.7969 27.5952M32.7242 20.37C32.7242 20.37 21.0375 46.1944 13.3185 40.0568C10.5895 37.8869 11.0548 33.0029 12.7969 27.5952" stroke="#4C556D" stroke-width="1.5"/>
<ellipse cx="23.9582" cy="20.5436" rx="3.65088" ry="4.05316" fill="#4C556D"/>
<circle cx="284" cy="21" r="20" fill="#4C556D"/>
<path d="M272.361 7.46159H266.069C264.89 8.98815 264.321 9.8695 264 11.6357L273.654 39.8351L276.827 41L283.171 21.44L289.745 40.7087L293.193 39.1071L294.802 33.7196C299.53 20.9177 301.695 14.6096 301.284 11.0047C300.037 7.58097 298.679 6.09501 295.905 3.67579C292.555 3.39477 292.404 9.65429 295.078 12.2667C297.066 15.1427 297.408 17.1418 296.549 21.44L293.193 33.1371L285.635 9.24656C285.621 9.20387 285.653 9.16035 285.698 9.16035H288.16C288.629 9.16035 289.009 8.78007 289.009 8.31097C289.009 7.84187 288.629 7.46159 288.16 7.46159H276.894C276.425 7.46159 276.045 7.84187 276.045 8.31097C276.045 8.78007 276.425 9.16035 276.894 9.16035H278.803L282.297 18.7219L278.499 30.1724C278.193 31.0961 276.882 31.0824 276.595 30.1526L270.256 9.61874C270.186 9.39105 270.356 9.16035 270.594 9.16035H272.361C272.7 9.16035 273.006 8.95922 273.14 8.64848C273.383 8.08765 272.972 7.46159 272.361 7.46159Z" fill="white"/>
<path d="M126.501 63.12C126.001 63.12 125.551 62.985 125.151 62.715C124.751 62.445 124.445 62.07 124.231 61.59L125.351 61.065C125.491 61.3217 125.65 61.5217 125.826 61.665C126.003 61.805 126.23 61.875 126.506 61.875C126.643 61.875 126.773 61.855 126.896 61.815C127.02 61.775 127.131 61.7067 127.231 61.61C127.335 61.5133 127.415 61.3783 127.471 61.205C127.531 61.0283 127.561 60.8033 127.561 60.53V56H128.861V60.585C128.861 61.0817 128.79 61.495 128.646 61.825C128.503 62.1517 128.313 62.41 128.076 62.6C127.843 62.7867 127.588 62.92 127.311 63C127.038 63.08 126.768 63.12 126.501 63.12ZM129.635 63L132.3 56H133.53L136.205 63H134.81L134.255 61.52H131.58L131.035 63H129.635ZM132 60.335H133.825L133.125 58.46C133.102 58.4033 133.077 58.34 133.05 58.27C133.023 58.2 132.998 58.13 132.975 58.06C132.952 57.9867 132.932 57.9233 132.915 57.87C132.898 57.9233 132.878 57.9867 132.855 58.06C132.832 58.13 132.807 58.2 132.78 58.27C132.753 58.34 132.728 58.4033 132.705 58.46L132 60.335ZM138.332 63L135.847 56H137.247L138.812 60.635C138.835 60.705 138.858 60.7783 138.882 60.855C138.908 60.9283 138.93 60.9967 138.947 61.06C138.957 61.0033 138.972 60.9383 138.992 60.865C139.015 60.7883 139.04 60.7117 139.067 60.635L140.622 56H142.007L139.532 63H138.332ZM141.647 63L144.312 56H145.542L148.217 63H146.822L146.267 61.52H143.592L143.047 63H141.647ZM144.012 60.335H145.837L145.137 58.46C145.113 58.4033 145.088 58.34 145.062 58.27C145.035 58.2 145.01 58.13 144.987 58.06C144.963 57.9867 144.943 57.9233 144.927 57.87C144.91 57.9233 144.89 57.9867 144.867 58.06C144.843 58.13 144.818 58.2 144.792 58.27C144.765 58.34 144.74 58.4033 144.717 58.46L144.012 60.335ZM151.371 63.12C150.934 63.12 150.537 63.0433 150.181 62.89C149.824 62.7367 149.517 62.52 149.261 62.24C149.007 61.9567 148.817 61.6233 148.691 61.24L149.866 60.805C150.016 61.125 150.224 61.3883 150.491 61.595C150.761 61.7983 151.064 61.9 151.401 61.9C151.757 61.9 152.041 61.825 152.251 61.675C152.464 61.525 152.571 61.3067 152.571 61.02C152.571 60.8233 152.507 60.66 152.381 60.53C152.257 60.3967 152.089 60.2833 151.876 60.19C151.666 60.0933 151.427 60 151.161 59.91C150.904 59.8233 150.646 59.7267 150.386 59.62C150.126 59.5133 149.887 59.3833 149.671 59.23C149.454 59.0733 149.279 58.8767 149.146 58.64C149.016 58.4033 148.951 58.1133 148.951 57.77C148.951 57.4267 149.042 57.1117 149.226 56.825C149.409 56.5383 149.674 56.31 150.021 56.14C150.371 55.9667 150.794 55.88 151.291 55.88C151.697 55.88 152.057 55.95 152.371 56.09C152.687 56.2267 152.949 56.4133 153.156 56.65C153.362 56.8867 153.506 57.155 153.586 57.455L152.426 57.84C152.332 57.63 152.189 57.455 151.996 57.315C151.806 57.1717 151.547 57.1 151.221 57.1C150.914 57.1 150.676 57.16 150.506 57.28C150.336 57.4 150.251 57.57 150.251 57.79C150.251 57.94 150.307 58.0683 150.421 58.175C150.537 58.2783 150.692 58.3717 150.886 58.455C151.082 58.5383 151.304 58.6233 151.551 58.71C151.827 58.8033 152.102 58.91 152.376 59.03C152.652 59.1467 152.902 59.29 153.126 59.46C153.352 59.63 153.534 59.8417 153.671 60.095C153.807 60.345 153.876 60.6517 153.876 61.015C153.876 61.4617 153.764 61.8417 153.541 62.155C153.321 62.4683 153.022 62.7083 152.646 62.875C152.269 63.0383 151.844 63.12 151.371 63.12ZM157.889 63.11C157.345 63.11 156.885 63.005 156.509 62.795C156.135 62.585 155.834 62.3067 155.604 61.96C155.377 61.61 155.212 61.2217 155.109 60.795C155.005 60.3683 154.954 59.9367 154.954 59.5C154.954 59.0867 155.005 58.6683 155.109 58.245C155.215 57.8183 155.384 57.4267 155.614 57.07C155.847 56.71 156.15 56.4217 156.524 56.205C156.897 55.9883 157.352 55.88 157.889 55.88C158.332 55.88 158.717 55.955 159.044 56.105C159.37 56.2517 159.64 56.4433 159.854 56.68C160.07 56.9133 160.235 57.1583 160.349 57.415L159.189 57.955C159.075 57.7817 158.959 57.6333 158.839 57.51C158.719 57.3833 158.582 57.2867 158.429 57.22C158.279 57.15 158.099 57.115 157.889 57.115C157.589 57.115 157.337 57.1883 157.134 57.335C156.93 57.4783 156.767 57.6683 156.644 57.905C156.52 58.1417 156.432 58.4 156.379 58.68C156.325 58.96 156.299 59.2333 156.299 59.5C156.299 59.7833 156.329 60.065 156.389 60.345C156.449 60.625 156.544 60.88 156.674 61.11C156.804 61.34 156.969 61.525 157.169 61.665C157.369 61.8017 157.609 61.87 157.889 61.87C158.189 61.87 158.44 61.7867 158.644 61.62C158.85 61.45 159.034 61.2333 159.194 60.97L160.379 61.415C160.229 61.7383 160.04 62.0283 159.814 62.285C159.587 62.5417 159.315 62.7433 158.999 62.89C158.682 63.0367 158.312 63.11 157.889 63.11ZM161.522 63V56H164.707C165.291 56 165.751 56.1017 166.087 56.305C166.427 56.505 166.669 56.77 166.812 57.1C166.959 57.43 167.032 57.785 167.032 58.165C167.032 58.4283 166.981 58.695 166.877 58.965C166.777 59.235 166.624 59.4783 166.417 59.695C166.211 59.9117 165.951 60.0717 165.637 60.175L167.017 63H165.562L164.237 60.35H162.817V63H161.522ZM162.817 59.13H164.727C164.971 59.13 165.162 59.085 165.302 58.995C165.446 58.9017 165.547 58.7817 165.607 58.635C165.667 58.4883 165.697 58.3333 165.697 58.17C165.697 58.0233 165.669 57.8767 165.612 57.73C165.556 57.5833 165.457 57.4617 165.317 57.365C165.177 57.2683 164.981 57.22 164.727 57.22H162.817V59.13ZM168.417 63V56H169.712V63H168.417ZM171.356 63V56H174.311C174.901 56 175.37 56.1083 175.716 56.325C176.063 56.5383 176.311 56.8133 176.461 57.15C176.611 57.4833 176.686 57.8317 176.686 58.195C176.686 58.4483 176.641 58.705 176.551 58.965C176.465 59.2217 176.326 59.4583 176.136 59.675C175.95 59.8883 175.705 60.0617 175.401 60.195C175.101 60.325 174.738 60.39 174.311 60.39H172.651V63H171.356ZM172.651 59.17H174.371C174.611 59.17 174.803 59.1217 174.946 59.025C175.093 58.925 175.198 58.8 175.261 58.65C175.325 58.5 175.356 58.3483 175.356 58.195C175.356 58.055 175.326 57.91 175.266 57.76C175.21 57.6067 175.11 57.4783 174.966 57.375C174.823 57.2717 174.625 57.22 174.371 57.22H172.651V59.17ZM179.273 63V57.245H177.288V56H182.563V57.245H180.568V63H179.273Z" fill="#4C556D"/>
<path d="M255.681 63L254.211 56H255.551L256.311 59.94C256.331 60.0467 256.347 60.1417 256.361 60.225C256.374 60.3083 256.386 60.4 256.396 60.5C256.409 60.4067 256.426 60.315 256.446 60.225C256.466 60.1317 256.489 60.0367 256.516 59.94L257.511 56H258.621L259.621 59.935C259.647 60.0283 259.669 60.12 259.686 60.21C259.702 60.3 259.717 60.3917 259.731 60.485C259.744 60.395 259.757 60.3083 259.771 60.225C259.787 60.1383 259.804 60.05 259.821 59.96L260.616 56H261.951L260.436 63H259.261L258.151 58.8C258.127 58.72 258.107 58.6433 258.091 58.57C258.077 58.4967 258.064 58.4117 258.051 58.315C258.034 58.415 258.017 58.5 258.001 58.57C257.987 58.64 257.971 58.715 257.951 58.795L256.866 63H255.681ZM265.932 63.12C265.372 63.12 264.897 63.015 264.507 62.805C264.117 62.5917 263.802 62.31 263.562 61.96C263.326 61.6067 263.152 61.2167 263.042 60.79C262.932 60.3633 262.877 59.9333 262.877 59.5C262.877 59.0667 262.932 58.6367 263.042 58.21C263.152 57.7833 263.326 57.395 263.562 57.045C263.802 56.6917 264.117 56.41 264.507 56.2C264.897 55.9867 265.372 55.88 265.932 55.88C266.492 55.88 266.966 55.9867 267.352 56.2C267.742 56.41 268.056 56.6917 268.292 57.045C268.532 57.395 268.706 57.7833 268.812 58.21C268.922 58.6367 268.977 59.0667 268.977 59.5C268.977 59.9333 268.922 60.3633 268.812 60.79C268.706 61.2167 268.532 61.6067 268.292 61.96C268.056 62.31 267.742 62.5917 267.352 62.805C266.966 63.015 266.492 63.12 265.932 63.12ZM265.932 61.875C266.246 61.875 266.511 61.8017 266.727 61.655C266.947 61.5083 267.124 61.3167 267.257 61.08C267.391 60.8433 267.487 60.5867 267.547 60.31C267.607 60.03 267.637 59.76 267.637 59.5C267.637 59.22 267.607 58.94 267.547 58.66C267.491 58.3767 267.396 58.12 267.262 57.89C267.132 57.6567 266.957 57.47 266.737 57.33C266.521 57.1867 266.252 57.115 265.932 57.115C265.609 57.115 265.337 57.1883 265.117 57.335C264.901 57.4817 264.726 57.675 264.592 57.915C264.462 58.1517 264.367 58.41 264.307 58.69C264.251 58.9667 264.222 59.2367 264.222 59.5C264.222 59.7767 264.251 60.055 264.307 60.335C264.367 60.615 264.464 60.8717 264.597 61.105C264.734 61.3383 264.911 61.525 265.127 61.665C265.347 61.805 265.616 61.875 265.932 61.875ZM270.325 63V56H273.51C274.093 56 274.553 56.1017 274.89 56.305C275.23 56.505 275.472 56.77 275.615 57.1C275.762 57.43 275.835 57.785 275.835 58.165C275.835 58.4283 275.783 58.695 275.68 58.965C275.58 59.235 275.427 59.4783 275.22 59.695C275.013 59.9117 274.753 60.0717 274.44 60.175L275.82 63H274.365L273.04 60.35H271.62V63H270.325ZM271.62 59.13H273.53C273.773 59.13 273.965 59.085 274.105 58.995C274.248 58.9017 274.35 58.7817 274.41 58.635C274.47 58.4883 274.5 58.3333 274.5 58.17C274.5 58.0233 274.472 57.8767 274.415 57.73C274.358 57.5833 274.26 57.4617 274.12 57.365C273.98 57.2683 273.783 57.22 273.53 57.22H271.62V59.13ZM277.22 63V56H279.58C280.186 56 280.703 56.1 281.13 56.3C281.556 56.4967 281.901 56.7633 282.165 57.1C282.431 57.4333 282.625 57.8083 282.745 58.225C282.868 58.6383 282.93 59.0633 282.93 59.5C282.93 59.9 282.871 60.305 282.755 60.715C282.641 61.125 282.455 61.5033 282.195 61.85C281.935 62.1933 281.586 62.4717 281.15 62.685C280.716 62.895 280.18 63 279.54 63H277.22ZM278.515 61.77H279.675C280.031 61.77 280.331 61.7033 280.575 61.57C280.818 61.4333 281.013 61.255 281.16 61.035C281.31 60.8117 281.418 60.5667 281.485 60.3C281.555 60.03 281.59 59.7633 281.59 59.5C281.59 59.22 281.555 58.945 281.485 58.675C281.415 58.405 281.306 58.16 281.16 57.94C281.013 57.72 280.826 57.545 280.6 57.415C280.373 57.285 280.101 57.22 279.785 57.22H278.515V61.77ZM284.28 63V56H287.235C287.825 56 288.294 56.1083 288.64 56.325C288.987 56.5383 289.235 56.8133 289.385 57.15C289.535 57.4833 289.61 57.8317 289.61 58.195C289.61 58.4483 289.565 58.705 289.475 58.965C289.389 59.2217 289.25 59.4583 289.06 59.675C288.874 59.8883 288.629 60.0617 288.325 60.195C288.025 60.325 287.662 60.39 287.235 60.39H285.575V63H284.28ZM285.575 59.17H287.295C287.535 59.17 287.727 59.1217 287.87 59.025C288.017 58.925 288.122 58.8 288.185 58.65C288.249 58.5 288.28 58.3483 288.28 58.195C288.28 58.055 288.25 57.91 288.19 57.76C288.134 57.6067 288.034 57.4783 287.89 57.375C287.747 57.2717 287.549 57.22 287.295 57.22H285.575V59.17ZM290.686 63V56H293.871C294.455 56 294.915 56.1017 295.251 56.305C295.591 56.505 295.833 56.77 295.976 57.1C296.123 57.43 296.196 57.785 296.196 58.165C296.196 58.4283 296.145 58.695 296.041 58.965C295.941 59.235 295.788 59.4783 295.581 59.695C295.375 59.9117 295.115 60.0717 294.801 60.175L296.181 63H294.726L293.401 60.35H291.981V63H290.686ZM291.981 59.13H293.891C294.135 59.13 294.326 59.085 294.466 58.995C294.61 58.9017 294.711 58.7817 294.771 58.635C294.831 58.4883 294.861 58.3333 294.861 58.17C294.861 58.0233 294.833 57.8767 294.776 57.73C294.72 57.5833 294.621 57.4617 294.481 57.365C294.341 57.2683 294.145 57.22 293.891 57.22H291.981V59.13ZM297.581 63V56H302.311V57.23H298.876V58.77H300.911V60H298.876V61.76H302.521V63H297.581ZM306.004 63.12C305.567 63.12 305.17 63.0433 304.814 62.89C304.457 62.7367 304.15 62.52 303.894 62.24C303.64 61.9567 303.45 61.6233 303.324 61.24L304.499 60.805C304.649 61.125 304.857 61.3883 305.124 61.595C305.394 61.7983 305.697 61.9 306.034 61.9C306.39 61.9 306.674 61.825 306.884 61.675C307.097 61.525 307.204 61.3067 307.204 61.02C307.204 60.8233 307.14 60.66 307.014 60.53C306.89 60.3967 306.722 60.2833 306.509 60.19C306.299 60.0933 306.06 60 305.794 59.91C305.537 59.8233 305.279 59.7267 305.019 59.62C304.759 59.5133 304.52 59.3833 304.304 59.23C304.087 59.0733 303.912 58.8767 303.779 58.64C303.649 58.4033 303.584 58.1133 303.584 57.77C303.584 57.4267 303.675 57.1117 303.859 56.825C304.042 56.5383 304.307 56.31 304.654 56.14C305.004 55.9667 305.427 55.88 305.924 55.88C306.33 55.88 306.69 55.95 307.004 56.09C307.32 56.2267 307.582 56.4133 307.789 56.65C307.995 56.8867 308.139 57.155 308.219 57.455L307.059 57.84C306.965 57.63 306.822 57.455 306.629 57.315C306.439 57.1717 306.18 57.1 305.854 57.1C305.547 57.1 305.309 57.16 305.139 57.28C304.969 57.4 304.884 57.57 304.884 57.79C304.884 57.94 304.94 58.0683 305.054 58.175C305.17 58.2783 305.325 58.3717 305.519 58.455C305.715 58.5383 305.937 58.6233 306.184 58.71C306.46 58.8033 306.735 58.91 307.009 59.03C307.285 59.1467 307.535 59.29 307.759 59.46C307.985 59.63 308.167 59.8417 308.304 60.095C308.44 60.345 308.509 60.6517 308.509 61.015C308.509 61.4617 308.397 61.8417 308.174 62.155C307.954 62.4683 307.655 62.7083 307.279 62.875C306.902 63.0383 306.477 63.12 306.004 63.12ZM312.136 63.12C311.7 63.12 311.303 63.0433 310.946 62.89C310.59 62.7367 310.283 62.52 310.026 62.24C309.773 61.9567 309.583 61.6233 309.456 61.24L310.631 60.805C310.781 61.125 310.99 61.3883 311.256 61.595C311.526 61.7983 311.83 61.9 312.166 61.9C312.523 61.9 312.806 61.825 313.016 61.675C313.23 61.525 313.336 61.3067 313.336 61.02C313.336 60.8233 313.273 60.66 313.146 60.53C313.023 60.3967 312.855 60.2833 312.641 60.19C312.431 60.0933 312.193 60 311.926 59.91C311.67 59.8233 311.411 59.7267 311.151 59.62C310.891 59.5133 310.653 59.3833 310.436 59.23C310.22 59.0733 310.045 58.8767 309.911 58.64C309.781 58.4033 309.716 58.1133 309.716 57.77C309.716 57.4267 309.808 57.1117 309.991 56.825C310.175 56.5383 310.44 56.31 310.786 56.14C311.136 55.9667 311.56 55.88 312.056 55.88C312.463 55.88 312.823 55.95 313.136 56.09C313.453 56.2267 313.715 56.4133 313.921 56.65C314.128 56.8867 314.271 57.155 314.351 57.455L313.191 57.84C313.098 57.63 312.955 57.455 312.761 57.315C312.571 57.1717 312.313 57.1 311.986 57.1C311.68 57.1 311.441 57.16 311.271 57.28C311.101 57.4 311.016 57.57 311.016 57.79C311.016 57.94 311.073 58.0683 311.186 58.175C311.303 58.2783 311.458 58.3717 311.651 58.455C311.848 58.5383 312.07 58.6233 312.316 58.71C312.593 58.8033 312.868 58.91 313.141 59.03C313.418 59.1467 313.668 59.29 313.891 59.46C314.118 59.63 314.3 59.8417 314.436 60.095C314.573 60.345 314.641 60.6517 314.641 61.015C314.641 61.4617 314.53 61.8417 314.306 62.155C314.086 62.4683 313.788 62.7083 313.411 62.875C313.035 63.0383 312.61 63.12 312.136 63.12Z" fill="#4C556D"/>
<path d="M402.619 63.12C402.082 63.12 401.62 63.02 401.234 62.82C400.847 62.6167 400.532 62.3433 400.289 62C400.045 61.6533 399.864 61.265 399.744 60.835C399.627 60.4017 399.569 59.9567 399.569 59.5C399.569 59.0633 399.629 58.6317 399.749 58.205C399.872 57.7783 400.057 57.39 400.304 57.04C400.554 56.69 400.87 56.41 401.254 56.2C401.637 55.9867 402.092 55.88 402.619 55.88C403.065 55.88 403.442 55.95 403.749 56.09C404.059 56.23 404.319 56.4133 404.529 56.64C404.742 56.8633 404.927 57.1 405.084 57.35L403.944 58C403.79 57.7633 403.609 57.5567 403.399 57.38C403.192 57.2033 402.932 57.115 402.619 57.115C402.292 57.115 402.019 57.1883 401.799 57.335C401.582 57.4817 401.409 57.6733 401.279 57.91C401.149 58.1467 401.055 58.405 400.999 58.685C400.942 58.9617 400.914 59.2333 400.914 59.5C400.914 59.8033 400.945 60.0967 401.009 60.38C401.072 60.6633 401.172 60.9183 401.309 61.145C401.445 61.3717 401.622 61.5517 401.839 61.685C402.055 61.815 402.315 61.88 402.619 61.88C402.849 61.88 403.057 61.8283 403.244 61.725C403.434 61.6217 403.584 61.4833 403.694 61.31C403.804 61.1333 403.859 60.935 403.859 60.715V60.585H402.669V59.36H405.194V60.37C405.194 60.9633 405.079 61.465 404.849 61.875C404.622 62.2817 404.314 62.5917 403.924 62.805C403.537 63.015 403.102 63.12 402.619 63.12ZM406.655 63V56H407.95V63H406.655ZM411.125 63V57.245H409.14V56H414.415V57.245H412.42V63H411.125ZM415.591 63V56H416.886V58.775H419.846V56H421.141V63H419.846V60.01H416.886V63H415.591ZM425.528 63.12C424.941 63.12 424.439 63.0117 424.023 62.795C423.609 62.575 423.293 62.2567 423.073 61.84C422.856 61.4233 422.748 60.92 422.748 60.33V56H424.043V60.33C424.043 60.86 424.161 61.25 424.398 61.5C424.634 61.75 425.011 61.875 425.528 61.875C425.854 61.875 426.128 61.8233 426.348 61.72C426.568 61.6167 426.733 61.4517 426.843 61.225C426.953 60.995 427.008 60.6967 427.008 60.33V56H428.308V60.33C428.308 60.8233 428.234 61.2467 428.088 61.6C427.944 61.9533 427.744 62.2433 427.488 62.47C427.234 62.6933 426.939 62.8583 426.603 62.965C426.266 63.0683 425.908 63.12 425.528 63.12ZM429.917 63V56H432.937C433.507 56 433.957 56.0917 434.287 56.275C434.617 56.455 434.852 56.69 434.992 56.98C435.132 57.2667 435.202 57.5667 435.202 57.88C435.202 58.1933 435.134 58.48 434.997 58.74C434.86 58.9967 434.637 59.195 434.327 59.335C434.58 59.425 434.789 59.555 434.952 59.725C435.119 59.8917 435.24 60.0817 435.317 60.295C435.397 60.505 435.437 60.7183 435.437 60.935C435.437 61.1817 435.395 61.4283 435.312 61.675C435.232 61.9183 435.1 62.14 434.917 62.34C434.734 62.54 434.49 62.7 434.187 62.82C433.887 62.94 433.517 63 433.077 63H429.917ZM431.212 61.785H433.162C433.412 61.785 433.607 61.7417 433.747 61.655C433.89 61.5683 433.99 61.46 434.047 61.33C434.107 61.1967 434.137 61.065 434.137 60.935C434.137 60.775 434.102 60.6233 434.032 60.48C433.965 60.3333 433.84 60.2133 433.657 60.12C433.477 60.0267 433.215 59.98 432.872 59.98H431.212V61.785ZM431.212 58.815H432.777C433.157 58.815 433.437 58.7417 433.617 58.595C433.8 58.445 433.892 58.2467 433.892 58C433.892 57.8733 433.869 57.75 433.822 57.63C433.775 57.5067 433.685 57.405 433.552 57.325C433.419 57.245 433.222 57.205 432.962 57.205H431.212V58.815Z" fill="#4C556D"/>
<path d="M5.18254 63V56H8.36754C8.95087 56 9.41087 56.1017 9.74754 56.305C10.0875 56.505 10.3292 56.77 10.4725 57.1C10.6192 57.43 10.6925 57.785 10.6925 58.165C10.6925 58.4283 10.6409 58.695 10.5375 58.965C10.4375 59.235 10.2842 59.4783 10.0775 59.695C9.87087 59.9117 9.61087 60.0717 9.29754 60.175L10.6775 63H9.22254L7.89754 60.35H6.47754V63H5.18254ZM6.47754 59.13H8.38754C8.63087 59.13 8.82254 59.085 8.96254 58.995C9.10587 58.9017 9.20754 58.7817 9.26754 58.635C9.32754 58.4883 9.35754 58.3333 9.35754 58.17C9.35754 58.0233 9.32921 57.8767 9.27254 57.73C9.21587 57.5833 9.11754 57.4617 8.97754 57.365C8.83754 57.2683 8.64087 57.22 8.38754 57.22H6.47754V59.13ZM12.0771 63V56H16.8071V57.23H13.3721V58.77H15.4071V60H13.3721V61.76H17.0171V63H12.0771ZM17.8752 63L20.5402 56H21.7702L24.4452 63H23.0502L22.4952 61.52H19.8202L19.2752 63H17.8752ZM20.2402 60.335H22.0652L21.3652 58.46C21.3419 58.4033 21.3169 58.34 21.2902 58.27C21.2635 58.2 21.2385 58.13 21.2152 58.06C21.1919 57.9867 21.1719 57.9233 21.1552 57.87C21.1385 57.9233 21.1185 57.9867 21.0952 58.06C21.0719 58.13 21.0469 58.2 21.0202 58.27C20.9935 58.34 20.9685 58.4033 20.9452 58.46L20.2402 60.335ZM27.8475 63.11C27.3042 63.11 26.8442 63.005 26.4675 62.795C26.0942 62.585 25.7925 62.3067 25.5625 61.96C25.3359 61.61 25.1709 61.2217 25.0675 60.795C24.9642 60.3683 24.9125 59.9367 24.9125 59.5C24.9125 59.0867 24.9642 58.6683 25.0675 58.245C25.1742 57.8183 25.3425 57.4267 25.5725 57.07C25.8059 56.71 26.1092 56.4217 26.4825 56.205C26.8559 55.9883 27.3109 55.88 27.8475 55.88C28.2909 55.88 28.6759 55.955 29.0025 56.105C29.3292 56.2517 29.5992 56.4433 29.8125 56.68C30.0292 56.9133 30.1942 57.1583 30.3075 57.415L29.1475 57.955C29.0342 57.7817 28.9175 57.6333 28.7975 57.51C28.6775 57.3833 28.5409 57.2867 28.3875 57.22C28.2375 57.15 28.0575 57.115 27.8475 57.115C27.5475 57.115 27.2959 57.1883 27.0925 57.335C26.8892 57.4783 26.7259 57.6683 26.6025 57.905C26.4792 58.1417 26.3909 58.4 26.3375 58.68C26.2842 58.96 26.2575 59.2333 26.2575 59.5C26.2575 59.7833 26.2875 60.065 26.3475 60.345C26.4075 60.625 26.5025 60.88 26.6325 61.11C26.7625 61.34 26.9275 61.525 27.1275 61.665C27.3275 61.8017 27.5675 61.87 27.8475 61.87C28.1475 61.87 28.3992 61.7867 28.6025 61.62C28.8092 61.45 28.9925 61.2333 29.1525 60.97L30.3375 61.415C30.1875 61.7383 29.9992 62.0283 29.7725 62.285C29.5459 62.5417 29.2742 62.7433 28.9575 62.89C28.6409 63.0367 28.2709 63.11 27.8475 63.11ZM32.9918 63V57.245H31.0068V56H36.2818V57.245H34.2868V63H32.9918Z" fill="#4C556D"/>
</svg>
