<svg width="503" height="505" viewBox="0 0 503 505" fill="none" xmlns="http://www.w3.org/2000/svg">
<path d="M83.0982 90.9937C83.0982 94.7804 79.5518 94.6929 79.1768 94.6929H71.9545V87.3991H79.1768C82.9768 87.3991 83.0982 90.2473 83.0982 90.9937ZM78.6205 84.4643C78.6804 84.4643 82.0527 84.5536 82.0527 81.2223C82.0527 79.8366 81.7393 78.0196 78.6205 78.0196H71.9545V84.4643H78.6205ZM97 72.667V99.333C96.9948 101.1 96.2907 102.792 95.0416 104.042C93.7924 105.291 92.0996 105.995 90.333 106H63.667C61.9004 105.995 60.2076 105.291 58.9584 104.042C57.7093 102.792 57.0052 101.1 57 99.333V72.667C57.0052 70.9004 57.7093 69.2076 58.9584 67.9584C60.2076 66.7093 61.9004 66.0052 63.667 66H90.333C92.0996 66.0052 93.7924 66.7093 95.0416 67.9584C96.2907 69.2076 96.9948 70.9004 97 72.667ZM87.183 91.5232C87.183 89.5973 86.5893 86.3188 82.8036 85.5098V85.4446C84.8491 84.5714 86.1375 82.9223 86.1375 80.4768C86.1375 79.8518 86.3161 74.6929 79.2089 74.6929H67.8696V98.0259C79.3188 98.0259 80.358 98.1759 82.4768 97.5161C83.7455 97.1214 87.183 95.9107 87.183 91.5232Z" fill="#4C556D"/>
<path d="M18.865 248.9C18.8462 248.932 18.8275 248.957 18.865 248.9V248.9ZM34.4358 244.369C33.1787 244.369 31.9384 244.61 30.8108 245.073C30.442 244.453 30.0608 243.911 29.9983 243.505C29.9233 243.031 29.842 242.75 29.9295 242.187C30.017 241.625 30.4108 240.828 30.4045 240.771C30.3983 240.713 30.317 240.427 29.5107 240.422C28.7045 240.417 28.0107 240.552 27.9301 240.729C27.7877 241.053 27.6769 241.385 27.5988 241.724C27.4551 242.333 25.987 244.51 25.1557 245.645C24.8807 245.203 24.6494 244.812 24.5994 244.5C24.5244 244.026 24.4432 243.744 24.5307 243.182C24.6182 242.62 25.0119 241.823 25.0057 241.765C24.9994 241.708 24.9182 241.422 24.1126 241.417C23.3069 241.411 22.6125 241.547 22.5313 241.724C22.45 241.901 22.3625 242.318 22.2 242.719C22.0375 243.12 20.0819 246.744 19.57 247.687C19.3075 248.166 19.0825 248.551 18.92 248.812C18.895 248.853 18.8762 248.879 18.8637 248.9C18.8825 248.874 18.895 248.848 18.895 248.859C18.7575 249.083 18.6762 249.208 18.6762 249.208V249.213C18.57 249.379 18.4512 249.53 18.395 249.53C18.3575 249.53 18.2762 249.093 18.4137 248.494C18.7075 247.234 19.4013 245.276 19.395 245.208C19.3888 245.171 19.5263 244.833 18.9387 244.651C18.37 244.479 18.1637 244.765 18.1137 244.765C18.0637 244.765 18.0262 244.869 18.0262 244.869C18.0262 244.869 18.6575 242.661 16.8143 242.661C15.6643 242.661 14.0643 243.713 13.2781 244.666C12.7843 244.89 11.7155 245.375 10.5905 245.89C10.1593 246.088 9.71552 246.291 9.29676 246.484C9.26551 246.458 9.24051 246.432 9.20926 246.406C6.97236 244.416 2.84231 243.01 3.01731 240.339C3.07981 239.365 3.48607 236.808 10.9593 233.704C17.0844 231.162 21.9813 231.86 22.8244 233.412C24.0369 235.625 20.2063 239.745 13.8456 240.339C11.4212 240.562 10.1468 239.781 9.82802 239.49C9.49676 239.182 9.44676 239.167 9.32176 239.224C9.11551 239.318 9.24676 239.589 9.32176 239.75C9.50926 240.161 10.2905 240.891 11.6212 241.255C12.7899 241.573 15.6325 241.75 19.0694 240.641C22.9307 239.401 25.9363 235.948 25.0551 233.058C24.1576 230.121 18.3125 229.157 12.7856 230.792C9.49239 231.766 5.9311 233.297 3.36919 235.292C0.326031 237.667 -0.16085 239.734 0.0391528 240.599C0.751036 243.666 5.82485 245.666 7.85549 247.145C7.75549 247.192 7.66174 247.234 7.57424 247.275C6.5561 247.697 2.68793 249.385 1.7198 251.166C0.626035 253.186 1.90105 254.634 2.73793 254.832C5.34984 255.436 8.02425 254.348 9.46114 252.561C10.898 250.775 10.7237 248.442 10.0611 247.38C10.0549 247.364 10.0424 247.354 10.0361 247.338C10.2986 247.208 10.5674 247.078 10.8362 246.947C11.3543 246.692 11.8605 246.458 12.3043 246.255C12.0543 246.817 11.873 247.494 11.7793 248.473C11.6668 249.619 12.2355 251.103 12.9731 251.687C13.2981 251.942 13.6912 251.947 13.9349 251.947C14.7975 251.947 15.185 251.353 15.6156 250.645C16.1468 249.78 16.6156 248.775 16.6156 248.775C16.6156 248.775 16.0281 251.494 17.6344 251.494C18.2212 251.494 18.8087 250.864 19.0719 250.541V250.546C19.0719 250.546 19.0844 250.525 19.1156 250.484C19.1781 250.405 19.2094 250.359 19.2094 250.359V250.343C19.4469 250.004 19.9656 249.228 20.7463 247.947C21.7588 246.291 22.7269 244.224 22.7269 244.224C22.8205 244.678 22.9499 245.127 23.1144 245.567C23.2894 246.062 23.6582 246.604 23.9519 247.13C23.7144 247.4 23.5707 247.557 23.5707 247.557C23.5711 247.561 23.5734 247.564 23.5769 247.567C23.3894 247.775 23.1769 247.999 22.9582 248.218C22.1588 249.01 21.2081 249.916 21.0831 250.176C20.9331 250.484 20.9706 250.713 21.2582 250.89C21.4707 251.025 21.8457 251.046 22.2388 251.02C22.9575 250.978 23.4638 250.832 23.7076 250.739C24.1569 250.604 24.5816 250.419 24.9694 250.187C25.7507 249.708 26.2257 249.02 26.182 248.114C26.157 247.614 25.9632 247.114 25.7257 246.645C25.7945 246.562 25.8695 246.473 25.9382 246.385C27.1751 244.88 28.1314 243.228 28.1314 243.228C28.2249 243.682 28.3544 244.131 28.5189 244.572C28.6689 244.993 28.962 245.457 29.2307 245.91C28.0689 246.696 27.3501 247.608 27.1001 248.207C26.6376 249.316 27.0001 249.816 27.6814 249.93C27.9876 249.983 28.4251 249.863 28.7501 249.748C29.2328 249.614 29.6879 249.419 30.0995 249.17C30.8808 248.691 31.6364 248.019 31.5864 247.108C31.5676 246.696 31.4301 246.285 31.2489 245.889C32.2302 245.545 33.5045 245.358 35.1296 245.514C38.6096 245.853 39.2909 247.665 39.1596 248.42C39.0284 249.175 38.2971 249.597 38.0533 249.722C37.8096 249.847 37.7346 249.894 37.7533 249.988C37.7846 250.123 37.8971 250.118 38.1034 250.087C38.3909 250.045 39.9277 249.472 39.9965 248.071C40.0965 246.301 38.0533 244.353 34.4339 244.368L34.4358 244.369ZM7.61174 251.905C6.46235 252.952 4.84983 253.348 4.1567 253.015C3.41294 252.654 3.7067 251.114 5.12484 249.998C5.98735 249.321 7.09924 248.696 7.83674 248.311C8.0055 248.227 8.24925 248.102 8.54925 247.951C8.59925 247.925 8.62425 247.915 8.62425 247.915C8.6805 247.884 8.743 247.858 8.8055 247.826C9.32364 249.41 8.82425 250.805 7.61174 251.904V251.905ZM16.0093 247.145C15.6093 247.963 14.7662 250.046 14.2537 249.937C13.8162 249.843 13.5474 248.255 14.1662 246.692C14.4787 245.906 15.1412 244.968 15.535 244.604C16.1656 244.015 16.8593 243.828 17.0219 244.062C17.2406 244.369 16.2593 246.635 16.0093 247.145ZM22.9469 249.905C22.7782 249.978 22.6219 250.025 22.5469 249.989C22.4907 249.963 22.6157 249.864 22.6157 249.864C22.6157 249.864 23.4844 249.088 23.8282 248.734C24.0282 248.525 24.2594 248.281 24.5088 248.01C24.5088 248.036 24.5151 248.062 24.5151 248.093C24.5069 249.025 23.4326 249.655 22.945 249.905H22.9469ZM28.2957 248.89C28.1707 248.817 28.1895 248.572 28.6082 247.812C28.7707 247.515 29.1451 247.015 29.7957 246.536C29.8694 246.717 29.9094 246.907 29.9145 247.098C29.9083 248.27 28.902 248.708 28.2964 248.89H28.2957Z" fill="#4C556D"/>
<path d="M378 63L381.635 100.99L398 106L414.365 100.99L418 63H378ZM410.615 70.6786L410.115 75.2185L398.104 79.9504L398.073 79.96H409.688L408.354 94.031L398.125 96.7857L387.833 93.983L387.167 86.89H392.26L392.594 90.5661L398.073 91.8426L403.771 90.3645L404.156 84.452L386.833 84.404V84.3944L386.812 84.404L386.438 79.96L398.115 75.4777L398.792 75.2185H385.99L385.385 70.6786H410.615Z" fill="#4C556D"/>
<path d="M220.506 459.474C217.124 475.247 231.804 482.787 231.804 482.787C231.804 482.787 234.481 483.082 234.904 482.787C235.327 482.492 235.186 482.05 235.186 482.05V478.217C233.285 478.591 232.268 478.691 230.817 478.07C229.636 477.733 229.035 476.75 227.999 474.532L227.294 473.647C225.91 472.675 225.422 472.227 225.885 471.878H227.153C228.177 472.087 229.078 473.101 230.817 475.269C232.249 476.235 233.28 476.188 235.327 475.564C235.341 474.147 235.583 473.529 236.454 472.763C234.784 472.579 233.79 472.346 231.804 471.436C231.804 471.436 227.717 469.815 227.717 464.213C227.717 458.611 229.69 457.432 229.69 457.432C229.69 457.432 228.944 454.063 229.831 452.125C231.883 451.7 233.07 452.619 235.186 454.189C238.834 452.997 240.991 453.217 244.91 454.189C246.259 453.103 247.297 452.631 249.843 452.125C250.604 454.71 250.507 455.779 249.984 457.432L250.97 458.906C250.97 458.906 252.803 462.149 251.393 467.161C249.984 472.173 243.36 472.763 243.36 472.763C244.314 473.665 244.48 474.433 244.488 476.006V482.05C244.488 482.05 244.629 482.787 245.333 482.934C246.038 483.082 247.363 482.934 247.363 482.934C247.363 482.934 250.631 481.601 253.604 478.893C255.143 477.492 257.765 474.233 259.278 468.795C260.791 463.358 259.558 457.362 258.9 455.784C258.241 454.207 257.031 451.033 250.97 446.463C244.91 441.893 239.608 443.162 238.474 443.162C237.339 443.162 223.888 443.7 220.506 459.474Z" fill="#4C556D"/>
<path d="M93.8394 387.951C89.0605 384.023 79.796 386.166 77.3704 393.115C77.3704 393.115 81.022 388.992 84.6736 390.468C88.3252 391.944 90.2123 395.285 94.8688 396.392C99.5252 397.499 103.895 395.544 107 389.752C102.323 394.378 98.6184 391.878 93.8394 387.951Z" fill="#4C556D"/>
<path d="M79.5724 395.185C73.519 394.248 70.0616 395.542 67 401.092C72.5507 396.209 75.9453 400.582 81.6065 403.617C87.2677 406.652 92.9006 404.618 96.6296 398.24C88.0275 404.473 85.6257 396.122 79.5724 395.185Z" fill="#4C556D"/>
<path d="M475.714 223H444.286C441.92 223 440 224.92 440 227.286V258.714C440 261.08 441.92 263 444.286 263H475.714C478.08 263 480 261.08 480 258.714V227.286C480 224.92 478.08 223 475.714 223ZM461.768 254.196C461.768 258.089 459.482 259.866 456.152 259.866C453.143 259.866 451.402 258.312 450.509 256.429L453.571 254.58C454.161 255.625 454.696 256.509 455.991 256.509C457.223 256.509 458.009 256.027 458.009 254.143V241.366H461.768V254.196ZM470.661 259.866C467.17 259.866 464.911 258.205 463.813 256.027L466.875 254.259C467.679 255.571 468.732 256.545 470.58 256.545C472.134 256.545 473.134 255.768 473.134 254.688C473.134 253.402 472.116 252.946 470.393 252.188L469.455 251.786C466.741 250.634 464.946 249.179 464.946 246.116C464.946 243.295 467.098 241.152 470.446 241.152C472.839 241.152 474.554 241.982 475.786 244.161L472.857 246.036C472.214 244.884 471.518 244.429 470.438 244.429C469.339 244.429 468.643 245.125 468.643 246.036C468.643 247.161 469.339 247.616 470.955 248.321L471.893 248.723C475.089 250.089 476.884 251.491 476.884 254.634C476.884 258.009 474.223 259.866 470.661 259.866Z" fill="#4C556D"/>
<path d="M406.672 389.343C406.25 389.202 405.828 389.069 405.406 388.944C405.477 388.655 405.539 388.366 405.602 388.077C406.562 383.421 405.93 379.679 403.797 378.444C401.742 377.265 398.391 378.491 395 381.444C394.664 381.733 394.336 382.038 394.023 382.343C393.812 382.14 393.594 381.937 393.375 381.741C389.82 378.585 386.258 377.257 384.125 378.499C382.078 379.687 381.469 383.21 382.328 387.616C382.414 388.054 382.508 388.483 382.617 388.921C382.117 389.062 381.625 389.218 381.164 389.382C376.992 390.827 374 393.108 374 395.468C374 397.905 377.188 400.351 381.523 401.835C381.875 401.952 382.227 402.069 382.586 402.171C382.469 402.64 382.367 403.101 382.273 403.577C381.453 407.913 382.094 411.351 384.141 412.53C386.25 413.749 389.797 412.499 393.25 409.476C393.523 409.233 393.797 408.983 394.07 408.718C394.414 409.054 394.773 409.374 395.133 409.687C398.477 412.562 401.781 413.726 403.82 412.546C405.93 411.327 406.617 407.632 405.727 403.132C405.656 402.788 405.578 402.437 405.492 402.077C405.742 402.007 405.984 401.929 406.227 401.851C410.734 400.358 414 397.944 414 395.468C414 393.101 410.922 390.804 406.672 389.343ZM396.102 382.71C399.008 380.179 401.719 379.187 402.953 379.897C404.273 380.655 404.781 383.718 403.953 387.741C403.898 388.007 403.844 388.265 403.773 388.522C402.039 388.132 400.281 387.851 398.516 387.694C397.5 386.241 396.391 384.851 395.188 383.546C395.492 383.257 395.789 382.983 396.102 382.71ZM387.062 399.522C387.461 400.202 387.867 400.882 388.297 401.546C387.078 401.413 385.867 401.218 384.672 400.96C385.016 399.835 385.445 398.671 385.945 397.483C386.305 398.171 386.672 398.851 387.062 399.522ZM384.695 390.124C385.82 389.874 387.016 389.671 388.258 389.515C387.844 390.163 387.438 390.827 387.055 391.499C386.672 392.163 386.297 392.843 385.945 393.53C385.453 392.366 385.039 391.226 384.695 390.124ZM386.836 395.507C387.352 394.429 387.914 393.374 388.508 392.335C389.102 391.296 389.742 390.288 390.414 389.296C391.586 389.21 392.781 389.163 394 389.163C395.219 389.163 396.422 389.21 397.586 389.296C398.25 390.28 398.883 391.288 399.484 392.319C400.086 393.351 400.648 394.405 401.18 395.476C400.656 396.554 400.094 397.616 399.492 398.663C398.898 399.702 398.266 400.71 397.602 401.71C396.438 401.796 395.227 401.835 394 401.835C392.773 401.835 391.586 401.796 390.438 401.726C389.758 400.733 389.117 399.718 388.516 398.679C387.914 397.64 387.359 396.585 386.836 395.507ZM400.945 399.507C401.344 398.819 401.719 398.124 402.086 397.421C402.586 398.554 403.023 399.702 403.406 400.882C402.195 401.155 400.969 401.366 399.734 401.507C400.156 400.851 400.555 400.179 400.945 399.507ZM402.07 393.53C401.703 392.843 401.328 392.155 400.938 391.483C400.555 390.819 400.156 390.163 399.742 389.515C401 389.671 402.203 389.882 403.328 390.14C402.969 391.296 402.547 392.421 402.07 393.53ZM394.016 384.741C394.836 385.632 395.609 386.569 396.328 387.538C394.781 387.468 393.227 387.468 391.68 387.538C392.445 386.53 393.234 385.593 394.016 384.741ZM384.953 379.952C386.266 379.187 389.18 380.28 392.25 382.999C392.445 383.171 392.641 383.358 392.844 383.546C391.633 384.851 390.516 386.241 389.492 387.694C387.727 387.851 385.977 388.124 384.242 388.507C384.141 388.108 384.055 387.702 383.969 387.296C383.234 383.515 383.719 380.663 384.953 379.952ZM383.039 400.546C382.711 400.452 382.391 400.351 382.07 400.241C380.406 399.718 378.516 398.89 377.148 397.804C376.359 397.257 375.828 396.413 375.68 395.468C375.68 394.038 378.148 392.21 381.711 390.968C382.156 390.812 382.609 390.671 383.062 390.538C383.594 392.233 384.234 393.897 384.977 395.507C384.227 397.14 383.578 398.827 383.039 400.546ZM392.148 408.202C390.859 409.382 389.367 410.319 387.742 410.96C386.875 411.374 385.875 411.413 384.984 411.062C383.742 410.343 383.227 407.585 383.93 403.874C384.016 403.437 384.109 402.999 384.219 402.569C385.969 402.944 387.734 403.202 389.523 403.335C390.555 404.796 391.688 406.194 392.898 407.507C392.648 407.749 392.398 407.983 392.148 408.202ZM394.062 406.304C393.266 405.444 392.469 404.491 391.695 403.468C392.445 403.499 393.219 403.515 394 403.515C394.805 403.515 395.594 403.499 396.375 403.46C395.656 404.452 394.883 405.397 394.062 406.304ZM404.273 408.647C404.203 409.601 403.734 410.491 402.984 411.093C401.742 411.812 399.094 410.874 396.234 408.421C395.906 408.14 395.578 407.835 395.242 407.522C396.438 406.202 397.539 404.804 398.539 403.335C400.328 403.187 402.109 402.913 403.867 402.515C403.945 402.835 404.016 403.155 404.078 403.468C404.461 405.155 404.523 406.913 404.273 408.647ZM405.695 400.249C405.477 400.319 405.258 400.39 405.031 400.452C404.484 398.749 403.812 397.085 403.039 395.468C403.789 393.874 404.422 392.233 404.953 390.554C405.359 390.671 405.75 390.796 406.125 390.921C409.766 392.171 412.32 394.03 412.32 395.452C412.32 396.983 409.594 398.96 405.695 400.249ZM394 399.077C395.977 399.077 397.578 397.476 397.578 395.499C397.578 393.522 395.977 391.921 394 391.921C392.023 391.921 390.422 393.522 390.422 395.499C390.422 397.476 392.023 399.077 394 399.077Z" fill="#4C556D"/>
<path d="M220 0L223.635 37.9897L239.948 43L256.365 37.9897L260 0H220ZM252.104 12.2761H232.958L233.385 17.0176H251.677L250.26 31.2614L240.062 33.8529V33.8817H239.948L229.667 31.2614L229.042 23.9859H234.01L234.375 27.6429L239.948 29.0346L245.542 27.6429L246.167 21.6728H228.781L227.448 7.69777H252.562L252.104 12.2761Z" fill="#4C556D"/>
<path d="M219.568 62V50.8H220.96V55.536H226.24V50.8H227.632V62H226.24V56.848H220.96V62H219.568ZM233.109 62V52.128H229.989V50.8H237.621V52.128H234.501V62H233.109ZM244.838 62.192L241.798 55.12C241.718 54.9333 241.633 54.7307 241.542 54.512C241.457 54.288 241.382 54.0853 241.318 53.904C241.334 54.048 241.345 54.24 241.35 54.48C241.361 54.7147 241.366 54.928 241.366 55.12V62H239.974V50.8H241.286L244.55 58.336C244.598 58.4533 244.646 58.576 244.694 58.704C244.742 58.832 244.79 58.96 244.838 59.088C244.881 58.9653 244.926 58.8427 244.974 58.72C245.022 58.592 245.073 58.464 245.126 58.336L248.374 50.8H249.702V62H248.31V55.12C248.31 54.928 248.313 54.712 248.318 54.472C248.329 54.2267 248.337 54.032 248.342 53.888C248.278 54.0693 248.198 54.2773 248.102 54.512C248.012 54.7467 247.926 54.96 247.846 55.152L244.838 62.192ZM252.771 62V50.8H254.163V60.656H259.667V62H252.771Z" fill="#4C556D"/>
<path d="M387.728 125.192C386.88 125.192 386.16 125.027 385.568 124.696C384.976 124.365 384.499 123.923 384.136 123.368C383.773 122.808 383.507 122.184 383.336 121.496C383.171 120.808 383.088 120.109 383.088 119.4C383.088 118.696 383.173 118.003 383.344 117.32C383.52 116.632 383.792 116.008 384.16 115.448C384.528 114.888 385.005 114.443 385.592 114.112C386.184 113.776 386.896 113.608 387.728 113.608C388.416 113.608 388.997 113.707 389.472 113.904C389.952 114.101 390.341 114.355 390.64 114.664C390.944 114.968 391.179 115.288 391.344 115.624L390.096 116.264C389.92 116.003 389.728 115.771 389.52 115.568C389.312 115.36 389.064 115.197 388.776 115.08C388.488 114.963 388.139 114.904 387.728 114.904C387.131 114.904 386.627 115.04 386.216 115.312C385.805 115.584 385.475 115.941 385.224 116.384C384.979 116.827 384.8 117.312 384.688 117.84C384.581 118.368 384.528 118.888 384.528 119.4C384.528 119.955 384.589 120.499 384.712 121.032C384.835 121.565 385.027 122.048 385.288 122.48C385.549 122.907 385.88 123.248 386.28 123.504C386.685 123.755 387.168 123.88 387.728 123.88C388.347 123.88 388.843 123.749 389.216 123.488C389.589 123.221 389.904 122.877 390.16 122.456L391.44 122.936C391.248 123.352 390.987 123.731 390.656 124.072C390.325 124.413 389.917 124.685 389.432 124.888C388.952 125.091 388.384 125.192 387.728 125.192ZM397.113 125.192C396.463 125.192 395.873 125.085 395.345 124.872C394.817 124.653 394.369 124.357 394.001 123.984C393.639 123.605 393.375 123.176 393.209 122.696L394.521 122.216C394.745 122.712 395.084 123.115 395.537 123.424C395.996 123.728 396.532 123.88 397.145 123.88C397.817 123.88 398.353 123.72 398.753 123.4C399.153 123.075 399.353 122.605 399.353 121.992C399.353 121.56 399.233 121.197 398.993 120.904C398.753 120.611 398.441 120.365 398.057 120.168C397.673 119.965 397.263 119.784 396.825 119.624C396.436 119.48 396.047 119.32 395.657 119.144C395.268 118.968 394.913 118.76 394.593 118.52C394.279 118.275 394.025 117.979 393.833 117.632C393.641 117.28 393.545 116.861 393.545 116.376C393.545 115.875 393.681 115.416 393.953 115C394.225 114.579 394.617 114.243 395.129 113.992C395.641 113.736 396.26 113.608 396.985 113.608C397.577 113.608 398.097 113.696 398.545 113.872C398.999 114.043 399.369 114.28 399.657 114.584C399.951 114.883 400.153 115.224 400.265 115.608L398.985 116.04C398.852 115.725 398.607 115.459 398.249 115.24C397.897 115.016 397.444 114.904 396.889 114.904C396.297 114.904 395.831 115.035 395.489 115.296C395.153 115.557 394.985 115.917 394.985 116.376C394.985 116.723 395.097 117.013 395.321 117.248C395.551 117.477 395.849 117.677 396.217 117.848C396.585 118.019 396.98 118.184 397.401 118.344C397.796 118.493 398.191 118.664 398.585 118.856C398.985 119.043 399.351 119.272 399.681 119.544C400.017 119.816 400.287 120.149 400.489 120.544C400.692 120.933 400.793 121.405 400.793 121.96C400.793 122.648 400.633 123.232 400.313 123.712C399.993 124.192 399.556 124.56 399.001 124.816C398.447 125.067 397.817 125.192 397.113 125.192ZM406.691 125.192C406.041 125.192 405.451 125.085 404.923 124.872C404.395 124.653 403.947 124.357 403.579 123.984C403.217 123.605 402.953 123.176 402.787 122.696L404.099 122.216C404.323 122.712 404.662 123.115 405.115 123.424C405.574 123.728 406.11 123.88 406.723 123.88C407.395 123.88 407.931 123.72 408.331 123.4C408.731 123.075 408.931 122.605 408.931 121.992C408.931 121.56 408.811 121.197 408.571 120.904C408.331 120.611 408.019 120.365 407.635 120.168C407.251 119.965 406.841 119.784 406.403 119.624C406.014 119.48 405.625 119.32 405.235 119.144C404.846 118.968 404.491 118.76 404.171 118.52C403.857 118.275 403.603 117.979 403.411 117.632C403.219 117.28 403.123 116.861 403.123 116.376C403.123 115.875 403.259 115.416 403.531 115C403.803 114.579 404.195 114.243 404.707 113.992C405.219 113.736 405.838 113.608 406.563 113.608C407.155 113.608 407.675 113.696 408.123 113.872C408.577 114.043 408.947 114.28 409.235 114.584C409.529 114.883 409.731 115.224 409.843 115.608L408.563 116.04C408.43 115.725 408.185 115.459 407.827 115.24C407.475 115.016 407.022 114.904 406.467 114.904C405.875 114.904 405.409 115.035 405.067 115.296C404.731 115.557 404.563 115.917 404.563 116.376C404.563 116.723 404.675 117.013 404.899 117.248C405.129 117.477 405.427 117.677 405.795 117.848C406.163 118.019 406.558 118.184 406.979 118.344C407.374 118.493 407.769 118.664 408.163 118.856C408.563 119.043 408.929 119.272 409.259 119.544C409.595 119.816 409.865 120.149 410.067 120.544C410.27 120.933 410.371 121.405 410.371 121.96C410.371 122.648 410.211 123.232 409.891 123.712C409.571 124.192 409.134 124.56 408.579 124.816C408.025 125.067 407.395 125.192 406.691 125.192Z" fill="#4C556D"/>
<path d="M425.68 283.192C424.875 283.192 424.205 283.019 423.672 282.672C423.139 282.32 422.731 281.821 422.448 281.176L423.6 280.584C423.819 281.016 424.077 281.341 424.376 281.56C424.68 281.773 425.12 281.88 425.696 281.88C425.963 281.88 426.221 281.845 426.472 281.776C426.723 281.701 426.949 281.573 427.152 281.392C427.36 281.211 427.523 280.957 427.64 280.632C427.763 280.301 427.824 279.88 427.824 279.368V271.8H429.216V279.32C429.216 280.093 429.107 280.731 428.888 281.232C428.675 281.733 428.389 282.128 428.032 282.416C427.68 282.699 427.299 282.899 426.888 283.016C426.477 283.133 426.075 283.192 425.68 283.192ZM434.43 283.192C433.545 283.192 432.849 282.947 432.342 282.456C431.836 281.965 431.582 281.293 431.582 280.44C431.582 279.891 431.708 279.413 431.958 279.008C432.209 278.603 432.564 278.291 433.022 278.072C433.481 277.848 434.02 277.736 434.638 277.736C435.038 277.736 435.412 277.781 435.758 277.872C436.11 277.957 436.441 278.088 436.75 278.264V277.688C436.75 277.053 436.606 276.589 436.318 276.296C436.03 275.997 435.582 275.848 434.974 275.848C434.585 275.848 434.18 275.92 433.758 276.064C433.342 276.208 432.953 276.408 432.59 276.664L432.19 275.496C432.601 275.224 433.068 275.013 433.59 274.864C434.118 274.709 434.638 274.632 435.15 274.632C436.121 274.632 436.849 274.88 437.334 275.376C437.82 275.867 438.062 276.6 438.062 277.576V283H436.75V282.248C436.43 282.552 436.07 282.787 435.67 282.952C435.27 283.112 434.857 283.192 434.43 283.192ZM434.638 281.976C435.017 281.976 435.39 281.883 435.758 281.696C436.132 281.509 436.462 281.245 436.75 280.904V279.496C436.478 279.325 436.169 279.192 435.822 279.096C435.476 279 435.145 278.952 434.83 278.952C434.233 278.952 433.761 279.088 433.414 279.36C433.068 279.627 432.894 279.992 432.894 280.456C432.894 280.925 433.049 281.296 433.358 281.568C433.668 281.84 434.094 281.976 434.638 281.976ZM442.637 283L439.645 274.824H441.053L442.989 280.28C443.037 280.413 443.082 280.544 443.125 280.672C443.168 280.8 443.208 280.936 443.245 281.08C443.288 280.936 443.328 280.8 443.365 280.672C443.408 280.544 443.453 280.413 443.501 280.28L445.405 274.824H446.797L443.805 283H442.637ZM450.696 283.192C449.811 283.192 449.115 282.947 448.608 282.456C448.101 281.965 447.848 281.293 447.848 280.44C447.848 279.891 447.973 279.413 448.224 279.008C448.475 278.603 448.829 278.291 449.288 278.072C449.747 277.848 450.285 277.736 450.904 277.736C451.304 277.736 451.677 277.781 452.024 277.872C452.376 277.957 452.707 278.088 453.016 278.264V277.688C453.016 277.053 452.872 276.589 452.584 276.296C452.296 275.997 451.848 275.848 451.24 275.848C450.851 275.848 450.445 275.92 450.024 276.064C449.608 276.208 449.219 276.408 448.856 276.664L448.456 275.496C448.867 275.224 449.333 275.013 449.856 274.864C450.384 274.709 450.904 274.632 451.416 274.632C452.387 274.632 453.115 274.88 453.6 275.376C454.085 275.867 454.328 276.6 454.328 277.576V283H453.016V282.248C452.696 282.552 452.336 282.787 451.936 282.952C451.536 283.112 451.123 283.192 450.696 283.192ZM450.904 281.976C451.283 281.976 451.656 281.883 452.024 281.696C452.397 281.509 452.728 281.245 453.016 280.904V279.496C452.744 279.325 452.435 279.192 452.088 279.096C451.741 279 451.411 278.952 451.096 278.952C450.499 278.952 450.027 279.088 449.68 279.36C449.333 279.627 449.16 279.992 449.16 280.456C449.16 280.925 449.315 281.296 449.624 281.568C449.933 281.84 450.36 281.976 450.904 281.976ZM460.254 283.192C459.603 283.192 459.014 283.085 458.486 282.872C457.958 282.653 457.51 282.357 457.142 281.984C456.779 281.605 456.515 281.176 456.35 280.696L457.662 280.216C457.886 280.712 458.225 281.115 458.678 281.424C459.137 281.728 459.673 281.88 460.286 281.88C460.958 281.88 461.494 281.72 461.894 281.4C462.294 281.075 462.494 280.605 462.494 279.992C462.494 279.56 462.374 279.197 462.134 278.904C461.894 278.611 461.582 278.365 461.198 278.168C460.814 277.965 460.403 277.784 459.966 277.624C459.577 277.48 459.187 277.32 458.798 277.144C458.409 276.968 458.054 276.76 457.734 276.52C457.419 276.275 457.166 275.979 456.974 275.632C456.782 275.28 456.686 274.861 456.686 274.376C456.686 273.875 456.822 273.416 457.094 273C457.366 272.579 457.758 272.243 458.27 271.992C458.782 271.736 459.401 271.608 460.126 271.608C460.718 271.608 461.238 271.696 461.686 271.872C462.139 272.043 462.51 272.28 462.798 272.584C463.091 272.883 463.294 273.224 463.406 273.608L462.126 274.04C461.993 273.725 461.747 273.459 461.39 273.24C461.038 273.016 460.585 272.904 460.03 272.904C459.438 272.904 458.971 273.035 458.63 273.296C458.294 273.557 458.126 273.917 458.126 274.376C458.126 274.723 458.238 275.013 458.462 275.248C458.691 275.477 458.99 275.677 459.358 275.848C459.726 276.019 460.121 276.184 460.542 276.344C460.937 276.493 461.331 276.664 461.726 276.856C462.126 277.043 462.491 277.272 462.822 277.544C463.158 277.816 463.427 278.149 463.63 278.544C463.833 278.933 463.934 279.405 463.934 279.96C463.934 280.648 463.774 281.232 463.454 281.712C463.134 282.192 462.697 282.56 462.142 282.816C461.587 283.067 460.958 283.192 460.254 283.192ZM468.959 283.192C468.255 283.192 467.649 283.021 467.143 282.68C466.636 282.333 466.247 281.843 465.975 281.208C465.703 280.568 465.567 279.805 465.567 278.92C465.567 278.029 465.705 277.264 465.983 276.624C466.26 275.984 466.655 275.493 467.167 275.152C467.684 274.805 468.303 274.632 469.023 274.632C469.727 274.632 470.324 274.795 470.815 275.12C471.305 275.445 471.663 275.917 471.887 276.536L470.575 277.016C470.441 276.664 470.241 276.395 469.975 276.208C469.713 276.021 469.401 275.928 469.039 275.928C468.377 275.928 467.871 276.184 467.519 276.696C467.167 277.208 466.991 277.949 466.991 278.92C466.991 279.869 467.164 280.6 467.511 281.112C467.857 281.624 468.351 281.88 468.991 281.88C469.401 281.88 469.751 281.773 470.039 281.56C470.332 281.347 470.537 281.048 470.655 280.664L471.951 281.096C471.753 281.768 471.393 282.285 470.871 282.648C470.348 283.011 469.711 283.192 468.959 283.192ZM474.078 283V274.824H475.47V275.896C475.657 275.48 475.913 275.165 476.238 274.952C476.569 274.739 476.958 274.632 477.406 274.632C477.902 274.632 478.323 274.771 478.67 275.048L478.462 276.36C478.286 276.237 478.102 276.149 477.91 276.096C477.723 276.037 477.518 276.008 477.294 276.008C476.926 276.008 476.606 276.107 476.334 276.304C476.062 276.501 475.849 276.779 475.694 277.136C475.545 277.493 475.47 277.912 475.47 278.392V283H474.078ZM480.235 283V274.824H481.627V283H480.235ZM480.923 273.336C480.683 273.336 480.477 273.253 480.307 273.088C480.141 272.917 480.059 272.712 480.059 272.472C480.059 272.221 480.141 272.011 480.307 271.84C480.477 271.664 480.683 271.576 480.923 271.576C481.173 271.576 481.381 271.664 481.547 271.84C481.717 272.011 481.803 272.221 481.803 272.472C481.803 272.712 481.717 272.917 481.547 273.088C481.381 273.253 481.173 273.336 480.923 273.336ZM484.281 286.248V274.824H485.673V275.512C486.26 274.925 486.958 274.632 487.769 274.632C488.462 274.632 489.06 274.805 489.561 275.152C490.068 275.499 490.457 275.992 490.729 276.632C491.006 277.272 491.145 278.029 491.145 278.904C491.145 279.779 491.006 280.539 490.729 281.184C490.452 281.824 490.06 282.32 489.553 282.672C489.052 283.019 488.457 283.192 487.769 283.192C487.337 283.192 486.948 283.115 486.601 282.96C486.254 282.8 485.945 282.557 485.673 282.232V285.592L484.281 286.248ZM487.593 281.896C488.281 281.896 488.806 281.637 489.169 281.12C489.537 280.603 489.721 279.864 489.721 278.904C489.721 277.981 489.529 277.253 489.145 276.72C488.761 276.181 488.244 275.912 487.593 275.912C487.177 275.912 486.804 276.008 486.473 276.2C486.142 276.392 485.876 276.664 485.673 277.016V280.792C485.956 281.16 486.257 281.437 486.577 281.624C486.897 281.805 487.236 281.896 487.593 281.896ZM495.444 283.192C494.884 283.192 494.454 283.024 494.156 282.688C493.862 282.352 493.716 281.869 493.716 281.24V276.04H492.388V274.824H493.716V272.12L495.108 271.448V274.824H497.124V276.04H495.108V280.776C495.108 281.165 495.174 281.451 495.308 281.632C495.446 281.808 495.662 281.896 495.956 281.896C496.329 281.896 496.734 281.752 497.172 281.464L497.012 282.824C496.772 282.952 496.521 283.045 496.26 283.104C496.004 283.163 495.732 283.192 495.444 283.192Z" fill="#4C556D"/>
<path d="M374.568 432V420.8H378.984C379.88 420.8 380.584 420.955 381.096 421.264C381.613 421.573 381.979 421.973 382.192 422.464C382.411 422.949 382.52 423.456 382.52 423.984C382.52 424.427 382.432 424.864 382.256 425.296C382.085 425.723 381.808 426.099 381.424 426.424C381.04 426.749 380.536 426.976 379.912 427.104L382.312 432H380.744L378.44 427.2H375.96V432H374.568ZM375.96 425.904H379.016C379.539 425.904 379.952 425.811 380.256 425.624C380.565 425.437 380.784 425.2 380.912 424.912C381.045 424.624 381.112 424.325 381.112 424.016C381.112 423.739 381.051 423.453 380.928 423.16C380.811 422.861 380.6 422.611 380.296 422.408C379.992 422.2 379.565 422.096 379.016 422.096H375.96V425.904ZM387.714 432.192C386.968 432.192 386.322 432.008 385.778 431.64C385.234 431.272 384.816 430.765 384.522 430.12C384.229 429.475 384.082 428.736 384.082 427.904C384.082 427.003 384.234 426.235 384.538 425.6C384.842 424.96 385.266 424.472 385.81 424.136C386.354 423.8 386.989 423.632 387.714 423.632C388.328 423.632 388.89 423.771 389.402 424.048C389.914 424.32 390.322 424.744 390.626 425.32C390.936 425.891 391.09 426.624 391.09 427.52C391.09 427.648 391.085 427.797 391.074 427.968C391.069 428.133 391.058 428.304 391.042 428.48H385.506C385.56 428.976 385.682 429.411 385.874 429.784C386.066 430.157 386.32 430.451 386.634 430.664C386.949 430.872 387.32 430.976 387.746 430.976C388.093 430.976 388.413 430.915 388.706 430.792C389.005 430.669 389.282 430.48 389.538 430.224L390.354 431.136C390.05 431.44 389.672 431.693 389.218 431.896C388.77 432.093 388.269 432.192 387.714 432.192ZM385.49 427.264H389.682C389.682 426.8 389.605 426.387 389.45 426.024C389.301 425.656 389.08 425.368 388.786 425.16C388.493 424.952 388.136 424.848 387.714 424.848C387.122 424.848 386.613 425.04 386.186 425.424C385.765 425.808 385.533 426.421 385.49 427.264ZM395.462 432.192C394.576 432.192 393.88 431.947 393.374 431.456C392.867 430.965 392.614 430.293 392.614 429.44C392.614 428.891 392.739 428.413 392.99 428.008C393.24 427.603 393.595 427.291 394.054 427.072C394.512 426.848 395.051 426.736 395.67 426.736C396.07 426.736 396.443 426.781 396.79 426.872C397.142 426.957 397.472 427.088 397.782 427.264V426.688C397.782 426.053 397.638 425.589 397.35 425.296C397.062 424.997 396.614 424.848 396.006 424.848C395.616 424.848 395.211 424.92 394.79 425.064C394.374 425.208 393.984 425.408 393.622 425.664L393.222 424.496C393.632 424.224 394.099 424.013 394.622 423.864C395.15 423.709 395.67 423.632 396.182 423.632C397.152 423.632 397.88 423.88 398.366 424.376C398.851 424.867 399.094 425.6 399.094 426.576V432H397.782V431.248C397.462 431.552 397.102 431.787 396.702 431.952C396.302 432.112 395.888 432.192 395.462 432.192ZM395.67 430.976C396.048 430.976 396.422 430.883 396.79 430.696C397.163 430.509 397.494 430.245 397.782 429.904V428.496C397.51 428.325 397.2 428.192 396.854 428.096C396.507 428 396.176 427.952 395.862 427.952C395.264 427.952 394.792 428.088 394.446 428.36C394.099 428.627 393.926 428.992 393.926 429.456C393.926 429.925 394.08 430.296 394.39 430.568C394.699 430.84 395.126 430.976 395.67 430.976ZM404.662 432.192C403.958 432.192 403.353 432.021 402.846 431.68C402.339 431.333 401.95 430.843 401.678 430.208C401.406 429.568 401.27 428.805 401.27 427.92C401.27 427.029 401.409 426.264 401.686 425.624C401.963 424.984 402.358 424.493 402.87 424.152C403.387 423.805 404.006 423.632 404.726 423.632C405.43 423.632 406.027 423.795 406.518 424.12C407.009 424.445 407.366 424.917 407.59 425.536L406.278 426.016C406.145 425.664 405.945 425.395 405.678 425.208C405.417 425.021 405.105 424.928 404.742 424.928C404.081 424.928 403.574 425.184 403.222 425.696C402.87 426.208 402.694 426.949 402.694 427.92C402.694 428.869 402.867 429.6 403.214 430.112C403.561 430.624 404.054 430.88 404.694 430.88C405.105 430.88 405.454 430.773 405.742 430.56C406.035 430.347 406.241 430.048 406.358 429.664L407.654 430.096C407.457 430.768 407.097 431.285 406.574 431.648C406.051 432.011 405.414 432.192 404.662 432.192ZM411.866 432.192C411.306 432.192 410.876 432.024 410.578 431.688C410.284 431.352 410.138 430.869 410.138 430.24V425.04H408.81V423.824H410.138V421.12L411.53 420.448V423.824H413.546V425.04H411.53V429.776C411.53 430.165 411.596 430.451 411.73 430.632C411.868 430.808 412.084 430.896 412.378 430.896C412.751 430.896 413.156 430.752 413.594 430.464L413.434 431.824C413.194 431.952 412.943 432.045 412.682 432.104C412.426 432.163 412.154 432.192 411.866 432.192Z" fill="#4C556D"/>
<path d="M219.84 502.192C218.992 502.192 218.267 502.032 217.664 501.712C217.061 501.387 216.571 500.949 216.192 500.4C215.813 499.845 215.533 499.224 215.352 498.536C215.176 497.843 215.088 497.131 215.088 496.4C215.088 495.675 215.181 494.968 215.368 494.28C215.56 493.592 215.848 492.973 216.232 492.424C216.621 491.869 217.115 491.429 217.712 491.104C218.309 490.773 219.019 490.608 219.84 490.608C220.533 490.608 221.109 490.701 221.568 490.888C222.032 491.075 222.413 491.32 222.712 491.624C223.011 491.923 223.264 492.24 223.472 492.576L222.224 493.296C221.968 492.928 221.661 492.608 221.304 492.336C220.947 492.059 220.459 491.92 219.84 491.92C219.216 491.92 218.691 492.056 218.264 492.328C217.843 492.595 217.504 492.949 217.248 493.392C216.992 493.835 216.808 494.32 216.696 494.848C216.584 495.371 216.528 495.888 216.528 496.4C216.528 496.976 216.592 497.531 216.72 498.064C216.848 498.597 217.045 499.075 217.312 499.496C217.579 499.917 217.92 500.251 218.336 500.496C218.757 500.741 219.259 500.864 219.84 500.864C220.347 500.864 220.787 500.755 221.16 500.536C221.539 500.317 221.832 500.016 222.04 499.632C222.248 499.243 222.352 498.795 222.352 498.288V497.84H220.32V496.56H223.808V497.904C223.808 498.832 223.632 499.616 223.28 500.256C222.933 500.891 222.459 501.373 221.856 501.704C221.259 502.029 220.587 502.192 219.84 502.192ZM226.36 502V493.824H227.752V502H226.36ZM227.048 492.336C226.808 492.336 226.602 492.253 226.432 492.088C226.266 491.917 226.184 491.712 226.184 491.472C226.184 491.221 226.266 491.011 226.432 490.84C226.602 490.664 226.808 490.576 227.048 490.576C227.298 490.576 227.506 490.664 227.672 490.84C227.842 491.011 227.928 491.221 227.928 491.472C227.928 491.712 227.842 491.917 227.672 492.088C227.506 492.253 227.298 492.336 227.048 492.336ZM232.678 502.192C232.118 502.192 231.689 502.024 231.39 501.688C231.097 501.352 230.95 500.869 230.95 500.24V495.04H229.622V493.824H230.95V491.12L232.342 490.448V493.824H234.358V495.04H232.342V499.776C232.342 500.165 232.409 500.451 232.542 500.632C232.681 500.808 232.897 500.896 233.19 500.896C233.563 500.896 233.969 500.752 234.406 500.464L234.246 501.824C234.006 501.952 233.755 502.045 233.494 502.104C233.238 502.163 232.966 502.192 232.678 502.192ZM236.693 502V490.8H238.085V495.536H243.365V490.8H244.757V502H243.365V496.848H238.085V502H236.693ZM250.552 502.192C249.544 502.192 248.795 501.893 248.304 501.296C247.819 500.699 247.576 499.781 247.576 498.544V493.824H248.968V498.752C248.968 499.445 249.12 499.976 249.424 500.344C249.728 500.712 250.163 500.896 250.728 500.896C251.352 500.896 251.821 500.717 252.136 500.36C252.456 500.003 252.616 499.477 252.616 498.784V493.824H254.008V502H252.616V501.216C252.355 501.552 252.059 501.8 251.728 501.96C251.403 502.115 251.011 502.192 250.552 502.192ZM260.16 502.192C259.754 502.192 259.386 502.12 259.056 501.976C258.725 501.832 258.394 501.605 258.064 501.296V502H256.672V491.104L258.064 490.448V494.528C258.32 494.245 258.626 494.027 258.984 493.872C259.346 493.712 259.722 493.632 260.112 493.632C260.805 493.632 261.405 493.805 261.912 494.152C262.418 494.499 262.81 494.992 263.088 495.632C263.365 496.272 263.504 497.029 263.504 497.904C263.504 499.264 263.21 500.32 262.624 501.072C262.037 501.819 261.216 502.192 260.16 502.192ZM259.968 500.896C260.65 500.896 261.173 500.637 261.536 500.12C261.898 499.603 262.08 498.864 262.08 497.904C262.08 496.928 261.898 496.187 261.536 495.68C261.178 495.168 260.656 494.912 259.968 494.912C259.6 494.912 259.237 495.016 258.88 495.224C258.522 495.427 258.25 495.685 258.064 496V499.792C258.266 500.128 258.536 500.397 258.872 500.6C259.213 500.797 259.578 500.896 259.968 500.896Z" fill="#4C556D"/>
<path d="M51.968 424V414.128H48.848V412.8H56.48V414.128H53.36V424H51.968ZM59.9773 424.192C59.0919 424.192 58.3959 423.947 57.8893 423.456C57.3826 422.965 57.1293 422.293 57.1293 421.44C57.1293 420.891 57.2546 420.413 57.5053 420.008C57.7559 419.603 58.1106 419.291 58.5693 419.072C59.0279 418.848 59.5666 418.736 60.1853 418.736C60.5853 418.736 60.9586 418.781 61.3053 418.872C61.6573 418.957 61.9879 419.088 62.2973 419.264V418.688C62.2973 418.053 62.1533 417.589 61.8653 417.296C61.5773 416.997 61.1293 416.848 60.5213 416.848C60.1319 416.848 59.7266 416.92 59.3053 417.064C58.8893 417.208 58.4999 417.408 58.1373 417.664L57.7373 416.496C58.1479 416.224 58.6146 416.013 59.1373 415.864C59.6653 415.709 60.1853 415.632 60.6973 415.632C61.6679 415.632 62.3959 415.88 62.8813 416.376C63.3666 416.867 63.6093 417.6 63.6093 418.576V424H62.2973V423.248C61.9773 423.552 61.6173 423.787 61.2173 423.952C60.8173 424.112 60.4039 424.192 59.9773 424.192ZM60.1853 422.976C60.5639 422.976 60.9373 422.883 61.3053 422.696C61.6786 422.509 62.0093 422.245 62.2973 421.904V420.496C62.0253 420.325 61.7159 420.192 61.3693 420.096C61.0226 420 60.6919 419.952 60.3773 419.952C59.7799 419.952 59.3079 420.088 58.9613 420.36C58.6146 420.627 58.4413 420.992 58.4413 421.456C58.4413 421.925 58.5959 422.296 58.9053 422.568C59.2146 422.84 59.6413 422.976 60.1853 422.976ZM66.0471 424V415.824H67.4391V424H66.0471ZM66.7351 414.336C66.4951 414.336 66.2898 414.253 66.1191 414.088C65.9538 413.917 65.8711 413.712 65.8711 413.472C65.8711 413.221 65.9538 413.011 66.1191 412.84C66.2898 412.664 66.4951 412.576 66.7351 412.576C66.9858 412.576 67.1938 412.664 67.3591 412.84C67.5298 413.011 67.6151 413.221 67.6151 413.472C67.6151 413.712 67.5298 413.917 67.3591 414.088C67.1938 414.253 66.9858 414.336 66.7351 414.336ZM70.1736 424V413.104L71.5656 412.448V424H70.1736ZM75.6491 424L73.5531 415.824H74.9291L76.1771 421.312C76.2145 421.461 76.2465 421.611 76.2731 421.76C76.3051 421.904 76.3318 422.043 76.3531 422.176C76.3798 422.037 76.4118 421.896 76.4491 421.752C76.4865 421.603 76.5238 421.456 76.5611 421.312L78.0971 415.824H79.2491L80.7851 421.312C80.8278 421.472 80.8678 421.627 80.9051 421.776C80.9425 421.92 80.9771 422.064 81.0091 422.208C81.0358 422.069 81.0625 421.925 81.0891 421.776C81.1158 421.627 81.1478 421.472 81.1851 421.312L82.4171 415.824H83.7931L81.6971 424H80.4491L78.9611 419.152C78.9131 418.992 78.8598 418.813 78.8011 418.616C78.7478 418.419 78.6998 418.24 78.6571 418.08C78.6198 418.24 78.5745 418.419 78.5211 418.616C78.4678 418.813 78.4171 418.992 78.3691 419.152L76.8971 424H75.6491ZM85.7346 424V415.824H87.1266V424H85.7346ZM86.4226 414.336C86.1826 414.336 85.9773 414.253 85.8066 414.088C85.6413 413.917 85.5586 413.712 85.5586 413.472C85.5586 413.221 85.6413 413.011 85.8066 412.84C85.9773 412.664 86.1826 412.576 86.4226 412.576C86.6733 412.576 86.8813 412.664 87.0466 412.84C87.2173 413.011 87.3026 413.221 87.3026 413.472C87.3026 413.712 87.2173 413.917 87.0466 414.088C86.8813 414.253 86.6733 414.336 86.4226 414.336ZM89.8611 424V413.104L91.2531 412.448V424H89.8611ZM96.8646 424.192C95.8246 424.192 95.0006 423.808 94.3926 423.04C93.79 422.267 93.4886 421.221 93.4886 419.904C93.4886 419.029 93.6246 418.272 93.8966 417.632C94.174 416.992 94.5633 416.499 95.0646 416.152C95.5713 415.805 96.1713 415.632 96.8646 415.632C97.6646 415.632 98.3526 415.888 98.9286 416.4V413.104L100.321 412.448V424H98.9286V423.36C98.39 423.915 97.702 424.192 96.8646 424.192ZM97.0566 422.896C97.4406 422.896 97.7953 422.8 98.1206 422.608C98.4513 422.416 98.7206 422.144 98.9286 421.792V417.952C98.7206 417.632 98.4513 417.379 98.1206 417.192C97.79 417.005 97.4353 416.912 97.0566 416.912C96.3686 416.912 95.8353 417.171 95.4566 417.688C95.0833 418.205 94.8966 418.944 94.8966 419.904C94.8966 420.496 94.9873 421.016 95.1686 421.464C95.35 421.912 95.6033 422.264 95.9286 422.52C96.254 422.771 96.63 422.896 97.0566 422.896ZM109.631 424.192C108.927 424.192 108.321 424.021 107.815 423.68C107.308 423.333 106.919 422.843 106.647 422.208C106.375 421.568 106.239 420.805 106.239 419.92C106.239 419.029 106.377 418.264 106.655 417.624C106.932 416.984 107.327 416.493 107.839 416.152C108.356 415.805 108.975 415.632 109.695 415.632C110.399 415.632 110.996 415.795 111.487 416.12C111.977 416.445 112.335 416.917 112.559 417.536L111.247 418.016C111.113 417.664 110.913 417.395 110.647 417.208C110.385 417.021 110.073 416.928 109.711 416.928C109.049 416.928 108.543 417.184 108.191 417.696C107.839 418.208 107.663 418.949 107.663 419.92C107.663 420.869 107.836 421.6 108.183 422.112C108.529 422.624 109.023 422.88 109.663 422.88C110.073 422.88 110.423 422.773 110.711 422.56C111.004 422.347 111.209 422.048 111.327 421.664L112.623 422.096C112.425 422.768 112.065 423.285 111.543 423.648C111.02 424.011 110.383 424.192 109.631 424.192ZM116.978 424.192C116.402 424.192 115.848 424.069 115.314 423.824C114.786 423.573 114.354 423.237 114.018 422.816L115.01 421.968C115.298 422.277 115.618 422.517 115.97 422.688C116.322 422.859 116.669 422.944 117.01 422.944C117.49 422.944 117.864 422.853 118.13 422.672C118.397 422.485 118.53 422.229 118.53 421.904C118.53 421.691 118.469 421.499 118.346 421.328C118.229 421.157 118.032 420.995 117.754 420.84C117.482 420.685 117.117 420.523 116.658 420.352C115.757 420.016 115.109 419.651 114.714 419.256C114.325 418.861 114.13 418.373 114.13 417.792C114.13 417.152 114.384 416.632 114.89 416.232C115.402 415.832 116.066 415.632 116.882 415.632C117.442 415.632 117.957 415.739 118.426 415.952C118.896 416.16 119.298 416.464 119.634 416.864L118.674 417.664C118.184 417.141 117.581 416.88 116.866 416.88C116.445 416.88 116.112 416.963 115.866 417.128C115.626 417.288 115.506 417.509 115.506 417.792C115.506 418.064 115.642 418.304 115.914 418.512C116.192 418.715 116.69 418.949 117.41 419.216C117.997 419.429 118.472 419.661 118.834 419.912C119.202 420.163 119.469 420.448 119.634 420.768C119.805 421.088 119.89 421.456 119.89 421.872C119.89 422.592 119.632 423.16 119.114 423.576C118.597 423.987 117.885 424.192 116.978 424.192ZM124.478 424.192C123.902 424.192 123.348 424.069 122.814 423.824C122.286 423.573 121.854 423.237 121.518 422.816L122.51 421.968C122.798 422.277 123.118 422.517 123.47 422.688C123.822 422.859 124.169 422.944 124.51 422.944C124.99 422.944 125.364 422.853 125.63 422.672C125.897 422.485 126.03 422.229 126.03 421.904C126.03 421.691 125.969 421.499 125.846 421.328C125.729 421.157 125.532 420.995 125.254 420.84C124.982 420.685 124.617 420.523 124.158 420.352C123.257 420.016 122.609 419.651 122.214 419.256C121.825 418.861 121.63 418.373 121.63 417.792C121.63 417.152 121.884 416.632 122.39 416.232C122.902 415.832 123.566 415.632 124.382 415.632C124.942 415.632 125.457 415.739 125.926 415.952C126.396 416.16 126.798 416.464 127.134 416.864L126.174 417.664C125.684 417.141 125.081 416.88 124.366 416.88C123.945 416.88 123.612 416.963 123.366 417.128C123.126 417.288 123.006 417.509 123.006 417.792C123.006 418.064 123.142 418.304 123.414 418.512C123.692 418.715 124.19 418.949 124.91 419.216C125.497 419.429 125.972 419.661 126.334 419.912C126.702 420.163 126.969 420.448 127.134 420.768C127.305 421.088 127.39 421.456 127.39 421.872C127.39 422.592 127.132 423.16 126.614 423.576C126.097 423.987 125.385 424.192 124.478 424.192Z" fill="#4C556D"/>
<path d="M6.832 274.192C6.18133 274.192 5.592 274.085 5.064 273.872C4.536 273.653 4.088 273.357 3.72 272.984C3.35733 272.605 3.09333 272.176 2.928 271.696L4.24 271.216C4.464 271.712 4.80267 272.115 5.256 272.424C5.71467 272.728 6.25067 272.88 6.864 272.88C7.536 272.88 8.072 272.72 8.472 272.4C8.872 272.075 9.072 271.605 9.072 270.992C9.072 270.56 8.952 270.197 8.712 269.904C8.472 269.611 8.16 269.365 7.776 269.168C7.392 268.965 6.98133 268.784 6.544 268.624C6.15467 268.48 5.76533 268.32 5.376 268.144C4.98667 267.968 4.632 267.76 4.312 267.52C3.99733 267.275 3.744 266.979 3.552 266.632C3.36 266.28 3.264 265.861 3.264 265.376C3.264 264.875 3.4 264.416 3.672 264C3.944 263.579 4.336 263.243 4.848 262.992C5.36 262.736 5.97867 262.608 6.704 262.608C7.296 262.608 7.816 262.696 8.264 262.872C8.71733 263.043 9.088 263.28 9.376 263.584C9.66933 263.883 9.872 264.224 9.984 264.608L8.704 265.04C8.57067 264.725 8.32533 264.459 7.968 264.24C7.616 264.016 7.16267 263.904 6.608 263.904C6.016 263.904 5.54933 264.035 5.208 264.296C4.872 264.557 4.704 264.917 4.704 265.376C4.704 265.723 4.816 266.013 5.04 266.248C5.26933 266.477 5.568 266.677 5.936 266.848C6.304 267.019 6.69867 267.184 7.12 267.344C7.51467 267.493 7.90933 267.664 8.304 267.856C8.704 268.043 9.06933 268.272 9.4 268.544C9.736 268.816 10.0053 269.149 10.208 269.544C10.4107 269.933 10.512 270.405 10.512 270.96C10.512 271.648 10.352 272.232 10.032 272.712C9.712 273.192 9.27467 273.56 8.72 273.816C8.16533 274.067 7.536 274.192 6.832 274.192ZM15.2741 274.192C14.3888 274.192 13.6928 273.947 13.1861 273.456C12.6795 272.965 12.4261 272.293 12.4261 271.44C12.4261 270.891 12.5515 270.413 12.8021 270.008C13.0528 269.603 13.4075 269.291 13.8661 269.072C14.3248 268.848 14.8635 268.736 15.4821 268.736C15.8821 268.736 16.2555 268.781 16.6021 268.872C16.9541 268.957 17.2848 269.088 17.5941 269.264V268.688C17.5941 268.053 17.4501 267.589 17.1621 267.296C16.8741 266.997 16.4261 266.848 15.8181 266.848C15.4288 266.848 15.0235 266.92 14.6021 267.064C14.1861 267.208 13.7968 267.408 13.4341 267.664L13.0341 266.496C13.4448 266.224 13.9115 266.013 14.4341 265.864C14.9621 265.709 15.4821 265.632 15.9941 265.632C16.9648 265.632 17.6928 265.88 18.1781 266.376C18.6635 266.867 18.9061 267.6 18.9061 268.576V274H17.5941V273.248C17.2741 273.552 16.9141 273.787 16.5141 273.952C16.1141 274.112 15.7008 274.192 15.2741 274.192ZM15.4821 272.976C15.8608 272.976 16.2341 272.883 16.6021 272.696C16.9755 272.509 17.3061 272.245 17.5941 271.904V270.496C17.3221 270.325 17.0128 270.192 16.6661 270.096C16.3195 270 15.9888 269.952 15.6741 269.952C15.0768 269.952 14.6048 270.088 14.2581 270.36C13.9115 270.627 13.7381 270.992 13.7381 271.456C13.7381 271.925 13.8928 272.296 14.2021 272.568C14.5115 272.84 14.9381 272.976 15.4821 272.976ZM23.744 274.192C23.168 274.192 22.6133 274.069 22.08 273.824C21.552 273.573 21.12 273.237 20.784 272.816L21.776 271.968C22.064 272.277 22.384 272.517 22.736 272.688C23.088 272.859 23.4347 272.944 23.776 272.944C24.256 272.944 24.6293 272.853 24.896 272.672C25.1627 272.485 25.296 272.229 25.296 271.904C25.296 271.691 25.2347 271.499 25.112 271.328C24.9947 271.157 24.7973 270.995 24.52 270.84C24.248 270.685 23.8827 270.523 23.424 270.352C22.5227 270.016 21.8747 269.651 21.48 269.256C21.0907 268.861 20.896 268.373 20.896 267.792C20.896 267.152 21.1493 266.632 21.656 266.232C22.168 265.832 22.832 265.632 23.648 265.632C24.208 265.632 24.7227 265.739 25.192 265.952C25.6613 266.16 26.064 266.464 26.4 266.864L25.44 267.664C24.9493 267.141 24.3467 266.88 23.632 266.88C23.2107 266.88 22.8773 266.963 22.632 267.128C22.392 267.288 22.272 267.509 22.272 267.792C22.272 268.064 22.408 268.304 22.68 268.512C22.9573 268.715 23.456 268.949 24.176 269.216C24.7627 269.429 25.2373 269.661 25.6 269.912C25.968 270.163 26.2347 270.448 26.4 270.768C26.5707 271.088 26.656 271.456 26.656 271.872C26.656 272.592 26.3973 273.16 25.88 273.576C25.3627 273.987 24.6507 274.192 23.744 274.192ZM31.244 274.192C30.668 274.192 30.1133 274.069 29.58 273.824C29.052 273.573 28.62 273.237 28.284 272.816L29.276 271.968C29.564 272.277 29.884 272.517 30.236 272.688C30.588 272.859 30.9347 272.944 31.276 272.944C31.756 272.944 32.1293 272.853 32.396 272.672C32.6627 272.485 32.796 272.229 32.796 271.904C32.796 271.691 32.7347 271.499 32.612 271.328C32.4947 271.157 32.2973 270.995 32.02 270.84C31.748 270.685 31.3827 270.523 30.924 270.352C30.0227 270.016 29.3747 269.651 28.98 269.256C28.5907 268.861 28.396 268.373 28.396 267.792C28.396 267.152 28.6493 266.632 29.156 266.232C29.668 265.832 30.332 265.632 31.148 265.632C31.708 265.632 32.2227 265.739 32.692 265.952C33.1613 266.16 33.564 266.464 33.9 266.864L32.94 267.664C32.4493 267.141 31.8467 266.88 31.132 266.88C30.7107 266.88 30.3773 266.963 30.132 267.128C29.892 267.288 29.772 267.509 29.772 267.792C29.772 268.064 29.908 268.304 30.18 268.512C30.4573 268.715 30.956 268.949 31.676 269.216C32.2627 269.429 32.7373 269.661 33.1 269.912C33.468 270.163 33.7347 270.448 33.9 270.768C34.0707 271.088 34.156 271.456 34.156 271.872C34.156 272.592 33.8973 273.16 33.38 273.576C32.8627 273.987 32.1507 274.192 31.244 274.192Z" fill="#4C556D"/>
<path d="M42.568 125V113.8H46.536C47.4213 113.8 48.1173 113.944 48.624 114.232C49.1307 114.515 49.4907 114.883 49.704 115.336C49.9173 115.789 50.024 116.264 50.024 116.76C50.024 117.272 49.88 117.733 49.592 118.144C49.304 118.555 48.8987 118.872 48.376 119.096C48.808 119.229 49.176 119.427 49.48 119.688C49.7893 119.944 50.024 120.251 50.184 120.608C50.344 120.965 50.424 121.357 50.424 121.784C50.424 122.163 50.3627 122.541 50.24 122.92C50.1173 123.299 49.9147 123.645 49.632 123.96C49.3547 124.275 48.9813 124.528 48.512 124.72C48.048 124.907 47.4747 125 46.792 125H42.568ZM43.96 123.72H46.952C47.5013 123.72 47.928 123.629 48.232 123.448C48.536 123.267 48.7467 123.035 48.864 122.752C48.9867 122.469 49.048 122.179 49.048 121.88C49.048 121.523 48.976 121.187 48.832 120.872C48.688 120.557 48.4267 120.304 48.048 120.112C47.6747 119.915 47.1387 119.816 46.44 119.816H43.96V123.72ZM43.96 118.552H46.264C47.0587 118.552 47.6533 118.389 48.048 118.064C48.448 117.739 48.648 117.309 48.648 116.776C48.648 116.504 48.5947 116.237 48.488 115.976C48.3867 115.709 48.1893 115.491 47.896 115.32C47.6027 115.149 47.176 115.064 46.616 115.064H43.96V118.552ZM56.1046 125.192C54.9846 125.192 54.102 124.811 53.4566 124.048C52.8113 123.28 52.4886 122.237 52.4886 120.92C52.4886 120.04 52.6353 119.28 52.9286 118.64C53.222 118 53.638 117.507 54.1766 117.16C54.7206 116.808 55.3633 116.632 56.1046 116.632C56.8513 116.632 57.494 116.805 58.0326 117.152C58.5766 117.493 58.9926 117.984 59.2806 118.624C59.574 119.264 59.7206 120.024 59.7206 120.904C59.7206 121.784 59.574 122.547 59.2806 123.192C58.9873 123.832 58.5686 124.325 58.0246 124.672C57.486 125.019 56.846 125.192 56.1046 125.192ZM56.1046 123.896C56.7926 123.896 57.3313 123.632 57.7206 123.104C58.1153 122.571 58.3126 121.837 58.3126 120.904C58.3126 119.965 58.1153 119.232 57.7206 118.704C57.3313 118.176 56.7926 117.912 56.1046 117.912C55.4113 117.912 54.87 118.176 54.4806 118.704C54.0913 119.227 53.8966 119.965 53.8966 120.92C53.8966 121.853 54.0913 122.584 54.4806 123.112C54.87 123.635 55.4113 123.896 56.1046 123.896ZM65.2765 125.192C64.1565 125.192 63.2738 124.811 62.6285 124.048C61.9832 123.28 61.6605 122.237 61.6605 120.92C61.6605 120.04 61.8072 119.28 62.1005 118.64C62.3938 118 62.8098 117.507 63.3485 117.16C63.8925 116.808 64.5352 116.632 65.2765 116.632C66.0232 116.632 66.6658 116.805 67.2045 117.152C67.7485 117.493 68.1645 117.984 68.4525 118.624C68.7458 119.264 68.8925 120.024 68.8925 120.904C68.8925 121.784 68.7458 122.547 68.4525 123.192C68.1592 123.832 67.7405 124.325 67.1965 124.672C66.6578 125.019 66.0178 125.192 65.2765 125.192ZM65.2765 123.896C65.9645 123.896 66.5032 123.632 66.8925 123.104C67.2872 122.571 67.4845 121.837 67.4845 120.904C67.4845 119.965 67.2872 119.232 66.8925 118.704C66.5032 118.176 65.9645 117.912 65.2765 117.912C64.5832 117.912 64.0418 118.176 63.6525 118.704C63.2632 119.227 63.0685 119.965 63.0685 120.92C63.0685 121.853 63.2632 122.584 63.6525 123.112C64.0418 123.635 64.5832 123.896 65.2765 123.896ZM73.1781 125.192C72.6181 125.192 72.1888 125.024 71.8901 124.688C71.5968 124.352 71.4501 123.869 71.4501 123.24V118.04H70.1221V116.824H71.4501V114.12L72.8421 113.448V116.824H74.8581V118.04H72.8421V122.776C72.8421 123.165 72.9088 123.451 73.0421 123.632C73.1808 123.808 73.3968 123.896 73.6901 123.896C74.0635 123.896 74.4688 123.752 74.9061 123.464L74.7461 124.824C74.5061 124.952 74.2555 125.045 73.9941 125.104C73.7381 125.163 73.4661 125.192 73.1781 125.192ZM79.2284 125.192C78.6524 125.192 78.0977 125.069 77.5644 124.824C77.0364 124.573 76.6044 124.237 76.2684 123.816L77.2604 122.968C77.5484 123.277 77.8684 123.517 78.2204 123.688C78.5724 123.859 78.919 123.944 79.2604 123.944C79.7404 123.944 80.1137 123.853 80.3804 123.672C80.647 123.485 80.7804 123.229 80.7804 122.904C80.7804 122.691 80.719 122.499 80.5964 122.328C80.479 122.157 80.2817 121.995 80.0044 121.84C79.7324 121.685 79.367 121.523 78.9084 121.352C78.007 121.016 77.359 120.651 76.9644 120.256C76.575 119.861 76.3804 119.373 76.3804 118.792C76.3804 118.152 76.6337 117.632 77.1404 117.232C77.6524 116.832 78.3164 116.632 79.1324 116.632C79.6924 116.632 80.207 116.739 80.6764 116.952C81.1457 117.16 81.5484 117.464 81.8844 117.864L80.9244 118.664C80.4337 118.141 79.831 117.88 79.1164 117.88C78.695 117.88 78.3617 117.963 78.1164 118.128C77.8764 118.288 77.7564 118.509 77.7564 118.792C77.7564 119.064 77.8924 119.304 78.1644 119.512C78.4417 119.715 78.9404 119.949 79.6604 120.216C80.247 120.429 80.7217 120.661 81.0844 120.912C81.4524 121.163 81.719 121.448 81.8844 121.768C82.055 122.088 82.1404 122.456 82.1404 122.872C82.1404 123.592 81.8817 124.16 81.3644 124.576C80.847 124.987 80.135 125.192 79.2284 125.192ZM86.4281 125.192C85.8681 125.192 85.4388 125.024 85.1401 124.688C84.8468 124.352 84.7001 123.869 84.7001 123.24V118.04H83.3721V116.824H84.7001V114.12L86.0921 113.448V116.824H88.1081V118.04H86.0921V122.776C86.0921 123.165 86.1588 123.451 86.2921 123.632C86.4308 123.808 86.6468 123.896 86.9401 123.896C87.3135 123.896 87.7188 123.752 88.1561 123.464L87.9961 124.824C87.7561 124.952 87.5055 125.045 87.2441 125.104C86.9881 125.163 86.7161 125.192 86.4281 125.192ZM89.5624 125V116.824H90.9544V117.896C91.141 117.48 91.397 117.165 91.7224 116.952C92.053 116.739 92.4424 116.632 92.8904 116.632C93.3864 116.632 93.8077 116.771 94.1544 117.048L93.9464 118.36C93.7704 118.237 93.5864 118.149 93.3944 118.096C93.2077 118.037 93.0024 118.008 92.7784 118.008C92.4104 118.008 92.0904 118.107 91.8184 118.304C91.5464 118.501 91.333 118.779 91.1784 119.136C91.029 119.493 90.9544 119.912 90.9544 120.392V125H89.5624ZM97.8366 125.192C96.9513 125.192 96.2553 124.947 95.7486 124.456C95.242 123.965 94.9886 123.293 94.9886 122.44C94.9886 121.891 95.114 121.413 95.3646 121.008C95.6153 120.603 95.97 120.291 96.4286 120.072C96.8873 119.848 97.426 119.736 98.0446 119.736C98.4446 119.736 98.818 119.781 99.1646 119.872C99.5166 119.957 99.8473 120.088 100.157 120.264V119.688C100.157 119.053 100.013 118.589 99.7246 118.296C99.4366 117.997 98.9886 117.848 98.3806 117.848C97.9913 117.848 97.586 117.92 97.1646 118.064C96.7486 118.208 96.3593 118.408 95.9966 118.664L95.5966 117.496C96.0073 117.224 96.474 117.013 96.9966 116.864C97.5246 116.709 98.0446 116.632 98.5566 116.632C99.5273 116.632 100.255 116.88 100.741 117.376C101.226 117.867 101.469 118.6 101.469 119.576V125H100.157V124.248C99.8366 124.552 99.4766 124.787 99.0766 124.952C98.6766 125.112 98.2633 125.192 97.8366 125.192ZM98.0446 123.976C98.4233 123.976 98.7966 123.883 99.1646 123.696C99.538 123.509 99.8686 123.245 100.157 122.904V121.496C99.8846 121.325 99.5753 121.192 99.2286 121.096C98.882 121 98.5513 120.952 98.2366 120.952C97.6393 120.952 97.1673 121.088 96.8206 121.36C96.474 121.627 96.3006 121.992 96.3006 122.456C96.3006 122.925 96.4553 123.296 96.7646 123.568C97.074 123.84 97.5006 123.976 98.0446 123.976ZM104.094 128.248V116.824H105.486V117.512C106.072 116.925 106.771 116.632 107.582 116.632C108.275 116.632 108.872 116.805 109.374 117.152C109.88 117.499 110.27 117.992 110.542 118.632C110.819 119.272 110.958 120.029 110.958 120.904C110.958 121.779 110.819 122.539 110.542 123.184C110.264 123.824 109.872 124.32 109.366 124.672C108.864 125.019 108.27 125.192 107.582 125.192C107.15 125.192 106.76 125.115 106.414 124.96C106.067 124.8 105.758 124.557 105.486 124.232V127.592L104.094 128.248ZM107.406 123.896C108.094 123.896 108.619 123.637 108.982 123.12C109.35 122.603 109.534 121.864 109.534 120.904C109.534 119.981 109.342 119.253 108.958 118.72C108.574 118.181 108.056 117.912 107.406 117.912C106.99 117.912 106.616 118.008 106.286 118.2C105.955 118.392 105.688 118.664 105.486 119.016V122.792C105.768 123.16 106.07 123.437 106.39 123.624C106.71 123.805 107.048 123.896 107.406 123.896Z" fill="#4C556D"/>
</svg>
