<svg width="440" height="64" viewBox="0 0 440 64" fill="none" xmlns="http://www.w3.org/2000/svg">
<path d="M398.506 17.4739C395.124 33.2474 409.804 40.7871 409.804 40.7871C409.804 40.7871 412.481 41.0819 412.904 40.7871C413.327 40.4922 413.186 40.05 413.186 40.05V36.2172C411.285 36.5915 410.268 36.6914 408.817 36.0698C407.636 35.7331 407.035 34.7497 405.999 32.5318L405.294 31.6473C403.91 30.6754 403.422 30.2274 403.885 29.8783H405.153C406.177 30.0865 407.078 31.1013 408.817 33.2689C410.249 34.2354 411.28 34.1877 413.327 33.5637C413.341 32.1469 413.583 31.5292 414.454 30.7628C412.784 30.5795 411.79 30.3459 409.804 29.4361C409.804 29.4361 405.717 27.8145 405.717 22.2127C405.717 16.611 407.69 15.4316 407.69 15.4316C407.69 15.4316 406.944 12.0631 407.831 10.1247C409.883 9.70037 411.07 10.619 413.186 12.1885C416.834 10.9968 418.991 11.217 422.91 12.1885C424.259 11.1031 425.297 10.6306 427.843 10.1247C428.604 12.7104 428.507 13.7789 427.984 15.4316L428.97 16.9058C428.97 16.9058 430.803 20.1489 429.393 25.1611C427.984 30.1732 421.36 30.7628 421.36 30.7628C422.314 31.6651 422.48 32.4329 422.488 34.006V40.05C422.488 40.05 422.629 40.7871 423.333 40.9345C424.038 41.0819 425.363 40.9345 425.363 40.9345C425.363 40.9345 428.631 39.601 431.604 36.8933C433.143 35.4919 435.765 32.2326 437.278 26.7952C438.791 21.3578 437.558 15.3616 436.9 13.7842C436.241 12.2069 435.031 9.03284 428.97 4.46297C422.91 -0.106906 417.608 1.16167 416.474 1.16167C415.339 1.16168 401.888 1.7005 398.506 17.4739Z" fill="#A7AFC4"/>
<path d="M404.119 63.12C403.582 63.12 403.12 63.02 402.734 62.82C402.347 62.6167 402.032 62.3433 401.789 62C401.545 61.6533 401.364 61.265 401.244 60.835C401.127 60.4017 401.069 59.9567 401.069 59.5C401.069 59.0633 401.129 58.6317 401.249 58.205C401.372 57.7783 401.557 57.39 401.804 57.04C402.054 56.69 402.37 56.41 402.754 56.2C403.137 55.9867 403.592 55.88 404.119 55.88C404.565 55.88 404.942 55.95 405.249 56.09C405.559 56.23 405.819 56.4133 406.029 56.64C406.242 56.8633 406.427 57.1 406.584 57.35L405.444 58C405.29 57.7633 405.109 57.5567 404.899 57.38C404.692 57.2033 404.432 57.115 404.119 57.115C403.792 57.115 403.519 57.1883 403.299 57.335C403.082 57.4817 402.909 57.6733 402.779 57.91C402.649 58.1467 402.555 58.405 402.499 58.685C402.442 58.9617 402.414 59.2333 402.414 59.5C402.414 59.8033 402.445 60.0967 402.509 60.38C402.572 60.6633 402.672 60.9183 402.809 61.145C402.945 61.3717 403.122 61.5517 403.339 61.685C403.555 61.815 403.815 61.88 404.119 61.88C404.349 61.88 404.557 61.8283 404.744 61.725C404.934 61.6217 405.084 61.4833 405.194 61.31C405.304 61.1333 405.359 60.935 405.359 60.715V60.585H404.169V59.36H406.694V60.37C406.694 60.9633 406.579 61.465 406.349 61.875C406.122 62.2817 405.814 62.5917 405.424 62.805C405.037 63.015 404.602 63.12 404.119 63.12ZM408.155 63V56H409.45V63H408.155ZM412.625 63V57.245H410.64V56H415.915V57.245H413.92V63H412.625ZM417.091 63V56H418.386V58.775H421.346V56H422.641V63H421.346V60.01H418.386V63H417.091ZM427.028 63.12C426.441 63.12 425.939 63.0117 425.523 62.795C425.109 62.575 424.793 62.2567 424.573 61.84C424.356 61.4233 424.248 60.92 424.248 60.33V56H425.543V60.33C425.543 60.86 425.661 61.25 425.898 61.5C426.134 61.75 426.511 61.875 427.028 61.875C427.354 61.875 427.628 61.8233 427.848 61.72C428.068 61.6167 428.233 61.4517 428.343 61.225C428.453 60.995 428.508 60.6967 428.508 60.33V56H429.808V60.33C429.808 60.8233 429.734 61.2467 429.588 61.6C429.444 61.9533 429.244 62.2433 428.988 62.47C428.734 62.6933 428.439 62.8583 428.103 62.965C427.766 63.0683 427.408 63.12 427.028 63.12ZM431.417 63V56H434.437C435.007 56 435.457 56.0917 435.787 56.275C436.117 56.455 436.352 56.69 436.492 56.98C436.632 57.2667 436.702 57.5667 436.702 57.88C436.702 58.1933 436.634 58.48 436.497 58.74C436.36 58.9967 436.137 59.195 435.827 59.335C436.08 59.425 436.289 59.555 436.452 59.725C436.619 59.8917 436.74 60.0817 436.817 60.295C436.897 60.505 436.937 60.7183 436.937 60.935C436.937 61.1817 436.895 61.4283 436.812 61.675C436.732 61.9183 436.6 62.14 436.417 62.34C436.234 62.54 435.99 62.7 435.687 62.82C435.387 62.94 435.017 63 434.577 63H431.417ZM432.712 61.785H434.662C434.912 61.785 435.107 61.7417 435.247 61.655C435.39 61.5683 435.49 61.46 435.547 61.33C435.607 61.1967 435.637 61.065 435.637 60.935C435.637 60.775 435.602 60.6233 435.532 60.48C435.465 60.3333 435.34 60.2133 435.157 60.12C434.977 60.0267 434.715 59.98 434.372 59.98H432.712V61.785ZM432.712 58.815H434.277C434.657 58.815 434.937 58.7417 435.117 58.595C435.3 58.445 435.392 58.2467 435.392 58C435.392 57.8733 435.369 57.75 435.322 57.63C435.275 57.5067 435.185 57.405 435.052 57.325C434.919 57.245 434.722 57.205 434.462 57.205H432.712V58.815Z" fill="#A7AFC4"/>
<path d="M256.681 63L255.211 56H256.551L257.311 59.94C257.331 60.0467 257.347 60.1417 257.361 60.225C257.374 60.3083 257.386 60.4 257.396 60.5C257.409 60.4067 257.426 60.315 257.446 60.225C257.466 60.1317 257.489 60.0367 257.516 59.94L258.511 56H259.621L260.621 59.935C260.647 60.0283 260.669 60.12 260.686 60.21C260.702 60.3 260.717 60.3917 260.731 60.485C260.744 60.395 260.757 60.3083 260.771 60.225C260.787 60.1383 260.804 60.05 260.821 59.96L261.616 56H262.951L261.436 63H260.261L259.151 58.8C259.127 58.72 259.107 58.6433 259.091 58.57C259.077 58.4967 259.064 58.4117 259.051 58.315C259.034 58.415 259.017 58.5 259.001 58.57C258.987 58.64 258.971 58.715 258.951 58.795L257.866 63H256.681ZM266.932 63.12C266.372 63.12 265.897 63.015 265.507 62.805C265.117 62.5917 264.802 62.31 264.562 61.96C264.326 61.6067 264.152 61.2167 264.042 60.79C263.932 60.3633 263.877 59.9333 263.877 59.5C263.877 59.0667 263.932 58.6367 264.042 58.21C264.152 57.7833 264.326 57.395 264.562 57.045C264.802 56.6917 265.117 56.41 265.507 56.2C265.897 55.9867 266.372 55.88 266.932 55.88C267.492 55.88 267.966 55.9867 268.352 56.2C268.742 56.41 269.056 56.6917 269.292 57.045C269.532 57.395 269.706 57.7833 269.812 58.21C269.922 58.6367 269.977 59.0667 269.977 59.5C269.977 59.9333 269.922 60.3633 269.812 60.79C269.706 61.2167 269.532 61.6067 269.292 61.96C269.056 62.31 268.742 62.5917 268.352 62.805C267.966 63.015 267.492 63.12 266.932 63.12ZM266.932 61.875C267.246 61.875 267.511 61.8017 267.727 61.655C267.947 61.5083 268.124 61.3167 268.257 61.08C268.391 60.8433 268.487 60.5867 268.547 60.31C268.607 60.03 268.637 59.76 268.637 59.5C268.637 59.22 268.607 58.94 268.547 58.66C268.491 58.3767 268.396 58.12 268.262 57.89C268.132 57.6567 267.957 57.47 267.737 57.33C267.521 57.1867 267.252 57.115 266.932 57.115C266.609 57.115 266.337 57.1883 266.117 57.335C265.901 57.4817 265.726 57.675 265.592 57.915C265.462 58.1517 265.367 58.41 265.307 58.69C265.251 58.9667 265.222 59.2367 265.222 59.5C265.222 59.7767 265.251 60.055 265.307 60.335C265.367 60.615 265.464 60.8717 265.597 61.105C265.734 61.3383 265.911 61.525 266.127 61.665C266.347 61.805 266.616 61.875 266.932 61.875ZM271.325 63V56H274.51C275.093 56 275.553 56.1017 275.89 56.305C276.23 56.505 276.472 56.77 276.615 57.1C276.762 57.43 276.835 57.785 276.835 58.165C276.835 58.4283 276.783 58.695 276.68 58.965C276.58 59.235 276.427 59.4783 276.22 59.695C276.013 59.9117 275.753 60.0717 275.44 60.175L276.82 63H275.365L274.04 60.35H272.62V63H271.325ZM272.62 59.13H274.53C274.773 59.13 274.965 59.085 275.105 58.995C275.248 58.9017 275.35 58.7817 275.41 58.635C275.47 58.4883 275.5 58.3333 275.5 58.17C275.5 58.0233 275.472 57.8767 275.415 57.73C275.358 57.5833 275.26 57.4617 275.12 57.365C274.98 57.2683 274.783 57.22 274.53 57.22H272.62V59.13ZM278.22 63V56H280.58C281.186 56 281.703 56.1 282.13 56.3C282.556 56.4967 282.901 56.7633 283.165 57.1C283.431 57.4333 283.625 57.8083 283.745 58.225C283.868 58.6383 283.93 59.0633 283.93 59.5C283.93 59.9 283.871 60.305 283.755 60.715C283.641 61.125 283.455 61.5033 283.195 61.85C282.935 62.1933 282.586 62.4717 282.15 62.685C281.716 62.895 281.18 63 280.54 63H278.22ZM279.515 61.77H280.675C281.031 61.77 281.331 61.7033 281.575 61.57C281.818 61.4333 282.013 61.255 282.16 61.035C282.31 60.8117 282.418 60.5667 282.485 60.3C282.555 60.03 282.59 59.7633 282.59 59.5C282.59 59.22 282.555 58.945 282.485 58.675C282.415 58.405 282.306 58.16 282.16 57.94C282.013 57.72 281.826 57.545 281.6 57.415C281.373 57.285 281.101 57.22 280.785 57.22H279.515V61.77ZM285.28 63V56H288.235C288.825 56 289.294 56.1083 289.64 56.325C289.987 56.5383 290.235 56.8133 290.385 57.15C290.535 57.4833 290.61 57.8317 290.61 58.195C290.61 58.4483 290.565 58.705 290.475 58.965C290.389 59.2217 290.25 59.4583 290.06 59.675C289.874 59.8883 289.629 60.0617 289.325 60.195C289.025 60.325 288.662 60.39 288.235 60.39H286.575V63H285.28ZM286.575 59.17H288.295C288.535 59.17 288.727 59.1217 288.87 59.025C289.017 58.925 289.122 58.8 289.185 58.65C289.249 58.5 289.28 58.3483 289.28 58.195C289.28 58.055 289.25 57.91 289.19 57.76C289.134 57.6067 289.034 57.4783 288.89 57.375C288.747 57.2717 288.549 57.22 288.295 57.22H286.575V59.17ZM291.686 63V56H294.871C295.455 56 295.915 56.1017 296.251 56.305C296.591 56.505 296.833 56.77 296.976 57.1C297.123 57.43 297.196 57.785 297.196 58.165C297.196 58.4283 297.145 58.695 297.041 58.965C296.941 59.235 296.788 59.4783 296.581 59.695C296.375 59.9117 296.115 60.0717 295.801 60.175L297.181 63H295.726L294.401 60.35H292.981V63H291.686ZM292.981 59.13H294.891C295.135 59.13 295.326 59.085 295.466 58.995C295.61 58.9017 295.711 58.7817 295.771 58.635C295.831 58.4883 295.861 58.3333 295.861 58.17C295.861 58.0233 295.833 57.8767 295.776 57.73C295.72 57.5833 295.621 57.4617 295.481 57.365C295.341 57.2683 295.145 57.22 294.891 57.22H292.981V59.13ZM298.581 63V56H303.311V57.23H299.876V58.77H301.911V60H299.876V61.76H303.521V63H298.581ZM307.004 63.12C306.567 63.12 306.17 63.0433 305.814 62.89C305.457 62.7367 305.15 62.52 304.894 62.24C304.64 61.9567 304.45 61.6233 304.324 61.24L305.499 60.805C305.649 61.125 305.857 61.3883 306.124 61.595C306.394 61.7983 306.697 61.9 307.034 61.9C307.39 61.9 307.674 61.825 307.884 61.675C308.097 61.525 308.204 61.3067 308.204 61.02C308.204 60.8233 308.14 60.66 308.014 60.53C307.89 60.3967 307.722 60.2833 307.509 60.19C307.299 60.0933 307.06 60 306.794 59.91C306.537 59.8233 306.279 59.7267 306.019 59.62C305.759 59.5133 305.52 59.3833 305.304 59.23C305.087 59.0733 304.912 58.8767 304.779 58.64C304.649 58.4033 304.584 58.1133 304.584 57.77C304.584 57.4267 304.675 57.1117 304.859 56.825C305.042 56.5383 305.307 56.31 305.654 56.14C306.004 55.9667 306.427 55.88 306.924 55.88C307.33 55.88 307.69 55.95 308.004 56.09C308.32 56.2267 308.582 56.4133 308.789 56.65C308.995 56.8867 309.139 57.155 309.219 57.455L308.059 57.84C307.965 57.63 307.822 57.455 307.629 57.315C307.439 57.1717 307.18 57.1 306.854 57.1C306.547 57.1 306.309 57.16 306.139 57.28C305.969 57.4 305.884 57.57 305.884 57.79C305.884 57.94 305.94 58.0683 306.054 58.175C306.17 58.2783 306.325 58.3717 306.519 58.455C306.715 58.5383 306.937 58.6233 307.184 58.71C307.46 58.8033 307.735 58.91 308.009 59.03C308.285 59.1467 308.535 59.29 308.759 59.46C308.985 59.63 309.167 59.8417 309.304 60.095C309.44 60.345 309.509 60.6517 309.509 61.015C309.509 61.4617 309.397 61.8417 309.174 62.155C308.954 62.4683 308.655 62.7083 308.279 62.875C307.902 63.0383 307.477 63.12 307.004 63.12ZM313.136 63.12C312.7 63.12 312.303 63.0433 311.946 62.89C311.59 62.7367 311.283 62.52 311.026 62.24C310.773 61.9567 310.583 61.6233 310.456 61.24L311.631 60.805C311.781 61.125 311.99 61.3883 312.256 61.595C312.526 61.7983 312.83 61.9 313.166 61.9C313.523 61.9 313.806 61.825 314.016 61.675C314.23 61.525 314.336 61.3067 314.336 61.02C314.336 60.8233 314.273 60.66 314.146 60.53C314.023 60.3967 313.855 60.2833 313.641 60.19C313.431 60.0933 313.193 60 312.926 59.91C312.67 59.8233 312.411 59.7267 312.151 59.62C311.891 59.5133 311.653 59.3833 311.436 59.23C311.22 59.0733 311.045 58.8767 310.911 58.64C310.781 58.4033 310.716 58.1133 310.716 57.77C310.716 57.4267 310.808 57.1117 310.991 56.825C311.175 56.5383 311.44 56.31 311.786 56.14C312.136 55.9667 312.56 55.88 313.056 55.88C313.463 55.88 313.823 55.95 314.136 56.09C314.453 56.2267 314.715 56.4133 314.921 56.65C315.128 56.8867 315.271 57.155 315.351 57.455L314.191 57.84C314.098 57.63 313.955 57.455 313.761 57.315C313.571 57.1717 313.313 57.1 312.986 57.1C312.68 57.1 312.441 57.16 312.271 57.28C312.101 57.4 312.016 57.57 312.016 57.79C312.016 57.94 312.073 58.0683 312.186 58.175C312.303 58.2783 312.458 58.3717 312.651 58.455C312.848 58.5383 313.07 58.6233 313.316 58.71C313.593 58.8033 313.868 58.91 314.141 59.03C314.418 59.1467 314.668 59.29 314.891 59.46C315.118 59.63 315.3 59.8417 315.436 60.095C315.573 60.345 315.641 60.6517 315.641 61.015C315.641 61.4617 315.53 61.8417 315.306 62.155C315.086 62.4683 314.788 62.7083 314.411 62.875C314.035 63.0383 313.61 63.12 313.136 63.12Z" fill="#A7AFC4"/>
<path d="M266.871 15.0983C264.635 25.4464 266.5 30.4433 274.871 38.0983L266.871 15.0983Z" fill="#A7AFC4"/>
<path d="M283.871 18.5983L279.657 30.3019C279.562 30.5678 279.185 30.5659 279.092 30.2991L271.871 9.59833L271.871 9.09818H274.121C274.535 9.09818 274.871 8.76243 274.871 8.34826C274.871 7.93409 274.535 7.59833 274.121 7.59833H271.371C279.497 0.0696735 285.871 -0.901815 296.371 4.09833C296.371 4.09833 292.371 6.59833 295.871 11.0983C299.371 15.5983 298.678 22.7257 294.871 33.0983L287.371 9.09833H289.621C290.035 9.09833 290.371 8.76255 290.371 8.34833C290.371 7.93412 290.035 7.59833 289.621 7.59833H278.871C278.318 7.59833 277.871 8.04605 277.871 8.59833C277.871 9.15062 278.318 9.59833 278.871 9.59833H280.371L283.871 18.5983Z" fill="#A7AFC4"/>
<path d="M284.871 21.5982L278.871 39.5982C283.735 42.0336 286.473 41.9215 291.371 40.0984L284.871 21.5982Z" fill="#A7AFC4"/>
<path d="M302.871 11.0983C302.984 20.5756 299.278 27.5861 294.871 39.0984C294.871 39.0984 302.635 36.0984 304.871 26.5984C307.106 17.0984 302.871 11.0983 302.871 11.0983Z" fill="#A7AFC4"/>
<path d="M168.161 7.8L163.556 10.8462C163.556 10.8462 162.743 9.73844 161.66 8.90767C160.576 8.0769 159.222 8.35383 159.222 8.35383C159.222 8.35383 156.513 8.90767 156.784 11.1231C157.055 13.3384 159.764 14.4461 159.764 14.4461L161.66 15.2769C161.66 15.2769 165.452 16.6615 168.161 19.4308C170.869 22.2 169.786 26.9077 169.786 26.9077C169.786 26.9077 168.432 33 159.764 33C151.096 33 149.2 27.1846 149.2 27.1846L153.805 24.4154C154.801 26.6472 155.736 27.6646 159.764 28.0154C159.764 28.0154 164.098 27.4615 163.827 24.4154C163.556 21.3692 158.951 20.8154 158.951 20.8154C155.159 19.7077 152.18 16.1077 152.18 16.1077C152.18 16.1077 150.283 13.0615 151.096 8.63075C151.909 4.19998 155.972 3.36922 155.972 3.36922C155.972 3.36922 160.306 2.53847 162.743 3.36923C165.181 4.19999 166.649 5.16352 168.161 7.8Z" fill="#A7AFC4"/>
<path d="M148.4 3H141.988V23.367C141.988 23.367 142.545 27.4954 139.2 27.4954C135.855 27.4954 134.739 24.1927 134.739 24.1927L130 27.4954C130 27.4954 131.952 33 139.2 33C146.448 33 147.842 27.4954 147.842 27.4954L148.4 25.0183V3Z" fill="#A7AFC4"/>
<path d="M126.001 62.12C125.501 62.12 125.051 61.985 124.651 61.715C124.251 61.445 123.945 61.07 123.731 60.59L124.851 60.065C124.991 60.3217 125.15 60.5217 125.326 60.665C125.503 60.805 125.73 60.875 126.006 60.875C126.143 60.875 126.273 60.855 126.396 60.815C126.52 60.775 126.631 60.7067 126.731 60.61C126.835 60.5133 126.915 60.3783 126.971 60.205C127.031 60.0283 127.061 59.8033 127.061 59.53V55H128.361V59.585C128.361 60.0817 128.29 60.495 128.146 60.825C128.003 61.1517 127.813 61.41 127.576 61.6C127.343 61.7867 127.088 61.92 126.811 62C126.538 62.08 126.268 62.12 126.001 62.12ZM129.135 62L131.8 55H133.03L135.705 62H134.31L133.755 60.52H131.08L130.535 62H129.135ZM131.5 59.335H133.325L132.625 57.46C132.602 57.4033 132.577 57.34 132.55 57.27C132.523 57.2 132.498 57.13 132.475 57.06C132.452 56.9867 132.432 56.9233 132.415 56.87C132.398 56.9233 132.378 56.9867 132.355 57.06C132.332 57.13 132.307 57.2 132.28 57.27C132.253 57.34 132.228 57.4033 132.205 57.46L131.5 59.335ZM137.832 62L135.347 55H136.747L138.312 59.635C138.335 59.705 138.358 59.7783 138.382 59.855C138.408 59.9283 138.43 59.9967 138.447 60.06C138.457 60.0033 138.472 59.9383 138.492 59.865C138.515 59.7883 138.54 59.7117 138.567 59.635L140.122 55H141.507L139.032 62H137.832ZM141.147 62L143.812 55H145.042L147.717 62H146.322L145.767 60.52H143.092L142.547 62H141.147ZM143.512 59.335H145.337L144.637 57.46C144.613 57.4033 144.588 57.34 144.562 57.27C144.535 57.2 144.51 57.13 144.487 57.06C144.463 56.9867 144.443 56.9233 144.427 56.87C144.41 56.9233 144.39 56.9867 144.367 57.06C144.343 57.13 144.318 57.2 144.292 57.27C144.265 57.34 144.24 57.4033 144.217 57.46L143.512 59.335ZM150.871 62.12C150.434 62.12 150.037 62.0433 149.681 61.89C149.324 61.7367 149.017 61.52 148.761 61.24C148.507 60.9567 148.317 60.6233 148.191 60.24L149.366 59.805C149.516 60.125 149.724 60.3883 149.991 60.595C150.261 60.7983 150.564 60.9 150.901 60.9C151.257 60.9 151.541 60.825 151.751 60.675C151.964 60.525 152.071 60.3067 152.071 60.02C152.071 59.8233 152.007 59.66 151.881 59.53C151.757 59.3967 151.589 59.2833 151.376 59.19C151.166 59.0933 150.927 59 150.661 58.91C150.404 58.8233 150.146 58.7267 149.886 58.62C149.626 58.5133 149.387 58.3833 149.171 58.23C148.954 58.0733 148.779 57.8767 148.646 57.64C148.516 57.4033 148.451 57.1133 148.451 56.77C148.451 56.4267 148.542 56.1117 148.726 55.825C148.909 55.5383 149.174 55.31 149.521 55.14C149.871 54.9667 150.294 54.88 150.791 54.88C151.197 54.88 151.557 54.95 151.871 55.09C152.187 55.2267 152.449 55.4133 152.656 55.65C152.862 55.8867 153.006 56.155 153.086 56.455L151.926 56.84C151.832 56.63 151.689 56.455 151.496 56.315C151.306 56.1717 151.047 56.1 150.721 56.1C150.414 56.1 150.176 56.16 150.006 56.28C149.836 56.4 149.751 56.57 149.751 56.79C149.751 56.94 149.807 57.0683 149.921 57.175C150.037 57.2783 150.192 57.3717 150.386 57.455C150.582 57.5383 150.804 57.6233 151.051 57.71C151.327 57.8033 151.602 57.91 151.876 58.03C152.152 58.1467 152.402 58.29 152.626 58.46C152.852 58.63 153.034 58.8417 153.171 59.095C153.307 59.345 153.376 59.6517 153.376 60.015C153.376 60.4617 153.264 60.8417 153.041 61.155C152.821 61.4683 152.522 61.7083 152.146 61.875C151.769 62.0383 151.344 62.12 150.871 62.12ZM157.389 62.11C156.845 62.11 156.385 62.005 156.009 61.795C155.635 61.585 155.334 61.3067 155.104 60.96C154.877 60.61 154.712 60.2217 154.609 59.795C154.505 59.3683 154.454 58.9367 154.454 58.5C154.454 58.0867 154.505 57.6683 154.609 57.245C154.715 56.8183 154.884 56.4267 155.114 56.07C155.347 55.71 155.65 55.4217 156.024 55.205C156.397 54.9883 156.852 54.88 157.389 54.88C157.832 54.88 158.217 54.955 158.544 55.105C158.87 55.2517 159.14 55.4433 159.354 55.68C159.57 55.9133 159.735 56.1583 159.849 56.415L158.689 56.955C158.575 56.7817 158.459 56.6333 158.339 56.51C158.219 56.3833 158.082 56.2867 157.929 56.22C157.779 56.15 157.599 56.115 157.389 56.115C157.089 56.115 156.837 56.1883 156.634 56.335C156.43 56.4783 156.267 56.6683 156.144 56.905C156.02 57.1417 155.932 57.4 155.879 57.68C155.825 57.96 155.799 58.2333 155.799 58.5C155.799 58.7833 155.829 59.065 155.889 59.345C155.949 59.625 156.044 59.88 156.174 60.11C156.304 60.34 156.469 60.525 156.669 60.665C156.869 60.8017 157.109 60.87 157.389 60.87C157.689 60.87 157.94 60.7867 158.144 60.62C158.35 60.45 158.534 60.2333 158.694 59.97L159.879 60.415C159.729 60.7383 159.54 61.0283 159.314 61.285C159.087 61.5417 158.815 61.7433 158.499 61.89C158.182 62.0367 157.812 62.11 157.389 62.11ZM161.022 62V55H164.207C164.791 55 165.251 55.1017 165.587 55.305C165.927 55.505 166.169 55.77 166.312 56.1C166.459 56.43 166.532 56.785 166.532 57.165C166.532 57.4283 166.481 57.695 166.377 57.965C166.277 58.235 166.124 58.4783 165.917 58.695C165.711 58.9117 165.451 59.0717 165.137 59.175L166.517 62H165.062L163.737 59.35H162.317V62H161.022ZM162.317 58.13H164.227C164.471 58.13 164.662 58.085 164.802 57.995C164.946 57.9017 165.047 57.7817 165.107 57.635C165.167 57.4883 165.197 57.3333 165.197 57.17C165.197 57.0233 165.169 56.8767 165.112 56.73C165.056 56.5833 164.957 56.4617 164.817 56.365C164.677 56.2683 164.481 56.22 164.227 56.22H162.317V58.13ZM167.917 62V55H169.212V62H167.917ZM170.856 62V55H173.811C174.401 55 174.87 55.1083 175.216 55.325C175.563 55.5383 175.811 55.8133 175.961 56.15C176.111 56.4833 176.186 56.8317 176.186 57.195C176.186 57.4483 176.141 57.705 176.051 57.965C175.965 58.2217 175.826 58.4583 175.636 58.675C175.45 58.8883 175.205 59.0617 174.901 59.195C174.601 59.325 174.238 59.39 173.811 59.39H172.151V62H170.856ZM172.151 58.17H173.871C174.111 58.17 174.303 58.1217 174.446 58.025C174.593 57.925 174.698 57.8 174.761 57.65C174.825 57.5 174.856 57.3483 174.856 57.195C174.856 57.055 174.826 56.91 174.766 56.76C174.71 56.6067 174.61 56.4783 174.466 56.375C174.323 56.2717 174.125 56.22 173.871 56.22H172.151V58.17ZM178.773 62V56.245H176.788V55H182.063V56.245H180.068V62H178.773Z" fill="#A7AFC4"/>
<path d="M9.79694 13.3638C9.79694 13.3638 7.18917 2.88347 11.0487 1.2622C14.9082 -0.359062 20.4366 6.0681 20.4366 6.0681M9.79694 13.3638C9.79694 13.3638 24.3483 48.3947 32.0673 39.304C35.7322 34.9879 33.2951 27.278 29.7242 20.37M9.79694 13.3638C9.79694 13.3638 1.71287 15.9115 1.03485 20.37C0.35683 24.8285 9.79694 27.5952 9.79694 27.5952M9.79694 13.3638C9.79694 13.3638 40.2035 7.74726 40.9859 20.37C41.7682 32.9927 9.79694 27.5952 9.79694 27.5952M20.4366 6.0681C20.4366 6.0681 25.7565 0.104161 30.5548 1.2622C35.3531 2.42025 29.7242 20.37 29.7242 20.37M20.4366 6.0681C20.4366 6.0681 25.7741 12.7284 29.7242 20.37M20.4366 6.0681C20.4366 6.0681 12.9824 17.7072 9.79694 27.5952M29.7242 20.37C29.7242 20.37 18.0375 46.1944 10.3185 40.0568C7.58949 37.8869 8.05483 33.0029 9.79694 27.5952" stroke="#A7AFC4" stroke-width="1.5"/>
<ellipse cx="20.9582" cy="20.5436" rx="3.65088" ry="4.05316" fill="#A7AFC4"/>
<path d="M6.18254 63V56H9.36754C9.95087 56 10.4109 56.1017 10.7475 56.305C11.0875 56.505 11.3292 56.77 11.4725 57.1C11.6192 57.43 11.6925 57.785 11.6925 58.165C11.6925 58.4283 11.6409 58.695 11.5375 58.965C11.4375 59.235 11.2842 59.4783 11.0775 59.695C10.8709 59.9117 10.6109 60.0717 10.2975 60.175L11.6775 63H10.2225L8.89754 60.35H7.47754V63H6.18254ZM7.47754 59.13H9.38754C9.63087 59.13 9.82254 59.085 9.96254 58.995C10.1059 58.9017 10.2075 58.7817 10.2675 58.635C10.3275 58.4883 10.3575 58.3333 10.3575 58.17C10.3575 58.0233 10.3292 57.8767 10.2725 57.73C10.2159 57.5833 10.1175 57.4617 9.97754 57.365C9.83754 57.2683 9.64087 57.22 9.38754 57.22H7.47754V59.13ZM13.0771 63V56H17.8071V57.23H14.3721V58.77H16.4071V60H14.3721V61.76H18.0171V63H13.0771ZM18.8752 63L21.5402 56H22.7702L25.4452 63H24.0502L23.4952 61.52H20.8202L20.2752 63H18.8752ZM21.2402 60.335H23.0652L22.3652 58.46C22.3419 58.4033 22.3169 58.34 22.2902 58.27C22.2635 58.2 22.2385 58.13 22.2152 58.06C22.1919 57.9867 22.1719 57.9233 22.1552 57.87C22.1385 57.9233 22.1185 57.9867 22.0952 58.06C22.0719 58.13 22.0469 58.2 22.0202 58.27C21.9935 58.34 21.9685 58.4033 21.9452 58.46L21.2402 60.335ZM28.8475 63.11C28.3042 63.11 27.8442 63.005 27.4675 62.795C27.0942 62.585 26.7925 62.3067 26.5625 61.96C26.3359 61.61 26.1709 61.2217 26.0675 60.795C25.9642 60.3683 25.9125 59.9367 25.9125 59.5C25.9125 59.0867 25.9642 58.6683 26.0675 58.245C26.1742 57.8183 26.3425 57.4267 26.5725 57.07C26.8059 56.71 27.1092 56.4217 27.4825 56.205C27.8559 55.9883 28.3109 55.88 28.8475 55.88C29.2909 55.88 29.6759 55.955 30.0025 56.105C30.3292 56.2517 30.5992 56.4433 30.8125 56.68C31.0292 56.9133 31.1942 57.1583 31.3075 57.415L30.1475 57.955C30.0342 57.7817 29.9175 57.6333 29.7975 57.51C29.6775 57.3833 29.5409 57.2867 29.3875 57.22C29.2375 57.15 29.0575 57.115 28.8475 57.115C28.5475 57.115 28.2959 57.1883 28.0925 57.335C27.8892 57.4783 27.7259 57.6683 27.6025 57.905C27.4792 58.1417 27.3909 58.4 27.3375 58.68C27.2842 58.96 27.2575 59.2333 27.2575 59.5C27.2575 59.7833 27.2875 60.065 27.3475 60.345C27.4075 60.625 27.5025 60.88 27.6325 61.11C27.7625 61.34 27.9275 61.525 28.1275 61.665C28.3275 61.8017 28.5675 61.87 28.8475 61.87C29.1475 61.87 29.3992 61.7867 29.6025 61.62C29.8092 61.45 29.9925 61.2333 30.1525 60.97L31.3375 61.415C31.1875 61.7383 30.9992 62.0283 30.7725 62.285C30.5459 62.5417 30.2742 62.7433 29.9575 62.89C29.6409 63.0367 29.2709 63.11 28.8475 63.11ZM33.9918 63V57.245H32.0068V56H37.2818V57.245H35.2868V63H33.9918Z" fill="#A7AFC4"/>
</svg>
