<svg width="10" height="10" viewBox="0 0 10 10" fill="none" xmlns="http://www.w3.org/2000/svg">
<path d="M4.44444 0.555556C4.44444 0.555556 4.44444 0 5 0C5.55556 0 5.55556 0.555556 5.55556 0.555556V1.11111C5.55556 1.11111 5.55556 1.66667 5 1.66667C4.44444 1.66667 4.44444 1.11111 4.44444 1.11111V0.555556ZM9.44444 4.44444C9.44444 4.44444 10 4.44444 10 5C10 5.55556 9.44444 5.55556 9.44444 5.55556H8.88889C8.88889 5.55556 8.33333 5.55556 8.33333 5C8.33333 4.44444 8.88889 4.44444 8.88889 4.44444H9.44444ZM1.11111 4.44444C1.11111 4.44444 1.66667 4.44444 1.66667 5C1.66667 5.55556 1.11111 5.55556 1.11111 5.55556H0.555556C0.555556 5.55556 0 5.55556 0 5C0 4.44444 0.555556 4.44444 0.555556 4.44444H1.11111ZM2.53361 2.02583C2.53361 2.02583 2.92639 2.41861 2.53361 2.81139C2.14083 3.20417 1.74806 2.81139 1.74806 2.81139L1.355 2.41889C1.355 2.41889 0.962222 2.02611 1.355 1.63306C1.74806 1.24028 2.14083 1.63306 2.14083 1.63306L2.53361 2.02583ZM8.36695 7.85917C8.36695 7.85917 8.75972 8.25194 8.36695 8.64472C7.97417 9.0375 7.58139 8.64472 7.58139 8.64472L7.18861 8.25195C7.18861 8.25195 6.79583 7.85917 7.18861 7.46639C7.58139 7.07361 7.97417 7.46639 7.97417 7.46639L8.36695 7.85917ZM8.25222 2.81139C8.25222 2.81139 7.85944 3.20417 7.46667 2.81139C7.07389 2.41861 7.46667 2.02583 7.46667 2.02583L7.85945 1.63306C7.85945 1.63306 8.25222 1.24028 8.645 1.63306C9.03778 2.02583 8.645 2.41861 8.645 2.41861L8.25222 2.81139ZM2.41889 8.64472C2.41889 8.64472 2.02611 9.0375 1.63333 8.64472C1.24056 8.25194 1.63333 7.85917 1.63333 7.85917L2.02611 7.46639C2.02611 7.46639 2.41889 7.07361 2.81167 7.46639C3.20444 7.85917 2.81167 8.25195 2.81167 8.25195L2.41889 8.64472ZM4.44444 8.88889C4.44444 8.88889 4.44444 8.33333 5 8.33333C5.55556 8.33333 5.55556 8.88889 5.55556 8.88889V9.44444C5.55556 9.44444 5.55556 10 5 10C4.44444 10 4.44444 9.44444 4.44444 9.44444V8.88889Z" fill="#FFAC33"/>
<path d="M4.99995 7.77772C6.53407 7.77772 7.77772 6.53407 7.77772 4.99995C7.77772 3.46582 6.53407 2.22217 4.99995 2.22217C3.46582 2.22217 2.22217 3.46582 2.22217 4.99995C2.22217 6.53407 3.46582 7.77772 4.99995 7.77772Z" fill="#FFAC33"/>
</svg>
