<svg width="25" height="25" viewBox="0 0 25 25" fill="none" xmlns="http://www.w3.org/2000/svg">
<path d="M21.2556 3.63281C18.9174 1.28906 15.8036 0 12.4944 0C5.66406 0 0.106027 5.55804 0.106027 12.3884C0.106027 14.5703 0.675223 16.702 1.75781 18.5826L0 25L6.56808 23.2757C8.37612 24.2634 10.4129 24.7824 12.4888 24.7824H12.4944C19.3192 24.7824 25 19.2243 25 12.394C25 9.08482 23.5937 5.97656 21.2556 3.63281V3.63281ZM12.4944 22.6953C10.6417 22.6953 8.82812 22.1987 7.24888 21.2612L6.875 21.0379L2.97991 22.0592L4.01786 18.2589L3.77232 17.8683C2.73996 16.2277 2.19866 14.3359 2.19866 12.3884C2.19866 6.71317 6.8192 2.09263 12.5 2.09263C15.2511 2.09263 17.8348 3.16406 19.7768 5.11161C21.7187 7.05915 22.9129 9.64286 22.9074 12.394C22.9074 18.0748 18.1696 22.6953 12.4944 22.6953V22.6953ZM18.1417 14.9833C17.8348 14.827 16.3114 14.0792 16.0268 13.9788C15.7422 13.8728 15.5357 13.8225 15.3292 14.135C15.1228 14.4475 14.5313 15.1395 14.3471 15.3516C14.1685 15.558 13.9844 15.5859 13.6775 15.4297C11.8583 14.5201 10.6641 13.8058 9.46429 11.7467C9.14621 11.1998 9.78237 11.2388 10.3739 10.0558C10.4743 9.84933 10.4241 9.67076 10.346 9.51451C10.2679 9.35826 9.64844 7.83482 9.39174 7.2154C9.14063 6.61272 8.88393 6.69643 8.6942 6.68527C8.51563 6.67411 8.30915 6.67411 8.10268 6.67411C7.89621 6.67411 7.56138 6.75223 7.27679 7.05915C6.99219 7.37165 6.1942 8.11942 6.1942 9.64286C6.1942 11.1663 7.30469 12.6395 7.45536 12.846C7.61161 13.0525 9.63728 16.1775 12.7455 17.5223C14.7098 18.3705 15.4799 18.4431 16.4621 18.298C17.0592 18.2087 18.2924 17.5502 18.5491 16.8248C18.8058 16.0993 18.8058 15.4799 18.7277 15.3516C18.6551 15.2121 18.4487 15.1339 18.1417 14.9833Z" fill="#A7AFC4"/>
</svg>
